<svg width="188" height="481" viewBox="0 0 188 481" fill="none" xmlns="http://www.w3.org/2000/svg">
<g filter="url(#filter0_d_171_32941)">
<path fill-rule="evenodd" clip-rule="evenodd" d="M182 6H129.383L52.1021 49.1566L25.5303 126.365L6 216.505L42.0464 368.201L84.6497 433.358L145.86 474.5H182V473.5H146.538L150.489 393H182V392H150.455L146.578 360.348H182V359.348H146.737L159.358 326H182V325H160.091L181.245 300H182V299H181.213L160.261 279H182V278H159.548L165.479 192H182V191H165.359L146.735 141.406H182V140.406H146.455L130.078 7H182V6ZM145.343 139.552L129.107 7.29921L53.3407 49.6103L145.343 139.552ZM26.5374 126.512L52.4435 51.2375L73.9646 134.876L40.7281 174.711L26.5374 126.512ZM41.2495 175.647L74.7303 135.52L145.566 141.371L151.954 193.053L77.6442 200.484L41.2495 175.647ZM152.945 192.924L147.026 145.025L164.33 191.103L152.945 192.924ZM149.505 392.652L145.664 470.902L107.739 335.525L149.505 392.652ZM149.283 390.655L108.622 335.039L145.544 360.134L149.283 390.655ZM158.245 326.115L145.769 359.079L107.862 333.312L158.245 326.115ZM158.225 325.107L107.549 332.347L137.472 287.462L158.225 325.107ZM64.6498 284.047L136.603 286.964L106.46 332.177L64.6498 284.047ZM136.523 285.959L64.1007 283.023L77.8022 202.283L136.523 285.959ZM137.215 285.205L78.413 201.412L151.916 194.062L137.215 285.205ZM138.143 285.732L152.949 193.937L164.471 192.093L158.536 278.144L138.143 285.732ZM139.467 286.306L158.894 279.078L179.144 298.407L139.467 286.306ZM138.369 287.017L159.1 324.623L180.141 299.757L138.369 287.017ZM138.316 286.735L138.279 286.855L138.23 286.766L138.316 286.735ZM63.1991 282.36L76.9661 201.232L40.6058 176.419L7.16651 216.497L63.1991 282.36ZM26.0865 128.521L39.9576 175.635L7.43218 214.618L26.0865 128.521ZM42.2552 364.754L9.01524 224.869L45.2561 324.82L42.2552 364.754ZM43.024 367.868L46.0867 327.111L83.0751 429.123L43.024 367.868ZM144.876 472.634L85.6164 432.803L104.803 380.101L144.876 472.634ZM64.5399 287.13L104.225 378.766L85.2241 430.958L64.5399 287.13ZM45.8024 323.393L62.9307 283.588L7.9272 218.934L45.8024 323.393ZM83.8259 428.26L46.3003 324.766L63.2705 285.328L83.8259 428.26ZM143.544 467.042L65.2577 286.271L106.062 333.243L143.544 467.042ZM53.4429 51.1086L144.671 140.293L74.9083 134.531L53.4429 51.1086Z" fill="white" fill-opacity="0.8"/>
</g>
<defs>
<filter id="filter0_d_171_32941" x="0" y="0" width="188" height="480.5" filterUnits="userSpaceOnUse" color-interpolation-filters="sRGB">
<feFlood flood-opacity="0" result="BackgroundImageFix"/>
<feColorMatrix in="SourceAlpha" type="matrix" values="0 0 0 0 0 0 0 0 0 0 0 0 0 0 0 0 0 0 127 0" result="hardAlpha"/>
<feMorphology radius="4" operator="dilate" in="SourceAlpha" result="effect1_dropShadow_171_32941"/>
<feOffset/>
<feGaussianBlur stdDeviation="1"/>
<feColorMatrix type="matrix" values="0 0 0 0 0 0 0 0 0 1 0 0 0 0 0.901961 0 0 0 0.5 0"/>
<feBlend mode="normal" in2="BackgroundImageFix" result="effect1_dropShadow_171_32941"/>
<feBlend mode="normal" in="SourceGraphic" in2="effect1_dropShadow_171_32941" result="shape"/>
</filter>
</defs>
</svg>
