<svg width="188" height="481" viewBox="0 0 188 481" fill="none" xmlns="http://www.w3.org/2000/svg">
<g filter="url(#filter0_d_702_1892)">
<path fill-rule="evenodd" clip-rule="evenodd" d="M6 6H58.6174L135.898 49.1566L162.47 126.365L182 216.505L145.954 368.201L103.35 433.358L42.1397 474.5H6V473.5H41.4621L37.5112 393H6V392H37.5448L41.4223 360.348H6V359.348H41.2635L28.6419 326H6V325H27.9092L6.75539 300H6V299H6.78697L27.7393 279H6V278H28.4516L22.5206 192H6V191H22.641L41.2654 141.406H6V140.406H41.5449L57.9221 7H6V6ZM42.6573 139.552L58.8929 7.29921L134.659 49.6103L42.6573 139.552ZM161.463 126.512L135.556 51.2375L114.035 134.876L147.272 174.711L161.463 126.512ZM146.751 175.647L113.27 135.52L42.4337 141.371L36.0463 193.053L110.356 200.484L146.751 175.647ZM35.0546 192.924L40.9744 145.025L23.6705 191.103L35.0546 192.924ZM38.4954 392.652L42.3359 470.902L80.2607 335.525L38.4954 392.652ZM38.7171 390.655L79.3775 335.039L42.456 360.134L38.7171 390.655ZM29.7545 326.115L42.2305 359.079L80.1383 333.312L29.7545 326.115ZM29.7747 325.107L80.451 332.347L50.5278 287.462L29.7747 325.107ZM123.35 284.047L51.3972 286.964L81.5397 332.177L123.35 284.047ZM51.4774 285.959L123.899 283.023L110.198 202.283L51.4774 285.959ZM50.7849 285.205L109.587 201.412L36.0844 194.062L50.7849 285.205ZM49.8569 285.732L35.0512 193.937L23.5294 192.093L29.4639 278.144L49.8569 285.732ZM48.5333 286.306L29.1062 279.078L8.85616 298.407L48.5333 286.306ZM49.6313 287.017L28.9 324.623L7.8595 299.757L49.6313 287.017ZM49.6842 286.735L49.7208 286.855L49.7695 286.766L49.6842 286.735ZM124.801 282.36L111.034 201.232L147.394 176.419L180.833 216.497L124.801 282.36ZM161.914 128.521L148.042 175.635L180.568 214.618L161.914 128.521ZM145.745 364.754L178.985 224.869L142.744 324.82L145.745 364.754ZM144.976 367.868L141.913 327.111L104.925 429.123L144.976 367.868ZM43.1239 472.634L102.384 432.803L83.1971 380.101L43.1239 472.634ZM123.46 287.13L83.7752 378.766L102.776 430.958L123.46 287.13ZM142.198 323.393L125.069 283.588L180.073 218.934L142.198 323.393ZM104.174 428.26L141.7 324.766L124.73 285.328L104.174 428.26ZM44.4558 467.042L122.742 286.271L81.9384 333.243L44.4558 467.042ZM134.557 51.1086L43.3291 140.293L113.092 134.531L134.557 51.1086Z" fill="white" fill-opacity="0.8"/>
</g>
<defs>
<filter id="filter0_d_702_1892" x="0" y="0" width="188" height="480.5" filterUnits="userSpaceOnUse" color-interpolation-filters="sRGB">
<feFlood flood-opacity="0" result="BackgroundImageFix"/>
<feColorMatrix in="SourceAlpha" type="matrix" values="0 0 0 0 0 0 0 0 0 0 0 0 0 0 0 0 0 0 127 0" result="hardAlpha"/>
<feMorphology radius="4" operator="dilate" in="SourceAlpha" result="effect1_dropShadow_702_1892"/>
<feOffset/>
<feGaussianBlur stdDeviation="1"/>
<feColorMatrix type="matrix" values="0 0 0 0 0 0 0 0 0 1 0 0 0 0 0.901961 0 0 0 0.5 0"/>
<feBlend mode="normal" in2="BackgroundImageFix" result="effect1_dropShadow_702_1892"/>
<feBlend mode="normal" in="SourceGraphic" in2="effect1_dropShadow_702_1892" result="shape"/>
</filter>
</defs>
</svg>
