<svg xmlns="http://www.w3.org/2000/svg">

	<symbol id="loading" viewBox="0 0 24 24">
		<path fill-rule="evenodd" clip-rule="evenodd"
			d="M16.4009 22.6246C14.2995 23.495 11.9872 23.7228 9.75646 23.279C7.52568 22.8353 5.47658 21.74 3.86827 20.1317C2.25997 18.5234 1.1647 16.4743 0.720968 14.2435C0.277239 12.0128 0.504978 9.70049 1.37539 7.59914C2.24579 5.49778 3.71978 3.70173 5.61094 2.43809C7.50211 1.17446 9.72552 0.499994 12 0.499994C12.8284 0.499994 13.5 1.17157 13.5 1.99999C13.5 2.82842 12.8284 3.49999 12 3.49999C10.3189 3.49999 8.67547 3.99851 7.27765 4.9325C5.87983 5.8665 4.79037 7.19401 4.14702 8.74719C3.50368 10.3004 3.33535 12.0094 3.66332 13.6583C3.9913 15.3071 4.80085 16.8217 5.98959 18.0104C7.17834 19.1991 8.69289 20.0087 10.3417 20.3367C11.9906 20.6646 13.6996 20.4963 15.2528 19.853C16.806 19.2096 18.1335 18.1202 19.0675 16.7223C20.0015 15.3245 20.5 13.6811 20.5 12C20.5 11.1716 21.1716 10.5 22 10.5C22.8284 10.5 23.5 11.1716 23.5 12C23.5 14.2745 22.8255 16.4979 21.5619 18.3891C20.2983 20.2802 18.5022 21.7542 16.4009 22.6246Z" />
	</symbol>

	<symbol id="logIn" viewBox="0 0 24 24">
		<path class="st0" d="M12,3C9.8,3,8,4.8,8,7s1.8,4,4,4c2.2,0,4-1.8,4-4S14.2,3,12,3z M6,7c0-3.3,2.7-6,6-6c3.3,0,6,2.7,6,6
		s-2.7,6-6,6C8.7,13,6,10.3,6,7z" />
		<path class="st0" d="M2.4,22c0-4.6,4.5-8,9.6-8c5.1,0,9.6,3.4,9.6,8c0,0.6-0.4,1-1,1c-0.6,0-1-0.4-1-1c0-3.1-3.2-6-7.6-6
		c-4.4,0-7.6,2.9-7.6,6c0,0.6-0.4,1-1,1C2.9,23,2.4,22.6,2.4,22z" />
	</symbol>

	<symbol id="logOut" viewBox="0 0 24 24">
		<path d="M12,13c3.3,0,6-2.7,6-6s-2.7-6-6-6S6,3.7,6,7S8.7,13,12,13z M12,3c2.2,0,4,1.8,4,4s-1.8,4-4,4c-2.2,0-4-1.8-4-4S9.8,3,12,3
		z" />
		<path d="M21.7,14.7C20.8,13.6,19.4,13,18,13c-1.3,0-2.4,0.5-3.4,1.3C13.8,14.1,12.9,14,12,14c-5.3,0-9.6,3.6-9.6,8c0,0.6,0.4,1,1,1
		s1-0.4,1-1c0-3.3,3.4-6,7.6-6c0.5,0,0.9,0,1.4,0.1C13.1,16.7,13,17.3,13,18c0,0.9,0.3,1.8,0.7,2.6c0.3,0.4,0.6,0.8,0.9,1.1
		c0.9,0.8,2.1,1.3,3.3,1.3c1.7,0,3.4-0.9,4.3-2.4c0.3-0.4,0.5-0.9,0.6-1.4c0.1-0.4,0.2-0.8,0.2-1.2C23,16.8,22.5,15.6,21.7,14.7z
		 M20.9,18.7c-0.1,0.3-0.2,0.6-0.3,0.8C20,20.5,19.1,21,18,21c-0.7,0-1.4-0.3-2-0.8c-0.2-0.2-0.4-0.4-0.6-0.7
		c-0.3-0.5-0.4-1-0.4-1.5c0-0.8,0.3-1.5,0.8-2.1c0.6-0.6,1.3-0.9,2.2-0.9c0.9,0,1.7,0.4,2.2,1c0.5,0.6,0.8,1.3,0.8,2
		C21,18.2,21,18.5,20.9,18.7z" />
		<path d="M19.5,17h-3c-0.6,0-1,0.4-1,1s0.4,1,1,1h3c0.6,0,1-0.4,1-1S20,17,19.5,17z" />
	</symbol>

	<symbol id="phonePlus" viewBox="0 0 24 24">
		<path d="M22.7,17.1c-0.2-0.4-0.5-0.8-0.9-1.1l-3.3-2.4c-0.3-0.2-0.6-0.4-0.9-0.5c-0.8-0.3-1.6-0.2-2.2,0.1c-0.3,0.2-0.6,0.4-1,0.7
		l-0.6,0.6c-0.2-0.1-0.5-0.3-1-0.7c-0.5-0.4-0.9-0.8-1.5-1.4c-0.5-0.5-0.9-1-1.4-1.5c-0.4-0.5-0.6-0.8-0.7-1l0.6-0.6
		c0.3-0.3,0.5-0.6,0.7-0.9c0.2-0.4,0.4-0.8,0.4-1.2c0-0.3-0.1-0.7-0.2-1c-0.1-0.3-0.3-0.6-0.5-0.9L7.9,2.2C7.6,1.8,7.3,1.5,6.8,1.3
		C6.5,1.1,6,1,5.6,1c-1,0-2,0.4-2.8,1.2c-0.6,0.6-1.1,1.3-1.4,2C1.1,5,1,5.7,1,6.5c0,1.2,0.3,2.4,0.8,3.7c0.5,1.2,1.2,2.4,2.1,3.6
		c0.9,1.2,1.8,2.3,2.9,3.4c1.1,1.1,2.2,2,3.4,2.9c1.2,0.9,2.4,1.6,3.6,2.1c1.3,0.5,2.5,0.8,3.7,0.8c0.8,0,1.6-0.2,2.3-0.5
		c0.7-0.3,1.4-0.8,2-1.4c0.3-0.4,0.6-0.8,0.8-1.3c0.2-0.5,0.3-1,0.3-1.5C23,17.9,22.9,17.6,22.7,17.1z M20.8,19
		c-0.1,0.3-0.3,0.5-0.5,0.8c-0.4,0.4-0.8,0.7-1.3,0.9c-1.3,0.5-2.8,0.4-4.4-0.3c-1.1-0.5-2.2-1.1-3.2-1.9c-1.1-0.8-2.2-1.7-3.2-2.7
		c-1-1-1.9-2.1-2.7-3.2c-0.8-1.1-1.4-2.2-1.8-3.2C3.2,8.4,3,7.4,3,6.5C3,6,3.1,5.5,3.3,5c0.2-0.5,0.5-0.9,0.9-1.3
		C4.7,3.2,5.1,3,5.6,3C5.7,3,5.9,3,6,3.1c0.1,0.1,0.2,0.1,0.3,0.2l2.3,3.3c0.1,0.2,0.2,0.3,0.3,0.5c0.1,0.1,0.1,0.2,0.1,0.2
		c0,0.1,0,0.1-0.1,0.2C8.8,7.6,8.7,7.8,8.4,8L7.7,8.8C7.4,9.1,7.2,9.5,7.2,9.9c0,0.2,0,0.3,0.1,0.5l0.2,0.4c0.2,0.4,0.6,0.9,1.1,1.5
		c0.5,0.6,1,1.1,1.5,1.6c0.6,0.6,1.2,1.1,1.6,1.5c0.6,0.5,1,0.8,1.5,1l0.3,0.1c0.5,0.2,1.3,0.1,1.7-0.4l0.8-0.8
		c0.2-0.2,0.4-0.3,0.5-0.4c0.2-0.2,0.3-0.1,0.4,0c0.1,0.1,0.3,0.2,0.5,0.3l3.3,2.4c0.1,0.1,0.2,0.2,0.2,0.2c0.1,0.2,0.1,0.3,0.1,0.4
		C21,18.6,20.9,18.8,20.8,19z" />
		<path d="M15.5,7H17v1.5c0,0.6,0.4,1,1,1s1-0.4,1-1V7h1.5c0.6,0,1-0.4,1-1s-0.4-1-1-1H19V3.5c0-0.6-0.4-1-1-1s-1,0.4-1,1V5h-1.5
		c-0.6,0-1,0.4-1,1S14.9,7,15.5,7z" />
	</symbol>

	<symbol id="phoneCall" viewBox="0 0 24 24">
		<path
			d="M17.5,23c-1.2,0-2.4-0.3-3.7-0.8c-1.2-0.5-2.4-1.2-3.6-2.1c-1.2-0.9-2.3-1.8-3.4-2.9c-1.1-1.1-2-2.2-2.9-3.4
		c-0.9-1.2-1.6-2.4-2.1-3.6C1.3,8.9,1,7.7,1,6.5C1,5.7,1.1,5,1.4,4.2c0.3-0.8,0.8-1.4,1.4-2C3.6,1.4,4.6,1,5.6,1
		C6,1,6.5,1.1,6.8,1.3c0.4,0.2,0.8,0.5,1.1,0.9l2.3,3.3c0.2,0.3,0.4,0.6,0.5,0.9c0.1,0.3,0.2,0.7,0.2,1c0,0.4-0.1,0.8-0.4,1.2
		c-0.2,0.3-0.4,0.6-0.7,0.9L9.3,10c0.1,0.2,0.3,0.5,0.7,1c0.5,0.6,0.9,1.1,1.4,1.5c0.6,0.6,1.1,1,1.5,1.4c0.4,0.4,0.8,0.6,1,0.7
		l0.6-0.6c0.3-0.3,0.6-0.6,1-0.7c0.6-0.4,1.4-0.4,2.2-0.1c0.3,0.1,0.6,0.3,0.9,0.5l3.3,2.4c0.4,0.3,0.7,0.6,0.9,1.1
		c0.2,0.4,0.2,0.8,0.2,1.2c0,0.5-0.1,1-0.3,1.5c-0.2,0.5-0.5,0.9-0.8,1.3c-0.6,0.7-1.3,1.1-2,1.4C19.1,22.8,18.3,23,17.5,23z M5.6,3
		C5.1,3,4.7,3.2,4.2,3.7C3.8,4.1,3.5,4.5,3.3,5C3.1,5.5,3,6,3,6.5c0,0.9,0.2,1.9,0.6,2.9c0.4,1,1.1,2.1,1.8,3.2
		c0.8,1.1,1.7,2.2,2.7,3.2c1,1,2.1,1.9,3.2,2.7c1.1,0.8,2.2,1.4,3.2,1.9c1.6,0.7,3.2,0.9,4.4,0.3c0.5-0.2,0.9-0.5,1.3-0.9
		c0.2-0.2,0.4-0.5,0.5-0.8c0.1-0.2,0.2-0.4,0.2-0.7c0-0.1,0-0.3-0.1-0.4c0,0-0.1-0.1-0.2-0.2l-3.3-2.4c-0.2-0.1-0.4-0.2-0.5-0.3
		c-0.1-0.1-0.2-0.1-0.4,0c-0.1,0.1-0.3,0.2-0.5,0.4l-0.8,0.8c-0.5,0.5-1.2,0.6-1.7,0.4l-0.3-0.1c-0.4-0.2-0.9-0.6-1.5-1
		c-0.5-0.4-1-0.9-1.6-1.5c-0.5-0.5-1-1-1.5-1.6c-0.5-0.6-0.8-1.1-1.1-1.5l-0.2-0.4c0-0.2-0.1-0.3-0.1-0.5c0-0.4,0.2-0.8,0.5-1.1
		L8.4,8c0.2-0.2,0.4-0.4,0.4-0.5c0.1-0.1,0.1-0.2,0.1-0.2c0,0,0-0.1-0.1-0.2C8.8,6.9,8.7,6.8,8.6,6.6L6.3,3.3C6.2,3.2,6.1,3.1,6,3.1
		C5.9,3,5.7,3,5.6,3z M13.7,14.8C13.7,14.9,13.7,14.9,13.7,14.8L13.7,14.8z M9.1,10.2L9.1,10.2C9.1,10.2,9.1,10.2,9.1,10.2z" />
		<path d="M18.5,10c-0.6,0-1-0.4-1-1c0-0.2-0.3-0.9-0.9-1.6c-0.5-0.6-1.1-0.9-1.6-0.9c-0.6,0-1-0.4-1-1s0.4-1,1-1
		c1,0,2.2,0.6,3.1,1.6C18.8,6.8,19.5,8,19.5,9C19.5,9.6,19.1,10,18.5,10z" />
		<path
			d="M22,10c-0.6,0-1-0.4-1-1c0-3.3-2.7-6-6-6c-0.6,0-1-0.4-1-1s0.4-1,1-1c4.4,0,8,3.6,8,8C23,9.6,22.6,10,22,10z" />
	</symbol>

	<symbol id="doc" viewBox="0 0 41 45">
		<path fill-rule="evenodd" clip-rule="evenodd"
			d="M5.64867 5.91195C4.33336 7.32844 3.625 9.45976 3.625 12.2923V32.709C3.625 35.5415 4.33336 37.6729 5.64867 39.0894C6.94529 40.4857 9.04632 41.4173 12.3333 41.4173H28.6667C31.9537 41.4173 34.0547 40.4857 35.3513 39.0894C36.6666 37.6729 37.375 35.5415 37.375 32.709V12.2923C37.375 9.45976 36.6666 7.32844 35.3513 5.91195C34.0547 4.51559 31.9537 3.58398 28.6667 3.58398H12.3333C9.04632 3.58398 6.94529 4.51559 5.64867 5.91195ZM3.45029 3.8706C5.47137 1.69405 8.47452 0.583984 12.3333 0.583984H28.6667C32.5255 0.583984 35.5286 1.69405 37.5497 3.8706C39.5521 6.02703 40.375 8.99988 40.375 12.2923V32.709C40.375 36.0014 39.5521 38.9743 37.5497 41.1307C35.5286 43.3073 32.5255 44.4173 28.6667 44.4173H12.3333C8.47452 44.4173 5.47137 43.3073 3.45029 41.1307C1.44789 38.9743 0.625 36.0014 0.625 32.709V12.2923C0.625 8.99988 1.44789 6.02703 3.45029 3.8706Z" />
		<path fill-rule="evenodd" clip-rule="evenodd"
			d="M25.6016 5.6875C26.43 5.6875 27.1016 6.35907 27.1016 7.1875V11.2708C27.1016 12.6882 28.2675 13.8542 29.6849 13.8542H33.7682C34.5967 13.8542 35.2682 14.5257 35.2682 15.3542C35.2682 16.1826 34.5967 16.8542 33.7682 16.8542H29.6849C26.6106 16.8542 24.1016 14.3451 24.1016 11.2708V7.1875C24.1016 6.35907 24.7731 5.6875 25.6016 5.6875Z" />
		<path fill-rule="evenodd" clip-rule="evenodd"
			d="M10.8359 24.541C10.8359 23.7126 11.5075 23.041 12.3359 23.041H20.5026C21.331 23.041 22.0026 23.7126 22.0026 24.541C22.0026 25.3694 21.331 26.041 20.5026 26.041H12.3359C11.5075 26.041 10.8359 25.3694 10.8359 24.541Z" />
		<path fill-rule="evenodd" clip-rule="evenodd"
			d="M10.8359 32.709C10.8359 31.8806 11.5075 31.209 12.3359 31.209H28.6693C29.4977 31.209 30.1693 31.8806 30.1693 32.709C30.1693 33.5374 29.4977 34.209 28.6693 34.209H12.3359C11.5075 34.209 10.8359 33.5374 10.8359 32.709Z" />
	</symbol>

	<symbol id="arrowPrev" viewBox="0 0 20 20">
		<path fill-rule="evenodd" clip-rule="evenodd"
			d="M7.70711 14.7071C7.31658 15.0976 6.68342 15.0976 6.29289 14.7071L2.29289 10.7071C1.90237 10.3166 1.90237 9.68342 2.29289 9.29289L6.29289 5.29289C6.68342 4.90237 7.31658 4.90237 7.7071 5.29289C8.09763 5.68342 8.09763 6.31658 7.7071 6.70711L5.41421 9L17 9C17.5523 9 18 9.44772 18 10C18 10.5523 17.5523 11 17 11L5.41421 11L7.70711 13.2929C8.09763 13.6834 8.09763 14.3166 7.70711 14.7071Z" />
	</symbol>

	<symbol id="arrowNext" viewBox="0 0 20 20">
		<path fill-rule="evenodd" clip-rule="evenodd"
			d="M12.2929 5.29289C12.6834 4.90237 13.3166 4.90237 13.7071 5.29289L17.7071 9.29289C18.0976 9.68342 18.0976 10.3166 17.7071 10.7071L13.7071 14.7071C13.3166 15.0976 12.6834 15.0976 12.2929 14.7071C11.9024 14.3166 11.9024 13.6834 12.2929 13.2929L14.5858 11H3C2.44772 11 2 10.5523 2 10C2 9.44772 2.44772 9 3 9H14.5858L12.2929 6.70711C11.9024 6.31658 11.9024 5.68342 12.2929 5.29289Z" />
	</symbol>

	<symbol id="whiteLabel" viewBox="0 0 60 57">
		<path
			d="M29.3509 56.2618C29.3613 56.2869 29.3667 56.3138 29.3667 56.341C29.3667 56.3682 29.3613 56.3952 29.3509 56.4203C29.3271 56.4473 29.2979 56.4689 29.2652 56.4837C29.2324 56.4985 29.1969 56.5061 29.161 56.5061C29.1251 56.5061 29.0896 56.4985 29.0568 56.4837C29.0241 56.4689 28.9949 56.4473 28.9711 56.4203C28.7968 56.2297 28.6062 56.0547 28.4015 55.8972C27.7759 55.4519 27.1143 55.0595 26.4237 54.7243L26.2021 54.6292C25.7861 54.8309 25.3889 55.0697 25.0154 55.3425C24.1981 55.7735 23.2472 55.8756 22.3572 55.6278C22.5653 55.499 22.7521 55.3386 22.911 55.1522C23.0692 54.9779 23.18 54.8194 23.2907 54.7243C23.718 54.2963 23.892 53.9001 24.3983 53.8367L23.0218 53.2343H22.8635C22.4521 53.3294 21.8192 54.0269 20.9964 54.2329C19.4142 54.645 18.5597 54.2329 17.6895 54.5024C18.1846 53.7096 18.8771 53.0596 19.699 52.6162C19.869 52.5253 20.0497 52.456 20.2369 52.4101C20.4309 52.379 20.6285 52.379 20.8224 52.4101H20.9173C20.2211 52.0931 19.4933 51.7444 18.7338 51.3481C18.0553 51.7581 17.3113 52.0477 16.5344 52.204C14.6199 52.3784 13.9237 51.3323 12.3888 51.3957C12.4512 51.3012 12.5319 51.2203 12.6262 51.1579C13.1052 50.7907 13.6392 50.5018 14.2085 50.302C14.8948 50.0444 15.6307 49.9468 16.3604 50.0167C15.8699 49.6997 15.3635 49.3826 14.873 49.0339C14.0111 49.5944 13.0051 49.8918 11.9775 49.8899C11.0124 49.6908 10.0907 49.3204 9.25594 48.7962C8.83229 48.6354 8.39166 48.5237 7.94264 48.4633C8.46755 48.004 9.08171 47.6586 9.74644 47.4489C10.5676 47.2334 11.4134 47.1268 12.2623 47.1319C12.4294 47.1404 12.5945 47.1724 12.7528 47.227C12.3572 46.91 11.9616 46.5612 11.5819 46.2125C10.1324 46.6915 8.559 46.6295 7.1515 46.0382C6.36907 45.4289 5.64831 44.744 4.9996 43.9935C4.76226 43.7715 4.47745 43.613 4.2401 43.4228C5.15102 43.2645 6.08236 43.2645 6.99328 43.4228C7.43778 43.4675 7.87733 43.5524 8.30656 43.6764C8.78533 43.8157 9.23921 44.0297 9.65151 44.3105L9.54075 44.1837C9.22429 43.8191 8.92366 43.4387 8.63885 43.0583C8.32239 42.6462 8.02176 42.234 7.73695 41.7902C6.44023 41.9009 5.13798 41.6543 3.97112 41.077C2.57872 39.9357 2.23062 38.2873 1.32872 36.5595L2.54707 37.0826C3.76233 37.4644 4.89494 38.072 5.88568 38.8737L6.09138 39.0798L6.32871 39.3492C6.20213 39.0956 6.05973 38.842 5.94897 38.5884C5.63785 37.8953 5.36322 37.1864 5.12619 36.4644C4.07355 36.2866 3.08291 35.845 2.24644 35.1806C0.910026 33.5879 0.131868 31.6001 0.03125 29.5219L0.142009 29.6487C0.933148 30.7107 2.38885 31.2338 3.49644 32.2006C3.70519 32.379 3.88647 32.5873 4.03441 32.8188V32.9139C4.11762 33.0405 4.19164 33.173 4.25593 33.3102C4.16099 32.8664 4.08188 32.4067 4.01859 31.9629C3.92365 31.2655 3.87618 30.5839 3.84454 29.8865C3.20233 29.7454 2.60426 29.4493 2.10237 29.0239C1.60047 28.5984 1.20994 28.0566 0.964789 27.4455C0.438793 25.5595 0.288258 23.5883 0.521753 21.6442C1.27428 22.9221 2.1373 24.1314 3.10087 25.2581C3.28751 25.5711 3.44634 25.9 3.57555 26.2408V26.3359C3.70169 26.6645 3.79704 27.0041 3.86036 27.3504V26.6847C3.94583 25.8808 4.07258 25.082 4.2401 24.2912C3.60756 23.8715 3.0801 23.3115 2.69867 22.6545C2.31723 21.9975 2.0921 21.2612 2.04074 20.5029C1.92972 19.7781 1.92972 19.0404 2.04074 18.3156C2.03306 18.279 2.03306 18.2412 2.04074 18.2046C2.11071 17.7545 2.21115 17.3096 2.34138 16.8732C2.34138 16.8732 2.34138 16.7781 2.34138 16.7305C2.48378 16.2867 2.62619 15.8587 2.80024 15.4308V15.304C2.97429 14.876 3.16416 14.448 3.35403 14.0359C3.43265 15.1516 3.667 16.2507 4.05024 17.3011C4.161 17.634 4.28757 17.9827 4.41416 18.3314C4.54074 18.6801 4.63568 18.9971 4.73062 19.3141C4.92104 20.0056 5.01162 20.7209 4.9996 21.4381C5.30705 20.5054 5.67709 19.5946 6.10719 18.7118L6.36036 18.2363C5.67008 17.5456 5.19229 16.6709 4.98378 15.7161C4.87276 15.0018 4.87276 14.2747 4.98378 13.5604C4.98378 13.5604 4.98378 13.4653 4.98378 13.4177C5.06458 12.9826 5.1756 12.5535 5.31605 12.1339C5.30714 12.0761 5.30714 12.0173 5.31605 11.9595C5.45079 11.5335 5.60927 11.1155 5.79074 10.7073C5.78512 10.6546 5.78512 10.6015 5.79074 10.5488C5.96479 10.1367 6.17049 9.70871 6.36036 9.31245C6.36632 10.1121 6.48348 10.907 6.70847 11.6742C6.70847 11.9278 6.83505 12.1814 6.91416 12.4509L7.1515 13.2434C7.36443 14.0067 7.46569 14.7969 7.45214 15.5893C7.44667 15.7571 7.41462 15.9229 7.3572 16.0806C7.81606 15.3198 8.30657 14.6224 8.8129 13.925C8.26016 12.9654 8.01699 11.8582 8.11669 10.7549C8.15565 9.93072 8.40047 9.12957 8.82872 8.42482C8.94768 8.22597 9.07984 8.03533 9.22429 7.8542C9.5091 7.47379 9.82555 7.14093 10.1262 6.80807C10.4266 6.46403 10.7016 6.09849 10.949 5.71438C10.4901 7.7908 10.949 9.77212 10.3002 11.7693C10.265 11.8828 10.2227 11.9939 10.1736 12.1022C10.4426 11.7851 10.6958 11.4364 10.9806 11.1194C11.2654 10.8024 11.6452 10.4061 11.9933 10.0416C11.8498 9.3633 11.7652 8.67388 11.7401 7.981C11.7401 7.80665 11.7401 7.63229 11.7401 7.44209C11.7642 7.22346 11.8012 7.00646 11.8509 6.79221C12.3377 5.35579 13.2412 4.0975 14.4458 3.17829C13.9617 4.45311 13.7254 5.8089 13.7496 7.17263C13.7144 7.69203 13.5744 8.19888 13.3382 8.66258C13.6863 8.32972 14.0344 7.99685 14.3825 7.69569L14.6673 7.42624C14.6673 7.22018 14.6673 6.74466 14.7623 6.12649C14.7712 6.07937 14.7712 6.03096 14.7623 5.98384C14.756 5.8624 14.756 5.74072 14.7623 5.61928C14.7623 5.49247 14.7623 5.36567 14.7623 5.22301C14.7972 5.07829 14.8394 4.93545 14.8888 4.79505C14.9328 4.69196 14.9698 4.58605 14.9996 4.47803C15.0945 4.27198 15.2053 4.05007 15.3161 3.84402C15.354 3.78395 15.3858 3.72023 15.411 3.6538C15.5997 3.36167 15.8058 3.08114 16.0281 2.81373C16.6842 2.13545 17.4698 1.59639 18.3382 1.22867L19.2085 0.848256C18.4979 1.97097 17.9091 3.16655 17.4521 4.41463C17.1623 4.90475 16.8343 5.37115 16.4711 5.80948L17.3097 5.17546L18.18 4.54144C18.1823 4.49391 18.1823 4.44631 18.18 4.39878L18.2907 4.14517C18.2994 4.08738 18.2994 4.02861 18.2907 3.97082L18.4173 3.74891C18.4611 3.65409 18.5141 3.56382 18.5756 3.47945L18.6705 3.3051C18.739 3.19577 18.8129 3.08997 18.892 2.98808L18.9869 2.84543L19.2559 2.54426L19.3667 2.41746C19.4645 2.31418 19.5703 2.21878 19.6831 2.13215L19.7939 2.03705C19.9438 1.92401 20.1025 1.8233 20.2686 1.73589C21.4718 1.24455 22.7093 0.841933 23.9711 0.53125C23.3719 1.42196 22.711 2.26941 21.9933 3.06734C20.9658 4.07589 19.5868 4.64434 18.1483 4.65239L16.1388 6.15819C16.6461 5.94572 17.1775 5.79665 17.7211 5.71438H17.8794L18.7338 5.60342L19.4933 5.50832C20.171 5.43646 20.8393 5.29301 21.4869 5.08036C20.7566 6.29178 19.6426 7.22359 18.3224 7.7274C17.0706 8.0173 15.7639 7.96253 14.5407 7.56889C13.9237 8.10781 13.2749 8.71013 12.642 9.37585L12.3572 9.69287C12.6147 9.49814 12.8966 9.33825 13.1958 9.21735L13.4015 9.1381H13.6705L14.0502 9.05884H14.2876C14.5299 9.04243 14.7731 9.04243 15.0154 9.05884C16.3244 9.21002 17.6463 9.21002 18.9553 9.05884H19.0661C17.9611 10.1047 16.5752 10.8044 15.0787 11.0719C13.9598 11.1636 12.8363 10.9615 11.8192 10.4854C11.0475 11.3084 10.3187 12.1708 9.63568 13.069C9.67012 13.024 9.71315 12.9863 9.76227 12.9581C9.97249 12.7783 10.2138 12.6386 10.4743 12.546C10.7067 12.4527 10.9445 12.3733 11.1863 12.3082C12.3483 12.0728 13.5294 11.9454 14.7148 11.9278C15.2032 11.9001 15.6893 11.8418 16.1705 11.7534C14.6831 12.8471 14.4458 13.9725 11.9458 14.7016C10.8704 14.9423 9.74416 14.7787 8.78125 14.242C8.21049 15.043 7.68233 15.8737 7.19897 16.7305L7.37302 16.5403L7.5629 16.3976C8.36593 16.0474 9.22145 15.8331 10.0945 15.7636L10.9331 15.6051C11.8859 15.4925 12.8149 15.2304 13.6863 14.8284C12.6297 16.5973 10.9815 17.9339 9.03442 18.6009C8.08495 18.7417 7.11995 18.7417 6.17049 18.6009C6.17049 18.7435 6.02809 18.8545 5.96479 18.9971C5.5041 19.974 5.10768 20.98 4.77809 22.0087C4.93555 21.8386 5.10475 21.6797 5.28441 21.5332C5.51741 21.3652 5.76048 21.2117 6.01226 21.0736H6.10719C6.34063 20.9565 6.58427 20.861 6.83505 20.7883C7.62619 20.6139 8.21163 20.5029 9.00277 20.3603C9.36681 20.3156 9.72664 20.2413 10.0787 20.1384C10.4279 20.0381 10.7591 19.883 11.0597 19.6787C10.4654 21.0552 9.50738 22.2432 8.28894 23.1146C7.07049 23.9861 5.63779 24.508 4.14517 24.6241L4.00277 25.3057C3.87619 26.0982 3.8129 26.8907 3.76543 27.7149C3.89429 27.4734 4.05384 27.2497 4.2401 27.0492C5.40033 26.1035 6.7331 25.3929 8.16416 24.9569C8.44746 24.803 8.72213 24.6337 8.98694 24.4497C9.25186 24.2651 9.50065 24.0583 9.73061 23.8316C9.01859 25.4166 8.97113 27.1126 6.99328 28.7452C6.24263 29.3361 5.35575 29.7286 4.41416 29.8865C4.41416 30.5363 4.41417 31.1862 4.57239 31.8202C4.73062 32.4543 4.7148 32.7079 4.79391 33.1358C4.78744 33.0673 4.78744 32.9983 4.79391 32.9298C4.81328 32.8586 4.83978 32.7896 4.87302 32.7237C4.90897 32.6413 4.9513 32.5618 4.9996 32.486L5.11036 32.3116C5.20164 32.1729 5.30208 32.0406 5.411 31.9153C5.67171 31.6117 5.95753 31.3307 6.26543 31.0753C6.8667 30.5839 7.53125 30.1718 8.14833 29.6963C8.45209 29.4476 8.73763 29.1775 9.00277 28.8879C8.84757 30.2516 8.57224 31.5988 8.17999 32.9139C7.72073 34.3114 6.77048 35.4943 5.50593 36.2425C5.74327 36.9558 5.99644 37.6532 6.29707 38.3348C6.43948 38.6518 6.61353 38.9688 6.77176 39.2858C6.71413 38.3627 6.9112 37.4414 7.34138 36.623C7.89518 35.4183 8.63885 35.0379 9.08189 33.8174C9.31501 34.9475 9.47882 36.0909 9.57239 37.2411C9.57743 38.8076 9.05946 40.3307 8.10087 41.5683C8.59597 42.3664 9.14582 43.1291 9.74644 43.8508C9.84138 43.9776 9.96796 44.1044 10.0787 44.2312C9.9391 43.6177 9.87009 42.9901 9.87302 42.3609C9.87302 42.2816 9.87302 42.1865 9.87302 42.1072C9.88325 41.7418 9.94178 41.3794 10.0471 41.0294C10.3794 39.9199 10.7591 38.636 11.0755 37.7325C11.2654 38.9213 11.93 39.9833 12.2148 41.1562C12.3097 41.5366 12.373 41.8695 12.4363 42.1865V42.4718C12.4363 42.6937 12.4363 42.8998 12.4363 43.09C12.4652 44.1147 12.2017 45.1265 11.6768 46.0065C12.0407 46.3552 12.4363 46.7039 12.8161 47.0209C12.4363 45.4359 13.4806 43.613 14.1293 42.2657C14.1293 42.1548 14.3034 42.5035 14.5566 43.09C14.8652 43.7816 15.0782 44.5122 15.1895 45.2615C15.3294 46.3334 15.1988 47.4233 14.8097 48.4316C15.2369 48.7486 15.68 49.0339 16.1072 49.3192C16.044 48.9042 16.044 48.482 16.1072 48.0671V47.7817L16.2496 47.2904L16.4395 46.8466C16.4395 46.7356 16.5502 46.6088 16.6293 46.482C16.7866 46.1947 16.9721 45.9239 17.1831 45.6736C17.2161 45.8585 17.2691 46.0392 17.3414 46.2125C17.3414 46.2125 17.3414 46.2918 17.3414 46.3235C18.1397 47.6758 18.5503 49.2224 18.5281 50.7933L18.6547 50.8726L20.3319 51.7127C20.2439 51.512 20.1699 51.3054 20.1104 51.0945V51.2055C19.8946 50.2225 19.8305 49.2121 19.9205 48.2097C20.4268 48.8754 21.2496 49.4619 21.8034 50.2227C21.9243 50.359 22.0304 50.5078 22.1199 50.6665C22.5124 51.3053 22.7205 52.0405 22.7211 52.7905L22.8952 52.8698L23.8445 53.2977C23.4078 52.4831 23.2679 51.5415 23.449 50.6348L24.3034 51.5383C24.5724 51.8078 24.8414 52.0455 25.142 52.315C25.7459 52.847 26.125 53.5895 26.2021 54.3914L27.0091 54.8035L28.2907 55.4693C28.5469 55.6086 28.7952 55.7621 29.0344 55.9289C29.1173 55.9396 29.194 55.9785 29.2516 56.0391C29.3092 56.0997 29.3443 56.1783 29.3509 56.2618ZM54.8888 36.3535C55.9415 36.1757 56.9321 35.734 57.7686 35.0696C59.1112 33.4806 59.8902 31.4906 59.9838 29.411C59.2819 30.2398 58.421 30.9189 57.4521 31.4081C57.122 31.6081 56.8097 31.8361 56.5186 32.0897C56.3131 32.2773 56.1324 32.4904 55.9806 32.7237V32.8188C55.8966 32.9423 55.8276 33.0753 55.7749 33.2151C55.854 32.7713 55.9331 32.3116 55.9964 31.8678C56.0914 31.1704 56.1388 30.4888 56.1705 29.7914C56.8143 29.6542 57.4143 29.3595 57.9168 28.9336C58.4192 28.5077 58.8087 27.9638 59.0502 27.3504C59.5842 25.4658 59.7348 23.4931 59.4933 21.5491C58.9939 22.5634 58.3547 23.5025 57.5946 24.3388C57.3572 24.6399 57.1357 24.9411 56.93 25.2581C56.7434 25.5711 56.5845 25.9 56.4553 26.2408C56.4553 26.2408 56.4553 26.2408 56.4553 26.3359C56.3313 26.6665 56.2308 27.0055 56.1547 27.3504C56.0767 26.3227 55.934 25.3009 55.7275 24.2912C56.3646 23.8751 56.8965 23.3162 57.2809 22.6587C57.6654 22.0012 57.8919 21.2632 57.9427 20.5029C58.0457 19.7775 58.0457 19.041 57.9427 18.3156C57.935 18.279 57.935 18.2412 57.9427 18.2046C57.8668 17.7556 57.7664 17.3111 57.642 16.8732V16.7305C57.5127 16.2892 57.3595 15.8554 57.1831 15.4308V15.304C57.0091 14.876 56.8192 14.448 56.6294 14.0359C56.5094 15.5156 56.1514 16.9662 55.5692 18.3314C55.169 19.3391 54.9753 20.4172 54.9996 21.5015C54.68 20.571 54.3048 19.6606 53.8762 18.7752L53.623 18.2997C54.3184 17.6104 54.8016 16.7357 55.0154 15.7795C55.1343 15.0659 55.1343 14.3374 55.0154 13.6238C55.0231 13.5766 55.0231 13.5284 55.0154 13.4811C54.9346 13.046 54.8236 12.6169 54.6831 12.1973V12.0229C54.543 11.5967 54.3793 11.1786 54.1926 10.7707V10.6122C54.0028 10.2001 53.8129 9.78797 53.6072 9.37585C53.5989 10.1742 53.4872 10.9681 53.2749 11.7376C53.2749 11.9912 53.1325 12.2448 53.0534 12.5143C52.9743 12.7837 52.8952 13.0373 52.8319 13.2909C52.6125 14.0532 52.5059 14.8436 52.5154 15.6368C52.5298 15.8035 52.5617 15.9682 52.6104 16.1282C52.1515 15.3674 51.661 14.6699 51.1547 13.9725C51.7074 13.013 51.9506 11.9057 51.8509 10.8024C51.8119 9.97828 51.5671 9.17712 51.1389 8.47237C50.6068 7.72546 50.0309 7.01092 49.4142 6.33255C49.2718 6.14234 49.1452 5.96799 49.0186 5.76193C49.4775 7.83835 49.0977 9.81967 49.6673 11.8168C49.7026 11.9303 49.7448 12.0415 49.7939 12.1497C49.5249 11.8327 49.2718 11.484 49.0028 11.167L47.9901 10.0891C48.1175 9.40872 48.1969 8.72016 48.2275 8.02856C48.2275 7.8542 48.2275 7.67985 48.2275 7.48964C48.1976 7.27079 48.1553 7.05382 48.1009 6.83977C47.6202 5.40018 46.7155 4.14022 45.5059 3.22584C45.9974 4.49862 46.234 5.85587 46.2021 7.22018C46.2525 7.73688 46.3917 8.24096 46.6135 8.71013L45.585 7.74325C45.4776 7.66191 45.377 7.57178 45.2844 7.47379C45.2844 7.26773 45.2844 6.79221 45.1895 6.17404C45.1953 6.12667 45.1953 6.07876 45.1895 6.03139V5.66683C45.1895 5.54002 45.1895 5.41322 45.0945 5.27056C45.0596 5.12584 45.0174 4.983 44.968 4.8426C44.9381 4.73458 44.9011 4.62867 44.8572 4.52558L44.5408 3.89157L44.4458 3.70136C44.2623 3.4056 44.056 3.12471 43.8287 2.86128C43.4025 2.40429 42.9056 2.01897 42.3572 1.72004C41.8079 1.40938 41.2368 1.1392 40.6483 0.91166C41.3413 2.0307 41.9242 3.21447 42.3889 4.44633C42.6678 4.94343 42.9964 5.41079 43.3699 5.84118L42.642 5.28642L41.6452 4.57314C41.6429 4.52561 41.6429 4.47801 41.6452 4.43048L41.5344 4.17688L41.4553 4.00252L41.3287 3.78061C41.2908 3.69106 41.243 3.606 41.1863 3.527C41.1553 3.4603 41.1183 3.39663 41.0756 3.33679C41.0109 3.22499 40.9368 3.11894 40.854 3.01979L40.7591 2.87713C40.6779 2.76947 40.5879 2.66873 40.4901 2.57597C40.4619 2.52676 40.4243 2.48366 40.3794 2.44917C40.2815 2.34588 40.1757 2.25048 40.0629 2.16385L39.9521 2.06875C39.8023 1.95571 39.6435 1.855 39.4774 1.76759C38.2742 1.27625 37.0367 0.873629 35.7749 0.562946C36.3771 1.45567 37.0435 2.30328 37.7686 3.09904C38.7903 4.10662 40.164 4.67527 41.5977 4.68409C42.2148 5.12791 42.8793 5.61928 43.6072 6.1899C43.1 5.97742 42.5685 5.82835 42.0249 5.74608H41.392L40.5534 5.63512L39.873 5.55587C39.1683 5.48203 38.4735 5.33326 37.8002 5.11206C38.522 6.33089 39.6389 7.26514 40.9648 7.7591C42.2113 8.04846 43.5128 7.99368 44.7306 7.60059C45.3947 8.16916 46.0285 8.77231 46.6293 9.40756C46.7243 9.50266 46.8192 9.62947 46.93 9.72457C46.6703 9.5332 46.3888 9.37357 46.0914 9.24905L45.8857 9.1698H45.6009L45.2369 9.09054H44.9838C44.7467 9.07431 44.5088 9.07431 44.2718 9.09054C42.9575 9.24113 41.6304 9.24113 40.3161 9.09054H40.2211C41.3201 10.136 42.7009 10.8358 44.1927 11.1036C45.3165 11.1923 46.4443 10.9903 47.468 10.5171C48.1958 11.3096 48.9237 12.1022 49.6515 13.1007L49.5091 12.9898C49.2989 12.81 49.0575 12.6703 48.7971 12.5777C46.8667 11.8485 45.0787 12.1497 43.1009 11.7851C44.6832 12.8788 44.8256 14.0042 47.3256 14.7333C48.4012 14.9695 49.5258 14.8062 50.4901 14.2737C51.0439 15.0504 51.5819 15.8587 52.0724 16.7622C52.0226 16.6918 51.9641 16.6279 51.8983 16.572L51.7243 16.4294C51.2235 16.1862 50.6907 16.0154 50.142 15.9221C49.5407 15.827 48.9236 15.7636 48.4015 15.6368C47.7001 15.5283 47.0074 15.3694 46.3287 15.1613C46.0999 15.0779 45.8778 14.9772 45.6642 14.8601C46.7105 16.6316 48.3549 17.9697 50.3002 18.6326C51.2497 18.7734 52.2147 18.7734 53.1642 18.6326C53.1642 18.7752 53.3066 18.8862 53.3857 19.0288C53.8344 20.0089 54.2254 21.0145 54.5566 22.0404C54.3991 21.8703 54.2299 21.7114 54.0502 21.5649C53.8251 21.3935 53.5871 21.2398 53.3382 21.1053H53.2433C53.0045 20.9879 52.7556 20.8924 52.4996 20.82C51.7243 20.6456 51.1389 20.5346 50.3477 20.392C49.9782 20.3488 49.613 20.2745 49.2559 20.1701C48.9067 20.0698 48.5756 19.9147 48.2749 19.7104C48.8722 21.0849 49.8309 22.271 51.0488 23.142C52.2666 24.013 53.6978 24.5363 55.1895 24.6558L55.3319 25.3374C55.4587 26.135 55.538 26.9395 55.5692 27.7466L55.4585 27.5406C55.355 27.374 55.2329 27.2198 55.0946 27.0809C54.1137 26.2761 53.0071 25.6388 51.8192 25.1947L51.4078 24.9411C50.9899 24.6971 50.6022 24.4045 50.2528 24.0693C50.9648 25.6544 51.0281 27.3504 52.9901 28.983C53.7446 29.5775 54.6375 29.9702 55.5851 30.1242C55.5851 30.7741 55.4901 31.424 55.411 32.058C55.3319 32.692 55.2686 32.9456 55.1895 33.3736C55.196 33.3051 55.196 33.2361 55.1895 33.1675C55.1701 33.0963 55.1436 33.0273 55.1104 32.9615C55.0744 32.879 55.0321 32.7995 54.9838 32.7237C54.9564 32.66 54.919 32.6012 54.873 32.5494C54.7818 32.4107 54.6813 32.2783 54.5724 32.1531C53.5123 30.9009 52.0566 30.3303 50.9806 29.1256C51.1435 30.4881 51.4187 31.8347 51.8034 33.1517C52.2627 34.5492 53.2129 35.732 54.4775 36.4803C54.2401 37.1936 53.987 37.891 53.6863 38.5726C53.5439 38.8896 53.3857 39.2066 53.2274 39.5236C53.2712 38.844 53.1686 38.1629 52.9268 37.5264C52.8477 37.3045 52.7528 37.0826 52.6578 36.8607C52.402 36.3596 52.0944 35.8868 51.7401 35.45C51.3826 35.0368 51.0989 34.565 50.9015 34.0552C50.6657 35.1843 50.5071 36.3282 50.4268 37.4789C50.4144 39.0465 50.9331 40.5721 51.8983 41.8061C51.3776 42.5984 50.8123 43.3604 50.2053 44.0886L49.8572 44.469C50.0046 43.8568 50.0737 43.2283 50.0629 42.5986C50.0708 42.5143 50.0708 42.4294 50.0629 42.345C50.0527 41.9796 49.9941 41.6172 49.8888 41.2672C49.8888 40.9819 49.7306 40.6965 49.6357 40.4112C49.3667 39.5395 49.0977 38.6518 48.8604 37.9702C48.6705 39.159 48.0059 40.221 47.7211 41.394C47.6262 41.7744 47.5629 42.1072 47.5154 42.4243C47.5079 42.5192 47.5079 42.6146 47.5154 42.7096C47.5014 42.9154 47.5014 43.1219 47.5154 43.3277C47.4784 44.3534 47.7425 45.3674 48.2749 46.2442C47.8952 46.5929 47.5154 46.9417 47.1199 47.2587C47.1781 47.0417 47.2048 46.8175 47.199 46.5929C47.0364 45.1646 46.5609 43.7899 45.8066 42.5669C45.2647 43.4882 44.9048 44.5052 44.7464 45.5627V45.6578C44.6086 46.7297 44.7391 47.8191 45.1262 48.8279C44.699 49.1449 44.2717 49.4302 43.8287 49.7155C43.8999 49.3012 43.8999 48.8777 43.8287 48.4633V48.178C43.7939 48.0056 43.7463 47.8361 43.6863 47.6708C43.6393 47.5265 43.5755 47.3882 43.4964 47.2587C43.445 47.129 43.3869 47.002 43.3224 46.8783C43.1541 46.5979 42.9692 46.328 42.7686 46.0699C42.7686 46.2442 42.6737 46.4186 42.6104 46.6088C42.6189 46.6506 42.6189 46.6938 42.6104 46.7356C42.4363 47.227 42.1832 47.7342 41.9616 48.3207C41.5204 49.2138 41.3446 50.2151 41.4553 51.2055L41.3287 51.2847C40.7591 51.5859 40.2053 51.8553 39.6515 52.1248C39.7465 51.927 39.8207 51.7198 39.873 51.5066V51.6176C40.0966 50.6357 40.1608 49.6241 40.0629 48.6218C39.5724 49.2875 38.7496 49.874 38.18 50.6348C38.0642 50.7751 37.9584 50.9234 37.8635 51.0787C37.4818 51.7212 37.2795 52.4549 37.2781 53.2026L37.0882 53.2819L36.1388 53.7098C36.5735 52.8947 36.7186 51.9556 36.5502 51.047L35.68 51.9504L34.8572 52.7271C34.5276 53.0267 34.2589 53.3873 34.0661 53.7891C33.9135 54.1064 33.8274 54.4516 33.8129 54.8035L32.6104 55.4059L31.7243 55.8814L31.1863 56.2142L30.9964 56.341C30.9462 56.3915 30.918 56.4599 30.918 56.5312C30.918 56.6025 30.9462 56.6709 30.9964 56.7215C31.0202 56.7484 31.0494 56.7701 31.0822 56.7849C31.1149 56.7997 31.1504 56.8073 31.1863 56.8073C31.2222 56.8073 31.2577 56.7997 31.2905 56.7849C31.3232 56.7701 31.3524 56.7484 31.3762 56.7215C31.5545 56.529 31.7505 56.3539 31.9616 56.1984C32.5826 55.7459 33.2448 55.3532 33.9395 55.0254L34.1452 54.9303C34.4605 55.0579 34.7671 55.2062 35.0629 55.3742C35.8803 55.8052 36.8311 55.9073 37.7211 55.6595C37.5161 55.5266 37.3298 55.3666 37.1673 55.1839C37.0249 55.0096 36.8983 54.8511 36.8034 54.756C36.3762 54.328 36.1863 53.9318 35.68 53.8684H35.6009L36.9775 53.266H37.1357C37.5312 53.3611 38.18 54.0586 39.0028 54.2646C40.5851 54.6767 41.4237 54.2646 42.3097 54.5341L42.1199 54.2963C41.6397 53.6319 41.0112 53.0891 40.2844 52.7113C40.1198 52.6207 39.9443 52.5514 39.7623 52.5052C39.563 52.4745 39.3602 52.4745 39.161 52.5052H39.0661C39.7781 52.1882 40.5059 51.8395 41.2496 51.4432C41.9266 51.8561 42.6712 52.1459 43.449 52.2991C45.3635 52.4735 46.0439 51.4274 47.5945 51.4908C47.1243 51.0313 46.5563 50.6845 45.9331 50.4763C45.1911 50.1558 44.3796 50.0303 43.5756 50.1118L45.0629 49.129C45.9249 49.6895 46.9309 49.9869 47.9585 49.985C48.9293 49.7887 49.8567 49.4182 50.6958 48.8913C51.1143 48.7312 51.5495 48.6196 51.9933 48.5584C51.8903 48.4528 51.7732 48.3621 51.6452 48.289C51.3344 48.0989 51.0058 47.9396 50.6642 47.8134L50.2528 47.6708C49.4318 47.4544 48.5858 47.3478 47.7369 47.3538H47.642C47.5078 47.3664 47.3752 47.393 47.2464 47.433C47.642 47.116 48.0376 46.7673 48.4173 46.4186C49.862 46.8936 51.429 46.8317 52.8319 46.2442C53.6315 45.6202 54.3634 44.9136 55.0154 44.1361C55.258 43.9321 55.5115 43.7416 55.7749 43.5655C54.864 43.4069 53.9327 43.4069 53.0218 43.5655C52.5773 43.6102 52.1377 43.6951 51.7085 43.8191C51.2843 43.9484 50.8797 44.135 50.5059 44.3739H50.3635L50.4743 44.2471C50.7908 43.8825 51.0914 43.5021 51.392 43.1217C51.6927 42.7096 51.9933 42.2974 52.2781 41.8536C53.5749 41.9651 54.8773 41.7184 56.0439 41.1404C57.4521 39.9991 57.7844 38.3507 58.7021 36.623C58.2908 36.8132 57.8794 36.9717 57.468 37.146C56.2527 37.5278 55.1201 38.1354 54.1294 38.9371C53.9705 39.0848 53.8224 39.2437 53.6863 39.4127C53.8129 39.159 53.9553 38.9054 54.0661 38.6518C54.3831 37.9018 54.6578 37.1344 54.8888 36.3535Z"
			fill="#ED1848" />
		<path
			d="M25.1054 22.9596V32.6396H27.7674V35.4996H18.8574V32.6396H21.5414V22.9596H18.8574V20.0996H27.7674V22.9596H25.1054Z"
			fill="#ED1848" />
		<path
			d="M38.2402 22.9596V32.6396H40.9022V35.4996H31.9922V32.6396H34.6762V22.9596H31.9922V20.0996H40.9022V22.9596H38.2402Z"
			fill="#ED1848" />
	</symbol>

	<symbol id="download" viewBox="0 0 22 22">
		<path fill-rule="evenodd" clip-rule="evenodd"
			d="M14.6932 7.83609C14.7288 7.4234 15.0921 7.11766 15.5048 7.1532C17.4168 7.31784 18.9142 7.90578 19.9079 9.13037C20.8847 10.3343 21.2605 12.0168 21.2605 14.1104V14.2404C21.2605 16.5496 20.8027 18.3614 19.587 19.577C18.3714 20.7926 16.5596 21.2504 14.2505 21.2504H7.74047C5.43129 21.2504 3.61952 20.7926 2.40389 19.577C1.18826 18.3614 0.730469 16.5496 0.730469 14.2404V14.1104C0.730469 12.032 1.10117 10.3596 2.06232 9.15816C3.0408 7.93506 4.5164 7.33934 6.40086 7.16367C6.81328 7.12523 7.17878 7.4284 7.21723 7.84082C7.25568 8.25325 6.95251 8.61875 6.54008 8.6572C4.88454 8.81153 3.86514 9.30581 3.23362 10.0952C2.58476 10.9063 2.23047 12.1689 2.23047 14.1104V14.2404C2.23047 16.4013 2.66768 17.7195 3.46455 18.5164C4.26142 19.3132 5.57964 19.7504 7.74047 19.7504H14.2505C16.4113 19.7504 17.7295 19.3132 18.5264 18.5164C19.3233 17.7195 19.7605 16.4013 19.7605 14.2404V14.1104C19.7605 12.1541 19.4012 10.8866 18.7431 10.0755C18.1017 9.28508 17.0642 8.79303 15.3761 8.64767C14.9634 8.61213 14.6577 8.24878 14.6932 7.83609Z" />
		<path fill-rule="evenodd" clip-rule="evenodd"
			d="M11 0.25C11.4142 0.25 11.75 0.585786 11.75 1V13.88C11.75 14.2942 11.4142 14.63 11 14.63C10.5858 14.63 10.25 14.2942 10.25 13.88V1C10.25 0.585786 10.5858 0.25 11 0.25Z" />
		<path fill-rule="evenodd" clip-rule="evenodd"
			d="M7.12006 11.1201C7.41295 10.8272 7.88783 10.8272 8.18072 11.1201L11.0004 13.9397L13.8201 11.1201C14.113 10.8272 14.5878 10.8272 14.8807 11.1201C15.1736 11.413 15.1736 11.8878 14.8807 12.1807L11.5307 15.5307C11.2378 15.8236 10.763 15.8236 10.4701 15.5307L7.12006 12.1807C6.82717 11.8878 6.82717 11.413 7.12006 11.1201Z" />
	</symbol>

	<symbol id="anglePrev" viewBox="0 0 10 18">
		<path fill-rule="evenodd" clip-rule="evenodd"
			d="M9.70695 0.372971C10.0975 0.763496 10.0975 1.39666 9.70695 1.78718L3.18695 8.30719C2.80747 8.68666 2.80747 9.3135 3.18695 9.69297L9.70695 16.213C10.0975 16.6035 10.0975 17.2367 9.70695 17.6272C9.31643 18.0177 8.68326 18.0177 8.29274 17.6272L1.77274 11.1072C0.612213 9.94666 0.612213 8.0535 1.77274 6.89297L8.29274 0.372971C8.68326 -0.017553 9.31643 -0.017553 9.70695 0.372971Z" />
	</symbol>

	<symbol id="angleNext" viewBox="0 0 10 18">
		<path fill-rule="evenodd" clip-rule="evenodd"
			d="M1.20305 0.372971C1.59357 -0.017553 2.22674 -0.017553 2.61726 0.372971L9.13726 6.89297C10.2978 8.0535 10.2978 9.94666 9.13726 11.1072L2.61726 17.6272C2.22674 18.0177 1.59357 18.0177 1.20305 17.6272C0.812525 17.2367 0.812525 16.6035 1.20305 16.213L7.72305 9.69297C8.10253 9.3135 8.10253 8.68666 7.72305 8.30719L1.20305 1.78718C0.812525 1.39666 0.812525 0.763496 1.20305 0.372971Z" />
	</symbol>

	<symbol id="plus" viewBox="0 0 61 61">
		<path class="st0"
			d="M59,28.5H32.5V2c0-1.1-0.9-2-2-2s-2,0.9-2,2v26.5H2c-1.1,0-2,0.9-2,2s0.9,2,2,2h26.5V59c0,1.1,0.9,2,2,2s2-0.9,2-2V32.5H59c1.1,0,2-0.9,2-2S60.1,28.5,59,28.5z" />
	</symbol>

	<symbol id="minus" viewBox="0 0 61 4">
		<!-- 0 0 61 4 -->
		<path fill-rule="evenodd" clip-rule="evenodd"
			d="M0 2C0 0.89543 0.89543 0 2 0H59C60.1046 0 61 0.89543 61 2C61 3.10457 60.1046 4 59 4H2C0.89543 4 0 3.10457 0 2Z" />
		<path fill-rule="evenodd" clip-rule="evenodd"
			d="M61 2C61 3.10457 60.1046 4 59 4L2 4C0.895428 4 -3.9504e-06 3.10457 -3.90212e-06 2C-3.85384e-06 0.895428 0.895428 -2.62725e-06 2 -2.57897e-06L59 -8.74228e-08C60.1046 -3.91405e-08 61 0.89543 61 2Z" />
	</symbol>

	<symbol id="jobs" viewBox="0 0 22 22">
		<path
			d="M8,2C6.1,2,4.6,3.5,4.6,5.4c0,1.8,1.4,3.3,3.3,3.4c0.1,0,0.2,0,0.4,0c1.8-0.1,3.3-1.6,3.3-3.4C11.4,3.5,9.9,2,8,2z M2.6,5.4C2.6,2.4,5,0,8,0c3,0,5.4,2.4,5.4,5.4v0l0,0c0,2.9-2.3,5.3-5.2,5.4c0,0-0.1,0-0.1,0c0,0-0.1,0-0.1,0c0,0-0.1,0-0.1,0C4.9,10.8,2.6,8.4,2.6,5.4z" />
		<path
			d="M14.4,3c0-0.6,0.4-1,1-1c2.5,0,4.5,2,4.5,4.5c0,2.4-1.9,4.4-4.3,4.5c-0.1,0-0.1,0-0.2,0c0,0,0,0,0,0c0,0,0,0,0,0c-0.5,0.1-1-0.3-1.1-0.9c-0.1-0.5,0.3-1,0.9-1.1c0.1,0,0.3,0,0.4,0c1.3-0.1,2.3-1.2,2.3-2.5c0-1.4-1.1-2.5-2.5-2.5C14.9,4,14.4,3.6,14.4,3z" />
		<path
			d="M13.7,12.7c-1.6-1-3.6-1.5-5.6-1.5c-2,0-4,0.5-5.6,1.5l0,0c-1.4,0.9-2.3,2.3-2.3,3.8c0,1.5,0.8,2.8,2.3,3.8c1.6,1.1,3.6,1.5,5.6,1.5c2,0,4-0.5,5.6-1.5l0,0c1.4-0.9,2.3-2.3,2.3-3.8C16,15,15.1,13.7,13.7,12.7z M12.2,19.2L12.2,19.2c-1.1,0.8-2.6,1.1-4,1.1c-1.4,0-2.9-0.4-4-1.1c-1-0.7-1.6-1.7-1.6-2.7c0-1.1,0.6-2.1,1.6-2.7l0,0c1.1-0.8,2.6-1.1,4-1.1c1.4,0,2.9,0.4,4,1.1c1,0.7,1.6,1.7,1.6,2.7C13.9,17.6,13.2,18.5,12.2,19.2z" />
		<path
			d="M16.4,12.8c0.1-0.5,0.7-0.9,1.2-0.8c0.8,0.2,1.6,0.5,2.3,1c1,0.7,1.6,1.8,1.6,2.9c0,1.1-0.6,2.2-1.6,2.9c-0.7,0.5-1.5,0.9-2.4,1.1c-0.5,0.1-1.1-0.2-1.2-0.8c-0.1-0.5,0.2-1.1,0.8-1.2c0.6-0.1,1.1-0.4,1.6-0.7l0,0c0.6-0.4,0.8-0.9,0.8-1.3c0-0.4-0.2-0.9-0.8-1.3l0,0c-0.4-0.3-0.9-0.5-1.5-0.7C16.6,13.9,16.3,13.3,16.4,12.8z" />
	</symbol>

	<symbol id="analyzers" viewBox="0 0 22 18">
		<path fill-rule="evenodd" clip-rule="evenodd"
			d="M6.5 2C5.89473 2 5.4007 2.02005 4.98142 2.07995C4.97084 2.08146 4.96023 2.0828 4.9496 2.08398C3.76709 2.21437 3.28859 2.52675 3.01892 2.93624C2.68999 3.43573 2.5 4.31988 2.5 6V12C2.5 13.6801 2.68999 14.5643 3.01892 15.0638C3.28859 15.4733 3.76709 15.7856 4.9496 15.916C4.96023 15.9172 4.97084 15.9185 4.98142 15.9201C5.4007 15.9799 5.89473 16 6.5 16H15.5C16.1053 16 16.5993 15.9799 17.0186 15.9201C17.0292 15.9185 17.0398 15.9172 17.0504 15.916C18.2329 15.7856 18.7114 15.4733 18.9811 15.0638C19.31 14.5643 19.5 13.6801 19.5 12V6C19.5 4.31988 19.31 3.43573 18.9811 2.93624C18.7114 2.52675 18.2329 2.21437 17.0504 2.08398C17.0398 2.0828 17.0292 2.08146 17.0186 2.07995C16.5993 2.02005 16.1053 2 15.5 2H6.5ZM4.71462 0.0977768C5.27086 0.0195687 5.87132 0 6.5 0H15.5C16.1287 0 16.7291 0.0195687 17.2854 0.0977768C18.7257 0.258933 19.9113 0.712354 20.6514 1.83626C21.335 2.87427 21.5 4.30012 21.5 6V12C21.5 13.6999 21.335 15.1257 20.6514 16.1637C19.9113 17.2876 18.7258 17.7411 17.2854 17.9022C16.7292 17.9804 16.1287 18 15.5 18H6.5C5.8713 18 5.27082 17.9804 4.71457 17.9022C3.27423 17.7411 2.0887 17.2876 1.34858 16.1637C0.665011 15.1257 0.5 13.6999 0.5 12V6C0.5 4.30012 0.665011 2.87427 1.34858 1.83626C2.08871 0.712354 3.27426 0.258933 4.71462 0.0977768Z" />
		<path fill-rule="evenodd" clip-rule="evenodd"
			d="M11.5 7C11.5 6.44772 11.9477 6 12.5 6H16C16.5523 6 17 6.44772 17 7C17 7.55228 16.5523 8 16 8H12.5C11.9477 8 11.5 7.55228 11.5 7Z" />
		<path fill-rule="evenodd" clip-rule="evenodd"
			d="M5 12.5C5 11.9477 5.44772 11.5 6 11.5H16C16.5523 11.5 17 11.9477 17 12.5C17 13.0523 16.5523 13.5 16 13.5H6C5.44772 13.5 5 13.0523 5 12.5Z" />
		<path fill-rule="evenodd" clip-rule="evenodd"
			d="M8.09375 7C8.09375 6.44772 8.54147 6 9.09375 6H9.10273C9.65502 6 10.1027 6.44772 10.1027 7C10.1027 7.55228 9.65502 8 9.10273 8H9.09375C8.54147 8 8.09375 7.55228 8.09375 7Z" />
		<path fill-rule="evenodd" clip-rule="evenodd"
			d="M5.09375 7C5.09375 6.44772 5.54147 6 6.09375 6H6.10273C6.65502 6 7.10273 6.44772 7.10273 7C7.10273 7.55228 6.65502 8 6.10273 8H6.09375C5.54147 8 5.09375 7.55228 5.09375 7Z" />
	</symbol>

	<symbol id="close" viewBox="0 0 24 24">
		<path d="M13.8,12.4l5.7-5.7c0.4-0.4,0.4-1,0-1.4s-1-0.4-1.4,0L12.4,11L6.7,5.3c-0.4-0.4-1-0.4-1.4,0s-0.4,1,0,1.4l5.7,5.7l-5.7,5.7
			c-0.4,0.4-0.4,1,0,1.4c0.2,0.2,0.5,0.3,0.7,0.3s0.5-0.1,0.7-0.3l5.7-5.7l5.7,5.7c0.2,0.2,0.5,0.3,0.7,0.3s0.5-0.1,0.7-0.3
			c0.4-0.4,0.4-1,0-1.4L13.8,12.4z" />
	</symbol>

	<!-- Задачи start -->
	<symbol id="task-1" viewBox="0 0 49 49">
		<path fill-rule="evenodd" clip-rule="evenodd"
			d="M31.6707 24.2636C32.2565 24.8493 32.2565 25.7991 31.6707 26.3849L23.504 34.5515C23.2227 34.8329 22.8412 34.9909 22.4434 34.9909C22.0455 34.9909 21.664 34.8329 21.3827 34.5515L18.3202 31.489C17.7344 30.9033 17.7344 29.9535 18.3202 29.3677C18.906 28.7819 19.8557 28.7819 20.4415 29.3677L22.4434 31.3696L29.5494 24.2636C30.1352 23.6778 31.0849 23.6778 31.6707 24.2636Z" />
		<path fill-rule="evenodd" clip-rule="evenodd"
			d="M20.6482 3.0003C20.6979 3.00043 20.746 3.00057 20.7923 3.00057H28.959C29.0053 3.00057 29.0534 3.00043 29.1031 3.0003C30.0087 2.99781 31.4448 2.99386 32.5983 3.76291C33.9826 4.68574 34.5423 6.34414 34.5423 8.5839C34.5423 8.63024 34.5424 8.67832 34.5426 8.72799C34.5451 9.63359 34.549 11.0697 33.78 12.2232C32.8571 13.6075 31.1987 14.1672 28.959 14.1672H20.7923C20.746 14.1672 20.6979 14.1674 20.6482 14.1675C19.7426 14.17 18.3065 14.1739 17.153 13.4049C15.7687 12.4821 15.209 10.8237 15.209 8.5839C15.209 6.34414 15.7687 4.68574 17.153 3.76291C18.3065 2.99386 19.7426 2.99781 20.6482 3.0003ZM18.8171 6.25906C18.6701 6.35706 18.209 6.74033 18.209 8.5839C18.209 10.4275 18.6701 10.8107 18.8171 10.9087C19.1315 11.1183 19.642 11.1672 20.7923 11.1672H28.959C30.8026 11.1672 31.1858 10.7061 31.2838 10.5591C31.4934 10.2447 31.5423 9.73426 31.5423 8.5839C31.5423 6.74033 31.0812 6.35706 30.9342 6.25906C30.6198 6.04945 30.1093 6.00057 28.959 6.00057H20.7923C19.642 6.00057 19.1315 6.04945 18.8171 6.25906Z" />
		<path fill-rule="evenodd" clip-rule="evenodd"
			d="M18.2061 8.54212C18.2509 9.36934 17.6165 10.0762 16.7893 10.1209C13.5076 10.2983 11.4535 10.988 10.1564 12.3921C8.84259 13.8143 8 16.2988 8 20.8323V33.0823C8 37.1391 8.53306 39.6904 9.92574 41.282C11.2751 42.8241 13.7752 43.8323 18.75 43.8323H31C35.9748 43.8323 38.4749 42.8241 39.8243 41.282C41.2169 39.6904 41.75 37.1391 41.75 33.0823V20.8323C41.75 16.2876 40.907 13.8042 39.5943 12.3852C38.298 10.984 36.2448 10.2984 32.9607 10.1209C32.1335 10.0762 31.4991 9.36934 31.5439 8.54212C31.5886 7.7149 32.2954 7.08056 33.1226 7.12527C36.6373 7.31525 39.6882 8.06906 41.7965 10.348C43.8882 12.609 44.75 16.0465 44.75 20.8323V33.0823C44.75 37.1921 44.2622 40.7658 42.082 43.2575C39.8584 45.7988 36.2335 46.8323 31 46.8323H18.75C13.5165 46.8323 9.8916 45.7988 7.66801 43.2575C5.48778 40.7658 5 37.1921 5 33.0823V20.8323C5 16.0557 5.8622 12.6194 7.95284 10.3564C10.0602 8.07522 13.1103 7.31539 16.6274 7.12527C17.4546 7.08056 18.1614 7.7149 18.2061 8.54212Z" />
	</symbol>

	<symbol id="task-2" viewBox="0 0 49 49">
		<path fill-rule="evenodd" clip-rule="evenodd"
			d="M14.4648 31.7461C15.2933 31.7461 15.9648 32.4177 15.9648 33.2461V37.4723C15.9648 38.3008 15.2933 38.9723 14.4648 38.9723C13.6364 38.9723 12.9648 38.3008 12.9648 37.4723V33.2461C12.9648 32.4177 13.6364 31.7461 14.4648 31.7461Z" />
		<path fill-rule="evenodd" clip-rule="evenodd"
			d="M24.916 27.5195C25.7444 27.5195 26.416 28.1911 26.416 29.0195V37.472C26.416 38.3005 25.7444 38.972 24.916 38.972C24.0876 38.972 23.416 38.3005 23.416 37.472V29.0195C23.416 28.1911 24.0876 27.5195 24.916 27.5195Z" />
		<path fill-rule="evenodd" clip-rule="evenodd"
			d="M35.3672 23.2734C36.1956 23.2734 36.8672 23.945 36.8672 24.7734V37.4726C36.8672 38.301 36.1956 38.9726 35.3672 38.9726C34.5388 38.9726 33.8672 38.301 33.8672 37.4726V24.7734C33.8672 23.945 34.5388 23.2734 35.3672 23.2734Z" />
		<path fill-rule="evenodd" clip-rule="evenodd"
			d="M36.3446 11.2175C36.9752 11.7547 37.0509 12.7015 36.5137 13.3321L35.5724 14.4371C30.1627 20.7591 22.9083 25.2343 14.8281 27.249C14.0243 27.4494 13.2102 26.9603 13.0098 26.1565C12.8093 25.3527 13.2985 24.5386 14.1023 24.3381C21.5792 22.4738 28.2894 18.3336 33.2921 12.4877C33.2924 12.4874 33.2927 12.487 33.293 12.4867L34.23 11.3867C34.7672 10.7561 35.7139 10.6803 36.3446 11.2175Z" />
		<path fill-rule="evenodd" clip-rule="evenodd"
			d="M27.8867 12.3594C27.8867 11.5309 28.5583 10.8594 29.3867 10.8594H35.3688C36.1972 10.8594 36.8688 11.5309 36.8688 12.3594V18.321C36.8688 19.1495 36.1972 19.821 35.3688 19.821C34.5404 19.821 33.8688 19.1495 33.8688 18.321V13.8594H29.3867C28.5583 13.8594 27.8867 13.1878 27.8867 12.3594Z" />
		<path fill-rule="evenodd" clip-rule="evenodd"
			d="M6.75705 6.75705C9.47286 4.04124 13.5396 3 18.7917 3H31.0417C36.2938 3 40.3605 4.04124 43.0763 6.75705C45.7921 9.47286 46.8333 13.5396 46.8333 18.7917V31.0417C46.8333 36.2938 45.7921 40.3605 43.0763 43.0763C40.3605 45.7921 36.2938 46.8333 31.0417 46.8333H18.7917C13.5396 46.8333 9.47286 45.7921 6.75705 43.0763C4.04124 40.3605 3 36.2938 3 31.0417V18.7917C3 13.5396 4.04124 9.47286 6.75705 6.75705ZM8.87837 8.87837C7.00043 10.7563 6 13.8354 6 18.7917V31.0417C6 35.9979 7.00043 39.077 8.87837 40.955C10.7563 42.8329 13.8354 43.8333 18.7917 43.8333H31.0417C35.9979 43.8333 39.077 42.8329 40.955 40.955C42.8329 39.077 43.8333 35.9979 43.8333 31.0417V18.7917C43.8333 13.8354 42.8329 10.7563 40.955 8.87837C39.077 7.00043 35.9979 6 31.0417 6H18.7917C13.8354 6 10.7563 7.00043 8.87837 8.87837Z" />
	</symbol>

	<symbol id="task-3" viewBox="0 0 49 49">
		<path fill-rule="evenodd" clip-rule="evenodd"
			d="M7.37519 7.37519C6.49167 8.25871 6 9.93118 6 13.565V26.5092C6 30.1437 6.49195 31.8148 7.3742 32.6954C8.256 33.5756 9.92674 34.064 13.5608 34.0538L13.565 34.0537L36.2683 34.0537C39.905 34.0537 41.5764 33.5663 42.4591 32.6852C43.3412 31.8049 43.8333 30.1342 43.8333 26.4888V13.565C43.8333 9.93104 43.3416 8.25951 42.4566 7.37619C41.5706 6.49185 39.8927 6 36.2479 6H13.565C9.93118 6 8.25871 6.49167 7.37519 7.37519ZM5.25387 5.25387C7.09087 3.41687 9.9509 3 13.565 3H36.2479C39.8715 3 42.7363 3.4167 44.5759 5.25288C46.4166 7.09008 46.8333 9.95104 46.8333 13.565V26.4888C46.8333 30.1116 46.417 32.9735 44.5785 34.8085C42.7407 36.6428 39.8796 37.0537 36.2683 37.0537L13.5692 37.0537C13.5688 37.0537 13.5683 37.0537 13.5679 37.0537C9.95462 37.0638 7.09336 36.6538 5.25487 34.8187C3.41659 32.9839 3 30.1225 3 26.5092V13.565C3 9.9509 3.41687 7.09087 5.25387 5.25387Z" />
		<path fill-rule="evenodd" clip-rule="evenodd"
			d="M24.916 34.0762C25.7444 34.0762 26.416 34.7477 26.416 35.5762V45.3353C26.416 46.1638 25.7444 46.8353 24.916 46.8353C24.0876 46.8353 23.416 46.1638 23.416 45.3353V35.5762C23.416 34.7477 24.0876 34.0762 24.916 34.0762Z" />
		<path fill-rule="evenodd" clip-rule="evenodd"
			d="M3 26.959C3 26.1306 3.67157 25.459 4.5 25.459H45.3333C46.1618 25.459 46.8333 26.1306 46.8333 26.959C46.8333 27.7874 46.1618 28.459 45.3333 28.459H4.5C3.67157 28.459 3 27.7874 3 26.959Z" />
		<path fill-rule="evenodd" clip-rule="evenodd"
			d="M14.2285 45.334C14.2285 44.5056 14.9001 43.834 15.7285 43.834H34.1035C34.9319 43.834 35.6035 44.5056 35.6035 45.334C35.6035 46.1624 34.9319 46.834 34.1035 46.834H15.7285C14.9001 46.834 14.2285 46.1624 14.2285 45.334Z" />
	</symbol>

	<symbol id="task-4" viewBox="0 0 49 49">
		<path fill-rule="evenodd" clip-rule="evenodd"
			d="M22.875 6C13.5563 6 6 13.5563 6 22.875C6 32.1937 13.5563 39.75 22.875 39.75C32.1937 39.75 39.75 32.1937 39.75 22.875C39.75 22.0466 40.4216 21.375 41.25 21.375C42.0784 21.375 42.75 22.0466 42.75 22.875C42.75 33.8505 33.8505 42.75 22.875 42.75C11.8995 42.75 3 33.8505 3 22.875C3 11.8995 11.8995 3 22.875 3C23.7034 3 24.375 3.67157 24.375 4.5C24.375 5.32843 23.7034 6 22.875 6Z" />
		<path fill-rule="evenodd" clip-rule="evenodd"
			d="M41.9713 37.1349C40.4086 37.123 39.0053 37.7393 38.1497 38.9271C37.2949 40.1139 37.151 41.6429 37.6414 43.1274L37.6418 43.1287C38.2567 44.9851 39.4545 46.5627 41.2858 46.8081C43.1169 47.0535 44.6868 45.8472 45.7664 44.222L45.7665 44.2218C46.7915 42.6782 47.2217 40.8727 46.3931 39.3254C45.565 37.7789 43.8257 37.1364 41.9713 37.1349ZM40.584 40.6805C40.3874 40.9534 40.2454 41.4455 40.4898 42.186C40.9569 43.5957 41.5353 43.8147 41.6843 43.8347C41.8336 43.8547 42.4483 43.7952 43.2674 42.5622M40.584 40.6805C40.7786 40.4102 41.1896 40.1282 41.9517 40.1349ZM43.7484 40.7416C43.6536 40.5646 43.2522 40.1349 41.9649 40.1349H41.9517L41.9517 40.1349M43.7484 40.7416C43.8437 40.9195 43.9777 41.4924 43.2675 42.562Z" />
		<path fill-rule="evenodd" clip-rule="evenodd"
			d="M27.5 10.625C27.5 9.79657 28.1716 9.125 29 9.125H41.25C42.0784 9.125 42.75 9.79657 42.75 10.625C42.75 11.4534 42.0784 12.125 41.25 12.125H29C28.1716 12.125 27.5 11.4534 27.5 10.625Z" />
		<path fill-rule="evenodd" clip-rule="evenodd"
			d="M27.5 16.75C27.5 15.9216 28.1716 15.25 29 15.25H35.125C35.9534 15.25 36.625 15.9216 36.625 16.75C36.625 17.5784 35.9534 18.25 35.125 18.25H29C28.1716 18.25 27.5 17.5784 27.5 16.75Z" />
	</symbol>

	<symbol id="task-5" viewBox="0 0 49 49">
		<path fill-rule="evenodd" clip-rule="evenodd"
			d="M21.334 40.166C21.334 39.3376 22.0056 38.666 22.834 38.666H43.2506C44.0791 38.666 44.7506 39.3376 44.7506 40.166C44.7506 40.9944 44.0791 41.666 43.2506 41.666H22.834C22.0056 41.666 21.334 40.9944 21.334 40.166Z" />
		<path fill-rule="evenodd" clip-rule="evenodd"
			d="M21.334 25.875C21.334 25.0466 22.0056 24.375 22.834 24.375H43.2506C44.0791 24.375 44.7506 25.0466 44.7506 25.875C44.7506 26.7034 44.0791 27.375 43.2506 27.375H22.834C22.0056 27.375 21.334 26.7034 21.334 25.875Z" />
		<path fill-rule="evenodd" clip-rule="evenodd"
			d="M21.334 11.584C21.334 10.7556 22.0056 10.084 22.834 10.084H43.2506C44.0791 10.084 44.7506 10.7556 44.7506 11.584C44.7506 12.4124 44.0791 13.084 43.2506 13.084H22.834C22.0056 13.084 21.334 12.4124 21.334 11.584Z" />
		<path fill-rule="evenodd" clip-rule="evenodd"
			d="M15.7273 6.43934C16.3131 7.02513 16.3131 7.97487 15.7273 8.56066L9.60233 14.6857C9.01654 15.2714 8.06679 15.2714 7.48101 14.6857L5.43934 12.644C4.85355 12.0582 4.85355 11.1085 5.43934 10.5227C6.02513 9.93689 6.97487 9.93689 7.56066 10.5227L8.54167 11.5037L13.606 6.43934C14.1918 5.85355 15.1415 5.85355 15.7273 6.43934Z" />
		<path fill-rule="evenodd" clip-rule="evenodd"
			d="M15.7273 20.7304C16.3131 21.3161 16.3131 22.2659 15.7273 22.8517L9.60233 28.9767C9.01654 29.5625 8.06679 29.5625 7.48101 28.9767L5.43934 26.935C4.85355 26.3492 4.85355 25.3995 5.43934 24.8137C6.02513 24.2279 6.97487 24.2279 7.56066 24.8137L8.54167 25.7947L13.606 20.7304C14.1918 20.1446 15.1415 20.1446 15.7273 20.7304Z" />
		<path fill-rule="evenodd" clip-rule="evenodd"
			d="M15.7273 35.0233C16.3131 35.6091 16.3131 36.5589 15.7273 37.1446L9.60233 43.2696C9.01654 43.8554 8.06679 43.8554 7.48101 43.2696L5.43934 41.228C4.85355 40.6422 4.85355 39.6924 5.43934 39.1067C6.02513 38.5209 6.97487 38.5209 7.56066 39.1067L8.54167 40.0877L13.606 35.0233C14.1918 34.4375 15.1415 34.4375 15.7273 35.0233Z" />
	</symbol>

	<symbol id="task-6" viewBox="0 0 49 49">
		<path fill-rule="evenodd" clip-rule="evenodd"
			d="M16.7706 6C14.9285 6 13.4318 7.50889 13.4318 9.33875C13.4318 10.2619 13.7997 11.1002 14.4094 11.696L14.4216 11.7081C15.0215 12.3079 15.8662 12.6775 16.791 12.6775H17.4035C17.9103 12.6775 18.3829 12.9335 18.6598 13.358C18.9368 13.7825 18.9805 14.3182 18.7762 14.7821L10.0986 34.4855C8.78422 37.4621 8.72163 39.7697 9.53384 41.2389C10.3004 42.6255 12.1808 43.8333 16.1989 43.8333H31.8585C35.8312 43.8333 37.7201 42.6327 38.4996 41.2415C39.3222 39.7735 39.2789 37.4712 37.9776 34.5022L29.361 14.778C29.1584 14.3142 29.2033 13.7796 29.4804 13.3561C29.7575 12.9327 30.2295 12.6775 30.7356 12.6775H31.0622C32.7346 12.6775 34.182 11.6099 34.5464 10.165C34.8424 8.92957 34.4515 7.78519 33.6562 6.98983C33.0423 6.37595 32.2127 6 31.2868 6H16.7706ZM10.4318 9.33875C10.4318 5.86028 13.2634 3 16.7706 3H31.2868C33.0559 3 34.6355 3.72655 35.7775 4.86851C37.2675 6.35853 38.0199 8.56008 37.4612 10.8749L37.4583 10.8867C36.8804 13.1983 35.0498 14.8196 32.9153 15.4203L40.7252 33.2978C40.7254 33.2981 40.7255 33.2985 40.7256 33.2988C42.1802 36.6178 42.6165 40.0317 41.1168 42.708C39.5739 45.4614 36.3383 46.8333 31.8585 46.8333H16.1989C11.6828 46.8333 8.43863 45.4584 6.90833 42.6903C5.42377 40.0049 5.89183 36.5859 7.35388 33.2744C7.35399 33.2742 7.35376 33.2747 7.35388 33.2744L15.1927 15.4758C14.091 15.1923 13.0947 14.6216 12.3064 13.8355C11.1232 12.6759 10.4318 11.0668 10.4318 9.33875Z" />
	</symbol>

	<symbol id="task-7" viewBox="0 0 49 49">
		<path fill-rule="evenodd" clip-rule="evenodd"
			d="M29.5126 7.05363C28.898 7.66829 28.459 8.78232 28.459 10.9312V18.4854C28.459 20.6343 28.898 21.7484 29.5126 22.363C30.1273 22.9777 31.2413 23.4167 33.3902 23.4167H38.9027C41.0517 23.4167 42.1657 22.9777 42.7804 22.363C43.395 21.7484 43.834 20.6343 43.834 18.4854V10.9312C43.834 8.78232 43.395 7.66829 42.7804 7.05363C42.1657 6.43897 41.0517 6 38.9027 6H33.3902C31.2413 6 30.1273 6.43897 29.5126 7.05363ZM27.3913 4.93231C28.8438 3.47978 30.9454 3 33.3902 3H38.9027C41.3476 3 43.4491 3.47978 44.9017 4.93231C46.3542 6.38484 46.834 8.48643 46.834 10.9312V18.4854C46.834 20.9302 46.3542 23.0318 44.9017 24.4844C43.4491 25.9369 41.3476 26.4167 38.9027 26.4167H33.3902C30.9454 26.4167 28.8438 25.9369 27.3913 24.4844C25.9388 23.0318 25.459 20.9302 25.459 18.4854V10.9312C25.459 8.48643 25.9388 6.38484 27.3913 4.93231Z" />
		<path fill-rule="evenodd" clip-rule="evenodd"
			d="M7.05363 27.4706C6.43897 28.0853 6 29.1993 6 31.3482V38.9024C6 41.0513 6.43897 42.1654 7.05363 42.78C7.66829 43.3947 8.78232 43.8337 10.9313 43.8337H16.4438C18.5927 43.8337 19.7067 43.3947 20.3214 42.78C20.936 42.1654 21.375 41.0513 21.375 38.9024V31.3482C21.375 29.1993 20.936 28.0853 20.3214 27.4706C19.7067 26.856 18.5927 26.417 16.4438 26.417H10.9313C8.78232 26.417 7.66829 26.856 7.05363 27.4706ZM4.93231 25.3493C6.38484 23.8968 8.48643 23.417 10.9313 23.417H16.4438C18.8886 23.417 20.9902 23.8968 22.4427 25.3493C23.8952 26.8018 24.375 28.9034 24.375 31.3482V38.9024C24.375 41.3472 23.8952 43.4488 22.4427 44.9014C20.9902 46.3539 18.8886 46.8337 16.4438 46.8337H10.9313C8.48643 46.8337 6.38484 46.3539 4.93231 44.9014C3.47978 43.4488 3 41.3472 3 38.9024V31.3482C3 28.9034 3.47978 26.8018 4.93231 25.3493Z" />
		<path fill-rule="evenodd" clip-rule="evenodd"
			d="M45.3327 29.542C46.1611 29.542 46.8327 30.2136 46.8327 31.042C46.8327 39.7717 39.7707 46.8337 31.041 46.8337C30.5006 46.8337 30.002 46.543 29.7357 46.0727C29.4695 45.6024 29.4767 45.0253 29.7548 44.5619L31.8985 40.989C32.3247 40.2786 33.2461 40.0483 33.9565 40.4745C34.6669 40.9007 34.8972 41.8221 34.471 42.5325L33.8793 43.5186C39.5828 42.2301 43.8327 37.1391 43.8327 31.042C43.8327 30.2136 44.5043 29.542 45.3327 29.542Z" />
		<path fill-rule="evenodd" clip-rule="evenodd"
			d="M15.9534 6.31503C10.2499 7.60358 6 12.6945 6 18.7917C6 19.6201 5.32843 20.2917 4.5 20.2917C3.67157 20.2917 3 19.6201 3 18.7917C3 10.062 10.062 3 18.7917 3C19.3321 3 19.8307 3.29069 20.097 3.76095C20.3632 4.23121 20.3559 4.80835 20.0779 5.27174L17.9342 8.84466C17.5079 9.55503 16.5865 9.78538 15.8762 9.35916C15.1658 8.93293 14.9355 8.01154 15.3617 7.30117L15.9534 6.31503Z" />
	</symbol>
	<!-- Задачи end -->

	<!-- 	<symbol id="" viewBox="">

  </symbol> -->

</svg>
