<?xml version="1.0" encoding="UTF-8" standalone="no"?>
<svg
		xmlns:dc="http://purl.org/dc/elements/1.1/"
		xmlns:cc="http://creativecommons.org/ns#"
		xmlns:rdf="http://www.w3.org/1999/02/22-rdf-syntax-ns#"
		xmlns:sodipodi="http://sodipodi.sourceforge.net/DTD/sodipodi-0.dtd"
		xmlns:inkscape="http://www.inkscape.org/namespaces/inkscape"
		xmlns="http://www.w3.org/2000/svg"
		version="1.0"
		width="1599.9172pt"
		height="1827.0409pt"
		viewBox="0 0 1599.9172 1827.0409"
		preserveAspectRatio="xMidYMid meet"
		id="svg1572"
		sodipodi:docname="logo_full.svg"
		inkscape:version="0.92.4 (5da689c313, 2019-01-14)">
	<metadata
			id="metadata1578">
		<rdf:RDF>
			<cc:Work
					rdf:about="">
				<dc:format>image/svg+xml</dc:format>
				<dc:type
						rdf:resource="http://purl.org/dc/dcmitype/StillImage"/>
				<dc:title></dc:title>
			</cc:Work>
		</rdf:RDF>
	</metadata>
	<defs
			id="defs1576"/>
	<sodipodi:namedview
			pagecolor="#ffffff"
			bordercolor="#666666"
			borderopacity="1"
			objecttolerance="10"
			gridtolerance="10"
			guidetolerance="10"
			inkscape:pageopacity="0"
			inkscape:pageshadow="2"
			inkscape:window-width="1920"
			inkscape:window-height="1017"
			id="namedview1574"
			showgrid="false"
			inkscape:zoom="0.17629482"
			inkscape:cx="158.41977"
			inkscape:cy="801.7902"
			inkscape:window-x="-8"
			inkscape:window-y="-8"
			inkscape:window-maximized="1"
			inkscape:current-layer="g1570"
			fit-margin-top="0"
			fit-margin-left="0"
			fit-margin-right="0"
			fit-margin-bottom="0"/>
	<g
			transform="matrix(0.1,0,0,-0.1,-0.24530654,1596.8849)"
			id="g1570"
			style="fill:#000000;stroke:none">
		<path
				d="m 7568.5679,15552.811 c -251.8379,-242.841 -444.4789,-421.535 -462.539,-428.867 -17.0567,-7.331 -744.4769,-251.089 -1615.3745,-541.582 -871.9009,-290.494 -2115.037,-704.699 -2763.1935,-920.965 l -1178.9224,-393.128 -241.8045,220.848 -241.8045,220.848 -279.93136,-260.252 C 631.48739,13306.757 395.7029,13089.574 262.25892,12965.862 L 18.447724,12740.432 V 8491.1651 4241.898 H 1066.9361 2115.4246 v 3530.823 c 0,2367.933 3.01,3555.565 10.0334,3605.967 64.2136,461.856 466.5523,830.242 973.2381,890.723 121.4039,13.747 671.2332,10.998 782.6038,-4.582 478.5923,-65.979 854.8441,-402.292 938.1212,-837.573 13.0434,-66.896 15.0501,-545.248 15.0501,-3630.709 V 4241.898 l 916.0478,1.8327 915.0445,2.7492 5.0166,3592.2207 c 4.0134,2842.6194 8.0268,3600.4684 18.0601,3633.4574 64.2137,208.935 146.4874,348.226 286.9548,483.851 178.5942,172.28 417.3887,284.078 670.2299,313.402 107.3572,11.914 611.033,11.914 718.3902,0 442.4721,-51.317 813.7073,-342.726 942.1346,-743.185 l 28.0934,-86.141 5.0167,-3596.8025 5.0167,-3596.8026 915.0445,-2.7492 916.048,-1.8327 2.007,3584.8896 3.01,3585.8064 27.09,88.888 c 106.354,351.891 373.242,613.061 742.47,725.776 135.451,42.153 242.808,51.318 584.946,51.318 417.389,0 518.726,-14.663 722.404,-104.468 279.931,-122.796 482.606,-333.564 581.936,-602.98 58.194,-161.283 55.184,65.979 55.184,-3790.1595 V 4241.898 l 1051.498,1.8327 1050.495,2.7492 3.01,4242.8525 2.007,4241.9366 -193.644,179.611 c -106.354,98.052 -344.145,318.901 -527.756,490.264 l -335.115,310.654 -239.798,-221.764 -239.798,-222.681 -1557.181,519.588 c -4279.2376,1425.892 -4023.3864,1339.753 -4056.4965,1371.826 -17.0568,15.578 -213.7111,204.353 -436.4522,418.787 -221.7377,214.433 -406.352,390.379 -409.362,391.295 -3.01,0 -199.6643,-186.942 -437.4554,-416.038 z"
				id="path1476"
				inkscape:connector-curvature="0"
				style="fill:#cf2f15;fill-opacity:1;stroke-width:0.95887536"/>
		<g
				id="g2171"
				transform="matrix(0.97520714,0,0,0.97520714,-54.698876,-2750.5921)"
				style="fill:#cf2f15;fill-opacity:1">
			<path
					inkscape:connector-curvature="0"
					id="path1478"
					d="m 10203,6543 -53,-4 v -195 c 0,-212 6,-244 54,-282 38,-29 115,-43 197,-36 l 69,7 v 68 69 l -71,-3 c -100,-3 -99,-4 -99,210 v 173 l -22,-2 c -13,-1 -47,-3 -75,-5 z"
					style="fill:#cf2f15;fill-opacity:1"/>
			<path
					inkscape:connector-curvature="0"
					id="path1480"
					d="m 60,6470 v -70 h 249 c 138,0 251,3 253,8 2,4 2,35 0,70 l -4,62 H 309 60 Z"
					style="fill:#cf2f15;fill-opacity:1"/>
			<path
					inkscape:connector-curvature="0"
					id="path1482"
					d="m 1017,6533 c -4,-3 -7,-181 -7,-395 v -388 h 80 80 v 395 395 h -73 c -41,0 -77,-3 -80,-7 z"
					style="fill:#cf2f15;fill-opacity:1"/>
			<path
					inkscape:connector-curvature="0"
					id="path1484"
					d="m 1202,6474 3,-69 70,-3 c 38,-2 75,-8 82,-14 8,-7 13,-35 13,-78 0,-86 -12,-98 -100,-102 l -65,-3 v -60 -60 l 71,-5 c 39,-3 78,-11 88,-19 22,-19 23,-143 1,-161 -9,-7 -49,-15 -90,-18 l -75,-5 v -64 -65 l 113,4 c 187,6 217,36 217,214 0,97 -3,115 -20,137 -11,14 -29,28 -39,32 -16,5 -15,9 15,39 l 34,34 v 109 c 0,178 -36,215 -218,221 l -103,4 z"
					style="fill:#cf2f15;fill-opacity:1"/>
			<path
					inkscape:connector-curvature="0"
					id="path1486"
					d="m 2083,6529 c -34,-10 -80,-57 -88,-92 -3,-12 -5,-153 -3,-314 l 3,-291 25,-27 c 35,-38 80,-55 145,-55 h 55 v 64 64 l -34,6 c -19,4 -37,14 -40,22 -9,23 -7,467 2,481 4,6 21,13 37,15 30,3 30,4 33,71 l 3,67 -53,-1 c -29,0 -67,-5 -85,-10 z"
					style="fill:#cf2f15;fill-opacity:1"/>
			<path
					inkscape:connector-curvature="0"
					id="path1488"
					d="m 2262,6473 c 3,-67 3,-68 33,-71 53,-6 55,-16 55,-259 0,-210 -1,-224 -20,-243 -11,-11 -31,-20 -45,-20 -24,0 -25,-2 -25,-66 v -67 l 74,5 c 88,6 126,28 150,88 13,34 16,85 16,308 0,243 -2,271 -20,310 -25,54 -79,81 -163,82 h -58 z"
					style="fill:#cf2f15;fill-opacity:1"/>
			<path
					inkscape:connector-curvature="0"
					id="path1490"
					d="m 2950,6145 v -395 h 75 75 v 395 395 h -75 -75 z"
					style="fill:#cf2f15;fill-opacity:1"/>
			<path
					inkscape:connector-curvature="0"
					id="path1492"
					d="m 3145,6527 c -4,-8 -5,-39 -3,-68 l 3,-54 70,-3 c 38,-2 75,-8 82,-14 20,-16 18,-172 -2,-188 -8,-7 -47,-15 -85,-18 l -70,-5 v -65 -64 l 98,4 c 113,4 164,24 199,77 21,31 23,46 23,165 0,153 -12,187 -76,220 -52,27 -230,37 -239,13 z"
					style="fill:#cf2f15;fill-opacity:1"/>
			<path
					inkscape:connector-curvature="0"
					id="path1494"
					d="m 3914,6525 c -4,-8 -4,-97 -2,-198 4,-206 12,-233 80,-268 42,-21 158,-35 212,-25 l 36,7 v 64 65 h -66 c -108,0 -104,-7 -104,195 v 175 h -75 c -58,0 -77,-3 -81,-15 z"
					style="fill:#cf2f15;fill-opacity:1"/>
			<path
					inkscape:connector-curvature="0"
					id="path1496"
					d="m 4275,6527 c -3,-6 -4,-183 -3,-392 l 3,-380 h 75 75 l 3,393 2,392 h -75 c -51,0 -77,-4 -80,-13 z"
					style="fill:#cf2f15;fill-opacity:1"/>
			<path
					inkscape:connector-curvature="0"
					id="path1498"
					d="m 4880,6145 v -395 h 75 75 v 395 395 h -75 -75 z"
					style="fill:#cf2f15;fill-opacity:1"/>
			<path
					inkscape:connector-curvature="0"
					id="path1500"
					d="m 5080,6470 v -70 h 124 c 77,0 127,4 131,11 4,5 4,37 0,70 l -7,59 h -124 -124 z"
					style="fill:#cf2f15;fill-opacity:1"/>
			<path
					inkscape:connector-curvature="0"
					id="path1502"
					d="m 5897,6526 c -45,-16 -74,-40 -93,-78 -20,-39 -20,-567 0,-606 31,-59 92,-92 172,-92 h 44 v 64 c 0,64 0,64 -34,76 -19,6 -37,18 -40,26 -9,24 -7,447 3,462 4,7 21,16 37,21 28,7 29,10 32,74 l 3,67 h -43 c -24,-1 -60,-7 -81,-14 z"
					style="fill:#cf2f15;fill-opacity:1"/>
			<path
					inkscape:connector-curvature="0"
					id="path1504"
					d="m 6062,6473 3,-68 83,-3 c 92,-3 87,-7 96,81 l 6,57 h -95 -96 z"
					style="fill:#cf2f15;fill-opacity:1"/>
			<path
					inkscape:connector-curvature="0"
					id="path1506"
					d="m 6700,6145 v -396 l 78,3 77,3 3,386 2,386 -31,7 c -17,3 -53,6 -80,6 h -49 z"
					style="fill:#cf2f15;fill-opacity:1"/>
			<path
					inkscape:connector-curvature="0"
					id="path1508"
					d="m 6973,6397 -83,-141 v -112 -111 l 85,-144 85,-144 83,4 c 45,1 84,5 86,7 2,2 -49,88 -113,192 -64,104 -116,193 -116,197 0,4 49,87 110,185 60,98 113,185 116,194 5,14 -5,16 -82,16 l -89,-1 z"
					style="fill:#cf2f15;fill-opacity:1"/>
			<path
					inkscape:connector-curvature="0"
					id="path1510"
					d="m 7805,6518 c -3,-13 -41,-180 -85,-373 -44,-192 -82,-360 -85,-373 -6,-23 -4,-23 72,-20 l 78,3 86,365 c 47,201 88,377 92,393 l 7,27 h -80 c -74,0 -80,-1 -85,-22 z"
					style="fill:#cf2f15;fill-opacity:1"/>
			<path
					inkscape:connector-curvature="0"
					id="path1512"
					d="m 7975,6410 -28,-131 23,-107 c 12,-59 25,-112 27,-119 3,-8 -13,-13 -53,-15 l -58,-3 -13,-50 c -7,-27 -13,-53 -13,-57 0,-5 36,-8 80,-8 h 79 l 15,-51 c 9,-28 18,-66 22,-85 l 6,-34 h 79 79 l -6,28 c -3,15 -42,191 -87,392 -74,330 -84,365 -103,368 -18,3 -23,-9 -49,-128 z"
					style="fill:#cf2f15;fill-opacity:1"/>
			<path
					inkscape:connector-curvature="0"
					id="path1514"
					d="m 8761,6528 c -94,-27 -111,-63 -111,-240 0,-150 11,-181 74,-219 l 34,-20 -69,-144 c -38,-79 -69,-147 -69,-150 0,-3 37,-5 81,-3 l 82,3 60,148 c 57,141 61,147 88,147 29,0 29,1 29,59 v 59 l -64,4 c -90,5 -96,13 -96,117 0,54 5,92 12,99 7,7 40,12 80,12 h 68 v 70 70 l -82,-1 c -46,0 -98,-5 -117,-11 z"
					style="fill:#cf2f15;fill-opacity:1"/>
			<path
					inkscape:connector-curvature="0"
					id="path1516"
					d="m 9010,6145 v -395 h 75 75 v 395 395 h -75 -75 z"
					style="fill:#cf2f15;fill-opacity:1"/>
			<path
					inkscape:connector-curvature="0"
					id="path1518"
					d="m 10517,6533 c -4,-3 -7,-147 -7,-319 v -313 l -22,-13 c -16,-8 -65,-11 -151,-9 l -128,2 3,-63 3,-63 55,-8 c 30,-4 101,-3 157,2 126,12 176,35 210,100 23,44 23,49 23,368 v 323 h -68 c -38,0 -72,-3 -75,-7 z"
					style="fill:#cf2f15;fill-opacity:1"/>
			<path
					inkscape:connector-curvature="0"
					id="path1520"
					d="m 11215,6522 c -61,-21 -91,-62 -100,-135 -4,-29 -5,-158 -3,-287 3,-215 5,-238 23,-270 28,-47 73,-71 146,-77 l 60,-6 -3,69 c -3,60 -6,69 -23,72 -44,9 -45,14 -45,256 0,245 2,256 47,256 22,0 23,4 23,70 v 70 h -37 c -21,-1 -60,-9 -88,-18 z"
					style="fill:#cf2f15;fill-opacity:1"/>
			<path
					inkscape:connector-curvature="0"
					id="path1522"
					d="m 11392,6473 3,-68 h 85 85 l 3,68 3,67 h -91 -91 z"
					style="fill:#cf2f15;fill-opacity:1"/>
			<path
					inkscape:connector-curvature="0"
					id="path1524"
					d="m 12146,6523 c -6,-21 -176,-763 -176,-770 0,-2 35,-3 77,-1 l 77,3 68,290 c 37,160 78,336 92,393 l 24,102 h -79 c -65,0 -78,-3 -83,-17 z"
					style="fill:#cf2f15;fill-opacity:1"/>
			<path
					inkscape:connector-curvature="0"
					id="path1526"
					d="m 12332,6493 c -6,-26 -18,-87 -28,-134 l -18,-86 25,-114 25,-114 -57,-3 -57,-3 -7,-37 c -3,-20 -9,-47 -12,-59 -5,-22 -3,-23 76,-23 h 80 l 10,-37 c 6,-21 16,-59 23,-85 l 12,-48 h 78 78 l -6,26 c -4,14 -43,191 -88,393 -75,336 -83,366 -103,369 -18,3 -23,-4 -31,-45 z"
					style="fill:#cf2f15;fill-opacity:1"/>
			<path
					inkscape:connector-curvature="0"
					id="path1528"
					d="m 13067,6253 c -37,-159 -70,-298 -73,-310 -6,-22 -4,-23 72,-23 h 79 l 69,293 c 38,160 72,300 74,310 4,15 -4,17 -75,17 h -79 z"
					style="fill:#cf2f15;fill-opacity:1"/>
			<path
					inkscape:connector-curvature="0"
					id="path1530"
					d="m 13325,6528 c -2,-7 -15,-67 -30,-133 l -25,-120 42,-177 42,-178 h 79 c 70,0 78,2 73,18 -6,17 -136,592 -136,598 0,10 -41,2 -45,-8 z"
					style="fill:#cf2f15;fill-opacity:1"/>
			<path
					inkscape:connector-curvature="0"
					id="path1532"
					d="m 14000,6145 v -395 h 75 75 v 389 389 l -22,6 c -13,3 -47,6 -75,6 h -53 z"
					style="fill:#cf2f15;fill-opacity:1"/>
			<path
					inkscape:connector-curvature="0"
					id="path1534"
					d="m 14970,6145 v -395 h 75 75 v 324 325 l 154,3 c 85,2 157,5 159,8 3,3 8,33 12,68 l 7,62 h -241 -241 z"
					style="fill:#cf2f15;fill-opacity:1"/>
			<path
					inkscape:connector-curvature="0"
					id="path1536"
					d="m 16055,6528 c -6,-19 -175,-762 -175,-770 0,-5 33,-8 74,-8 62,0 75,3 80,18 12,41 176,749 176,760 0,17 -149,17 -155,0 z"
					style="fill:#cf2f15;fill-opacity:1"/>
			<path
					inkscape:connector-curvature="0"
					id="path1538"
					d="m 16245,6518 c -3,-13 -16,-72 -28,-133 l -24,-110 23,-100 c 33,-141 34,-135 -30,-135 h -54 l -11,-50 c -6,-28 -11,-55 -11,-60 0,-6 35,-10 79,-10 h 78 l 23,-85 23,-85 h 73 c 59,0 74,3 74,15 0,14 -155,721 -166,758 -8,25 -43,22 -49,-5 z"
					style="fill:#cf2f15;fill-opacity:1"/>
			<path
					inkscape:connector-curvature="0"
					id="path1540"
					d="m 240,6055 v -305 h 80 80 v 305 305 h -80 -80 z"
					style="fill:#cf2f15;fill-opacity:1"/>
			<path
					inkscape:connector-curvature="0"
					id="path1542"
					d="m 14190,6176 v -63 l 71,-6 c 39,-3 77,-11 85,-18 21,-17 20,-172 -1,-189 -8,-7 -47,-15 -85,-18 l -70,-5 v -64 -65 l 108,3 c 175,7 212,42 220,210 10,214 -48,279 -250,279 h -78 z"
					style="fill:#cf2f15;fill-opacity:1"/>
			<path
					inkscape:connector-curvature="0"
					id="path1544"
					d="m 15158,6234 c -5,-4 -8,-31 -8,-59 v -52 l 77,-5 c 96,-6 103,-15 103,-118 0,-103 -7,-112 -104,-118 l -77,-5 3,-61 3,-61 95,-3 c 82,-2 101,0 139,20 77,39 86,60 89,208 4,155 -6,186 -75,227 -38,22 -60,27 -142,31 -53,2 -99,1 -103,-4 z"
					style="fill:#cf2f15;fill-opacity:1"/>
			<path
					inkscape:connector-curvature="0"
					id="path1546"
					d="m 5080,6145 v -65 h 100 100 v 65 65 h -100 -100 z"
					style="fill:#cf2f15;fill-opacity:1"/>
			<path
					inkscape:connector-curvature="0"
					id="path1548"
					d="m 5080,5815 v -65 h 124 123 l 7,38 c 3,20 6,49 6,65 v 27 h -130 -130 z"
					style="fill:#cf2f15;fill-opacity:1"/>
			<path
					inkscape:connector-curvature="0"
					id="path1550"
					d="m 6060,5815 v -65 h 96 97 l -7,31 c -3,17 -6,47 -6,65 v 34 h -90 -90 z"
					style="fill:#cf2f15;fill-opacity:1"/>
			<path
					inkscape:connector-curvature="0"
					id="path1552"
					d="m 11390,5815 v -65 h 90 90 v 65 65 h -90 -90 z"
					style="fill:#cf2f15;fill-opacity:1"/>
			<path
					inkscape:connector-curvature="0"
					id="path1554"
					d="m 12950,5760 v -120 h 50 c 44,0 50,3 50,20 0,11 7,36 14,55 l 15,35 h 170 c 164,0 170,-1 185,-22 9,-12 16,-37 16,-55 0,-33 0,-33 50,-33 h 50 v 120 120 h -300 -300 z"
					style="fill:#cf2f15;fill-opacity:1"/>
		</g>
		<g
				id="g2130"
				transform="matrix(0.95201428,0,0,0.95201428,0.11771211,-2301.5601)"
				style="fill:#cf2f15;fill-opacity:1">
			<path
					inkscape:connector-curvature="0"
					id="path1556"
					d="m 4330,5010 c -121,-26 -239,-119 -298,-236 -77,-152 -83,-194 -157,-999 -35,-385 -72,-780 -81,-877 l -17,-178 h -28 c -61,0 -121,86 -164,236 -14,49 -92,445 -175,879 -82,435 -155,811 -161,837 -16,68 -56,118 -125,155 -107,57 -170,65 -561,70 l -353,5 v -76 -76 h 40 c 114,0 264,-62 330,-137 24,-27 56,-76 72,-110 41,-86 139,-482 263,-1060 82,-383 149,-636 191,-721 82,-168 215,-249 449,-272 132,-14 140,-22 130,-135 -8,-100 -62,-424 -115,-698 -74,-386 -114,-718 -126,-1067 -6,-167 5,-420 22,-518 l 6,-32 h 87 87 l 52,53 52,53 -14,42 c -25,71 -44,180 -56,318 -20,238 18,530 130,999 138,576 251,1211 405,2290 31,215 63,413 72,440 23,73 68,159 105,201 90,103 231,95 300,-16 25,-40 36,-50 58,-50 25,0 28,5 40,58 28,127 103,308 158,381 17,24 27,51 30,86 l 4,52 -48,17 c -111,39 -208,66 -276,75 -114,16 -278,21 -328,11 z"
					style="fill:#cf2f15;fill-opacity:1"/>
			<path
					inkscape:connector-curvature="0"
					id="path1558"
					d="m 1550,4947 c -74,-5 -427,-10 -785,-11 C 61,4935 85,4936 60,4881 11,4774 -8,4410 8,3888 27,3270 75,2607 106,2523 c 8,-23 31,-56 51,-74 35,-31 38,-31 107,-25 432,39 446,41 473,83 14,21 15,50 4,266 -32,677 -42,1366 -22,1595 20,235 50,331 114,371 35,21 188,41 322,41 165,0 216,-62 289,-348 19,-74 42,-145 51,-159 15,-23 22,-25 66,-21 31,3 63,15 88,32 55,39 408,514 417,562 8,45 -18,84 -67,101 -40,14 -248,14 -449,0 z"
					style="fill:#cf2f15;fill-opacity:1"/>
			<path
					inkscape:connector-curvature="0"
					id="path1560"
					d="m 6055,4950 c -100,-16 -217,-57 -285,-101 -178,-115 -313,-338 -371,-609 -31,-150 -32,-392 0,-540 31,-145 137,-458 209,-618 149,-327 350,-607 478,-663 38,-17 50,-18 86,-8 81,21 261,156 293,219 15,30 61,410 72,590 4,83 2,113 -10,143 -22,50 -44,49 -165,-13 -129,-66 -186,-79 -246,-56 -114,43 -202,242 -194,437 3,75 8,94 41,161 52,106 126,172 273,243 186,91 194,109 194,459 0,280 -4,296 -80,333 -53,26 -198,37 -295,23 z"
					style="fill:#cf2f15;fill-opacity:1"/>
			<path
					inkscape:connector-curvature="0"
					id="path1562"
					d="m 11146,4895 c -164,-24 -300,-46 -302,-48 -18,-18 -74,-509 -74,-654 v -62 l -72,-47 c -310,-200 -511,-300 -590,-292 l -33,3 2,80 c 1,79 11,134 93,525 66,312 65,412 -3,447 -26,13 -52,15 -158,10 -179,-9 -513,-38 -521,-46 -10,-9 -52,-208 -88,-414 -38,-221 -74,-508 -96,-767 -23,-264 -26,-951 -6,-1110 8,-58 15,-106 17,-108 3,-4 606,54 661,63 l 31,5 6,438 c 3,240 10,455 14,477 l 8,39 315,183 c 344,199 366,208 395,153 12,-24 15,-81 15,-342 0,-504 26,-811 76,-915 14,-29 33,-54 42,-57 48,-15 221,-37 328,-43 138,-7 180,2 218,48 44,52 46,77 31,442 -23,559 -29,1014 -16,1172 16,181 53,426 91,589 34,146 39,236 14,260 -22,23 -62,20 -398,-29 z"
					style="fill:#cf2f15;fill-opacity:1"/>
			<path
					inkscape:connector-curvature="0"
					id="path1564"
					d="m 14225,4933 c -182,-26 -559,-84 -562,-87 -2,-1 -10,-50 -18,-107 -53,-370 -73,-928 -56,-1539 7,-234 15,-458 18,-497 l 6,-73 h -393 -392 l 6,233 c 19,640 42,875 136,1372 63,335 70,379 71,469 1,125 -28,156 -144,156 -60,0 -397,-24 -527,-38 l -64,-7 -19,-80 c -157,-688 -226,-1646 -161,-2262 l 6,-63 977,-2 977,-3 58,-30 c 106,-55 140,-136 171,-410 26,-223 18,-1421 -10,-1681 l -6,-51 86,-31 c 48,-18 92,-32 99,-32 13,0 16,20 92,580 81,605 106,849 124,1217 12,227 2,478 -21,568 -22,83 -78,113 -284,151 -49,9 -95,22 -101,28 -17,16 -48,930 -41,1171 9,281 38,498 109,821 29,131 30,144 17,185 l -14,44 -55,1 c -30,1 -68,0 -85,-3 z"
					style="fill:#cf2f15;fill-opacity:1"/>
			<path
					inkscape:connector-curvature="0"
					id="path1566"
					d="m 15400,4880 -21,-41 31,-35 c 82,-94 132,-261 134,-444 1,-108 -1,-120 -31,-192 -35,-85 -81,-169 -218,-398 -228,-382 -335,-613 -376,-815 -16,-79 -16,-246 1,-315 26,-109 81,-193 145,-221 82,-36 198,6 310,112 89,84 162,204 333,547 75,149 129,247 133,240 4,-7 61,-197 127,-422 129,-436 130,-439 206,-475 35,-17 49,-18 91,-10 28,5 139,21 248,34 109,14 213,32 232,39 76,32 72,90 -21,293 -228,504 -431,1234 -503,1804 -21,164 -47,252 -84,286 -51,47 -56,48 -394,51 l -322,4 z m 298,-977 c 35,-83 63,-186 69,-253 7,-77 -17,-184 -67,-305 -52,-122 -169,-233 -225,-211 -26,10 -38,85 -31,207 16,310 122,609 216,609 11,0 25,-17 38,-47 z"
					style="fill:#cf2f15;fill-opacity:1"/>
			<path
					inkscape:connector-curvature="0"
					id="path1568"
					d="m 7829,4892 c -16,-13 -33,-44 -44,-78 -16,-51 -17,-76 -9,-223 16,-302 15,-314 -31,-406 -52,-104 -286,-454 -414,-620 -56,-71 -122,-161 -148,-200 -91,-137 -261,-446 -292,-530 -31,-85 -64,-231 -76,-338 l -7,-57 108,1 c 60,0 233,6 384,12 l 275,12 9,38 c 13,52 -6,156 -48,265 -50,129 -59,186 -47,288 17,137 49,236 127,394 57,116 86,161 131,209 32,33 64,61 71,61 25,0 43,-53 82,-245 110,-539 179,-818 222,-905 54,-106 50,-105 383,-105 304,0 353,7 381,51 24,36 13,94 -35,173 -66,109 -225,564 -300,858 -64,249 -66,277 -66,813 v 495 l -26,12 c -38,18 -180,32 -404,39 -193,6 -201,6 -226,-14 z"
					style="fill:#cf2f15;fill-opacity:1"/>
		</g>
	</g>
</svg>
