<?xml version="1.0" encoding="UTF-8" standalone="no"?>
<svg
		xmlns:dc="http://purl.org/dc/elements/1.1/"
		xmlns:cc="http://creativecommons.org/ns#"
		xmlns:rdf="http://www.w3.org/1999/02/22-rdf-syntax-ns#"
		xmlns:sodipodi="http://sodipodi.sourceforge.net/DTD/sodipodi-0.dtd"
		xmlns:inkscape="http://www.inkscape.org/namespaces/inkscape"
		xmlns="http://www.w3.org/2000/svg"
		version="1.0"
		width="260.11929pt"
		height="297.4086pt"
		viewBox="0 0 260.11929 297.4086"
		preserveAspectRatio="xMidYMid meet"
		id="svg98"
		sodipodi:docname="logo_standart_260_2.svg"
		inkscape:version="0.92.4 (5da689c313, 2019-01-14)">
	<metadata
			id="metadata104">
		<rdf:RDF>
			<cc:Work
					rdf:about="">
				<dc:format>image/svg+xml</dc:format>
				<dc:type
						rdf:resource="http://purl.org/dc/dcmitype/StillImage"/>
				<dc:title></dc:title>
			</cc:Work>
		</rdf:RDF>
	</metadata>
	<defs
			id="defs102"/>
	<sodipodi:namedview
			pagecolor="#ffffff"
			bordercolor="#666666"
			borderopacity="1"
			objecttolerance="10"
			gridtolerance="10"
			guidetolerance="10"
			inkscape:pageopacity="0"
			inkscape:pageshadow="2"
			inkscape:window-width="1920"
			inkscape:window-height="1017"
			id="namedview100"
			showgrid="false"
			inkscape:zoom="1.4103585"
			inkscape:cx="416.11124"
			inkscape:cy="193.33616"
			inkscape:window-x="-8"
			inkscape:window-y="-8"
			inkscape:window-maximized="1"
			inkscape:current-layer="g96"
			fit-margin-top="0"
			fit-margin-left="0"
			fit-margin-right="0"
			fit-margin-bottom="0"
			inkscape:pagecheckerboard="true"/>
	<g
			transform="matrix(0.1,0,0,-0.1,-0.91898234,1788.3557)"
			id="g96"
			style="fill:#000000;stroke:none">
		<path
				d="m 1238.4783,17811.162 c -40.9694,-42.257 -72.3086,-73.351 -75.2466,-74.626 -2.7748,-1.276 -121.1127,-43.693 -262.79185,-94.24 -141.84232,-50.55 -344.07788,-122.627 -449.52107,-160.257 l -191.78911,-68.409 -39.33719,38.431 -39.33717,38.43 -45.53972,-45.286 c -24.97338,-24.878 -63.331211,-62.67 -85.040109,-84.195 l -39.663624,-39.228 v -739.413 -739.414 H 180.78174 351.35168 v 614.398 c 0,412.043 0.48965,618.7 1.63223,627.471 10.44637,80.37 75.89951,144.471 158.32803,154.996 19.75023,2.392 109.19741,1.913 127.31538,-0.797 77.85821,-11.482 139.06749,-70.003 152.61515,-145.746 2.12189,-11.642 2.44836,-94.879 2.44836,-631.779 v -618.543 l 149.02425,0.32 148.86092,0.477 0.8162,625.08 c 0.653,494.643 1.3057,626.518 2.9381,632.258 10.4464,36.357 23.8308,60.594 46.6823,84.195 29.0538,29.978 67.9015,49.431 109.0341,54.535 17.4649,2.073 99.4038,2.073 116.8689,0 71.9823,-8.93 132.3753,-59.639 153.268,-129.321 l 4.5704,-14.99 0.8161,-625.877 0.8162,-625.88 148.8611,-0.477 149.0242,-0.32 0.3268,623.805 0.4893,623.966 4.407,15.468 c 17.3019,61.231 60.7198,106.677 120.7864,126.29 22.0349,7.336 39.5002,8.932 95.16,8.932 67.9015,0 84.3872,-2.551 117.5219,-18.181 45.5399,-21.367 78.5113,-58.041 94.6707,-104.924 9.4669,-28.063 8.9773,11.481 8.9773,-659.523 v -615.833 l 171.0592,0.32 170.8965,0.477 0.4896,738.297 0.3265,738.137 -31.5024,31.255 c -17.3018,17.062 -55.9861,55.494 -85.8562,85.311 l -54.5168,54.055 -39.0112,-38.587 -39.0104,-38.749 -253.3251,90.413 c -696.1536,248.118 -654.5314,233.13 -659.9178,238.71 -2.7748,2.713 -34.767,35.561 -71.0027,72.873 -36.0727,37.315 -66.106,67.931 -66.5958,68.09 -0.4896,0 -32.4818,-32.53 -71.1661,-72.395 z"
				id="path2"
				inkscape:connector-curvature="0"
				style="fill:#cf2f15;fill-opacity:1;stroke-width:0.16133107"/>
		<g
				style="fill:#cf2f15;fill-opacity:1;stroke:none"
				id="g2130"
				transform="matrix(0.1541234,0,0,0.1541234,8.8117486,14909.471)">
			<path
					inkscape:connector-curvature="0"
					id="path1556"
					d="m 4330,5010 c -121,-26 -239,-119 -298,-236 -77,-152 -83,-194 -157,-999 -35,-385 -72,-780 -81,-877 l -17,-178 h -28 c -61,0 -121,86 -164,236 -14,49 -92,445 -175,879 -82,435 -155,811 -161,837 -16,68 -56,118 -125,155 -107,57 -170,65 -561,70 l -353,5 v -76 -76 h 40 c 114,0 264,-62 330,-137 24,-27 56,-76 72,-110 41,-86 139,-482 263,-1060 82,-383 149,-636 191,-721 82,-168 215,-249 449,-272 132,-14 140,-22 130,-135 -8,-100 -62,-424 -115,-698 -74,-386 -114,-718 -126,-1067 -6,-167 5,-420 22,-518 l 6,-32 h 87 87 l 52,53 52,53 -14,42 c -25,71 -44,180 -56,318 -20,238 18,530 130,999 138,576 251,1211 405,2290 31,215 63,413 72,440 23,73 68,159 105,201 90,103 231,95 300,-16 25,-40 36,-50 58,-50 25,0 28,5 40,58 28,127 103,308 158,381 17,24 27,51 30,86 l 4,52 -48,17 c -111,39 -208,66 -276,75 -114,16 -278,21 -328,11 z"
					style="fill:#cf2f15;fill-opacity:1"/>
			<path
					inkscape:connector-curvature="0"
					id="path1558"
					d="m 1550,4947 c -74,-5 -427,-10 -785,-11 C 61,4935 85,4936 60,4881 11,4774 -8,4410 8,3888 27,3270 75,2607 106,2523 c 8,-23 31,-56 51,-74 35,-31 38,-31 107,-25 432,39 446,41 473,83 14,21 15,50 4,266 -32,677 -42,1366 -22,1595 20,235 50,331 114,371 35,21 188,41 322,41 165,0 216,-62 289,-348 19,-74 42,-145 51,-159 15,-23 22,-25 66,-21 31,3 63,15 88,32 55,39 408,514 417,562 8,45 -18,84 -67,101 -40,14 -248,14 -449,0 z"
					style="fill:#cf2f15;fill-opacity:1"/>
			<path
					inkscape:connector-curvature="0"
					id="path1560"
					d="m 6055,4950 c -100,-16 -217,-57 -285,-101 -178,-115 -313,-338 -371,-609 -31,-150 -32,-392 0,-540 31,-145 137,-458 209,-618 149,-327 350,-607 478,-663 38,-17 50,-18 86,-8 81,21 261,156 293,219 15,30 61,410 72,590 4,83 2,113 -10,143 -22,50 -44,49 -165,-13 -129,-66 -186,-79 -246,-56 -114,43 -202,242 -194,437 3,75 8,94 41,161 52,106 126,172 273,243 186,91 194,109 194,459 0,280 -4,296 -80,333 -53,26 -198,37 -295,23 z"
					style="fill:#cf2f15;fill-opacity:1"/>
			<path
					inkscape:connector-curvature="0"
					id="path1562"
					d="m 11146,4895 c -164,-24 -300,-46 -302,-48 -18,-18 -74,-509 -74,-654 v -62 l -72,-47 c -310,-200 -511,-300 -590,-292 l -33,3 2,80 c 1,79 11,134 93,525 66,312 65,412 -3,447 -26,13 -52,15 -158,10 -179,-9 -513,-38 -521,-46 -10,-9 -52,-208 -88,-414 -38,-221 -74,-508 -96,-767 -23,-264 -26,-951 -6,-1110 8,-58 15,-106 17,-108 3,-4 606,54 661,63 l 31,5 6,438 c 3,240 10,455 14,477 l 8,39 315,183 c 344,199 366,208 395,153 12,-24 15,-81 15,-342 0,-504 26,-811 76,-915 14,-29 33,-54 42,-57 48,-15 221,-37 328,-43 138,-7 180,2 218,48 44,52 46,77 31,442 -23,559 -29,1014 -16,1172 16,181 53,426 91,589 34,146 39,236 14,260 -22,23 -62,20 -398,-29 z"
					style="fill:#cf2f15;fill-opacity:1"/>
			<path
					inkscape:connector-curvature="0"
					id="path1564"
					d="m 14225,4933 c -182,-26 -559,-84 -562,-87 -2,-1 -10,-50 -18,-107 -53,-370 -73,-928 -56,-1539 7,-234 15,-458 18,-497 l 6,-73 h -393 -392 l 6,233 c 19,640 42,875 136,1372 63,335 70,379 71,469 1,125 -28,156 -144,156 -60,0 -397,-24 -527,-38 l -64,-7 -19,-80 c -157,-688 -226,-1646 -161,-2262 l 6,-63 977,-2 977,-3 58,-30 c 106,-55 140,-136 171,-410 26,-223 18,-1421 -10,-1681 l -6,-51 86,-31 c 48,-18 92,-32 99,-32 13,0 16,20 92,580 81,605 106,849 124,1217 12,227 2,478 -21,568 -22,83 -78,113 -284,151 -49,9 -95,22 -101,28 -17,16 -48,930 -41,1171 9,281 38,498 109,821 29,131 30,144 17,185 l -14,44 -55,1 c -30,1 -68,0 -85,-3 z"
					style="fill:#cf2f15;fill-opacity:1"/>
			<path
					inkscape:connector-curvature="0"
					id="path1566"
					d="m 15400,4880 -21,-41 31,-35 c 82,-94 132,-261 134,-444 1,-108 -1,-120 -31,-192 -35,-85 -81,-169 -218,-398 -228,-382 -335,-613 -376,-815 -16,-79 -16,-246 1,-315 26,-109 81,-193 145,-221 82,-36 198,6 310,112 89,84 162,204 333,547 75,149 129,247 133,240 4,-7 61,-197 127,-422 129,-436 130,-439 206,-475 35,-17 49,-18 91,-10 28,5 139,21 248,34 109,14 213,32 232,39 76,32 72,90 -21,293 -228,504 -431,1234 -503,1804 -21,164 -47,252 -84,286 -51,47 -56,48 -394,51 l -322,4 z m 298,-977 c 35,-83 63,-186 69,-253 7,-77 -17,-184 -67,-305 -52,-122 -169,-233 -225,-211 -26,10 -38,85 -31,207 16,310 122,609 216,609 11,0 25,-17 38,-47 z"
					style="fill:#cf2f15;fill-opacity:1"/>
			<path
					inkscape:connector-curvature="0"
					id="path1568"
					d="m 7829,4892 c -16,-13 -33,-44 -44,-78 -16,-51 -17,-76 -9,-223 16,-302 15,-314 -31,-406 -52,-104 -286,-454 -414,-620 -56,-71 -122,-161 -148,-200 -91,-137 -261,-446 -292,-530 -31,-85 -64,-231 -76,-338 l -7,-57 108,1 c 60,0 233,6 384,12 l 275,12 9,38 c 13,52 -6,156 -48,265 -50,129 -59,186 -47,288 17,137 49,236 127,394 57,116 86,161 131,209 32,33 64,61 71,61 25,0 43,-53 82,-245 110,-539 179,-818 222,-905 54,-106 50,-105 383,-105 304,0 353,7 381,51 24,36 13,94 -35,173 -66,109 -225,564 -300,858 -64,249 -66,277 -66,813 v 495 l -26,12 c -38,18 -180,32 -404,39 -193,6 -201,6 -226,-14 z"
					style="fill:#cf2f15;fill-opacity:1"/>
		</g>
	</g>
</svg>
