<?xml version="1.0" standalone="no"?>
<!DOCTYPE svg PUBLIC "-//W3C//DTD SVG 20010904//EN"
 "http://www.w3.org/TR/2001/REC-SVG-20010904/DTD/svg10.dtd">
<svg version="1.0" xmlns="http://www.w3.org/2000/svg"
 width="752.000000pt" height="752.000000pt" viewBox="0 0 752.000000 752.000000"
 preserveAspectRatio="xMidYMid meet">
<metadata>
Created by potrace 1.14, written by Peter Selinger 2001-2017
</metadata>
<g transform="translate(0.000000,752.000000) scale(0.100000,-0.100000)"
fill="#000000" stroke="none">
<path d="M4966 6323 c-1 -2 -27 -5 -57 -8 -79 -7 -100 -12 -190 -45 -146 -54
-311 -183 -384 -300 -15 -25 -29 -47 -31 -48 -1 -2 -47 17 -101 43 -276 133
-523 213 -783 255 -41 6 -86 14 -100 16 -131 23 -533 23 -660 0 -14 -2 -47 -7
-73 -11 -27 -4 -59 -8 -70 -11 -12 -2 -36 -7 -54 -10 -17 -3 -61 -13 -97 -24
-37 -10 -68 -19 -71 -20 -11 -2 -37 -11 -145 -50 -150 -56 -407 -180 -447
-217 -7 -6 -22 -15 -33 -18 -11 -3 -20 -11 -20 -16 0 -5 -5 -9 -10 -9 -14 0
-138 -90 -240 -174 -70 -58 -256 -239 -303 -296 -7 -8 -35 -42 -63 -75 -27
-33 -51 -62 -54 -65 -3 -3 -9 -12 -15 -22 -5 -9 -31 -46 -57 -83 -27 -36 -48
-68 -48 -70 0 -2 -13 -24 -30 -48 -16 -25 -30 -50 -30 -56 0 -6 -4 -11 -10
-11 -5 0 -10 -6 -10 -14 0 -7 -9 -25 -20 -39 -11 -14 -20 -30 -20 -36 0 -5
-13 -33 -30 -61 -16 -27 -28 -50 -25 -50 3 0 -13 -40 -56 -135 -16 -37 -64
-181 -75 -224 -2 -9 -15 -60 -29 -114 -13 -54 -24 -101 -24 -105 1 -4 0 -9 -1
-12 -3 -10 -10 -45 -15 -85 -3 -22 -7 -51 -10 -65 -23 -120 -23 -464 1 -600 2
-14 7 -41 9 -60 3 -19 8 -46 11 -60 3 -13 8 -40 10 -60 2 -19 9 -48 14 -65 5
-16 14 -50 20 -75 30 -120 107 -333 154 -429 13 -25 34 -68 48 -96 24 -50 142
-249 159 -269 5 -6 33 -42 61 -81 28 -38 75 -97 103 -130 53 -61 204 -215 210
-215 2 0 17 -12 33 -27 37 -36 93 -82 128 -108 15 -11 46 -33 69 -50 22 -16
67 -48 100 -69 33 -21 71 -46 85 -55 52 -34 268 -140 360 -176 52 -20 104 -41
115 -46 109 -45 364 -116 449 -125 28 -3 53 -7 56 -9 29 -18 433 -27 555 -12
33 4 77 9 98 11 21 3 46 7 55 10 9 3 33 8 52 11 262 42 678 214 955 394 80 52
212 146 237 170 10 9 29 25 43 36 30 23 67 57 147 132 l57 54 93 -92 c51 -50
129 -120 173 -156 44 -35 87 -70 97 -78 26 -21 189 -129 238 -157 54 -31 232
-124 242 -127 4 -1 28 -10 54 -21 25 -11 48 -20 51 -20 3 0 19 -6 36 -14 100
-44 276 -90 502 -132 11 -2 47 -6 80 -9 33 -4 74 -8 90 -10 49 -7 277 -6 310
1 17 4 39 8 50 9 11 2 20 4 20 5 0 1 8 3 17 5 9 2 32 8 50 14 18 6 36 11 40
11 13 0 143 73 146 82 2 4 10 8 17 8 24 0 188 169 216 222 6 12 15 25 18 28
15 11 60 120 82 195 32 114 33 333 0 417 -6 16 -9 28 -7 28 8 0 -42 112 -79
176 -65 110 -210 247 -315 296 -93 43 -149 66 -153 62 -2 -3 -16 0 -31 6 -14
5 -61 12 -104 16 -42 3 -80 8 -84 10 -4 3 -9 1 -11 -3 -6 -10 -95 -9 -155 1
-89 15 -327 125 -340 158 -2 4 -8 8 -14 8 -6 0 -43 33 -83 73 -129 130 -224
304 -250 457 -3 19 -8 44 -12 55 -3 10 -7 252 -8 536 -1 284 -6 522 -10 529
-5 7 -4 11 1 7 9 -5 9 246 0 270 -3 7 -1 13 5 13 6 0 7 4 4 10 -3 5 -6 52 -5
102 1 51 1 98 1 103 0 6 -2 45 -3 88 -2 42 0 77 3 77 3 0 6 7 6 15 0 8 -3 15
-6 15 -3 0 -6 84 -6 186 0 112 -4 204 -11 233 -44 170 -151 338 -272 427 -29
21 -58 44 -65 49 -51 42 -225 106 -328 120 -57 8 -187 13 -193 8z m-1861
-1647 c104 -14 174 -34 230 -64 17 -9 32 -15 35 -15 3 1 26 -9 52 -22 118 -59
241 -164 323 -276 42 -57 122 -210 128 -246 2 -10 11 -43 20 -73 32 -108 38
-333 12 -455 -8 -39 -35 -130 -43 -150 -41 -93 -58 -125 -93 -179 -23 -33 -45
-62 -50 -64 -5 -2 -9 -7 -9 -12 0 -11 -87 -99 -142 -143 -61 -49 -173 -117
-193 -117 -8 0 -15 -5 -15 -12 0 -6 -3 -9 -6 -6 -3 4 -22 -1 -42 -9 -91 -39
-194 -57 -317 -57 -71 0 -107 4 -181 18 -88 17 -237 83 -333 149 -58 40 -231
213 -231 232 0 4 -6 16 -14 24 -8 9 -31 50 -51 91 -20 41 -40 83 -45 92 -6 10
-10 28 -10 41 0 13 -4 27 -9 33 -5 5 -12 25 -14 44 -3 19 -9 49 -12 65 -10 44
-12 243 -4 295 7 40 17 96 23 125 9 43 55 162 84 215 73 136 183 260 296 331
34 21 66 43 73 49 7 5 17 10 24 10 6 0 23 6 37 14 34 19 142 57 142 51 0 -2
11 0 24 5 13 5 53 12 88 15 34 4 64 8 65 9 4 4 110 -1 158 -8z"/>
</g>
</svg>
