<svg xmlns="http://www.w3.org/2000/svg" xmlns:xlink="http://www.w3.org/1999/xlink" viewBox="0 0 405.59 120.53"><defs><style>.cls-1{fill:none;}.cls-2{clip-path:url(#clip-path);}.cls-3{fill:#e270ad;}.cls-4{fill:#6c1b79;}.cls-5{fill:#ed1848;}.cls-6{fill:#9c0a0d;}</style><clipPath id="clip-path" transform="translate(5.77 17.63)"><path class="cls-1" d="M396.81,79.71a9.49,9.49,0,0,0-5-3.26,9.27,9.27,0,0,0-2.68-.36A11.39,11.39,0,0,1,382.49,74a11.74,11.74,0,0,1-4.13-5.83A13.17,13.17,0,0,1,377.6,64l-.15-22.62c-.53-5.49-4.73-9.69-9.6-10.07a10.64,10.64,0,0,0-9.64,5.11,32.77,32.77,0,0,0-17.72-4.35A32,32,0,0,0,328,35.28,33.18,33.18,0,0,0,311.79,53a26.24,26.24,0,0,0-4.82.11,29.66,29.66,0,0,0-13.12,5c-2.88,1.86-5.58,3.6-7.57,6.74-.48.76-1.2,2-2.58,3.92a18.82,18.82,0,0,1-3.44,4,10.48,10.48,0,0,1-6.6,2.35,9.52,9.52,0,0,1-2.6-.43,12.59,12.59,0,0,1-7-5c-3.44-5.24-1-11.12-.87-11.44A12.57,12.57,0,0,1,270,51.75a9.48,9.48,0,0,1,6.09-.43c1.21.37,1.27.75,2.93,1.36a14.28,14.28,0,0,0,5.22.86,10.21,10.21,0,0,0,5.6-1.52,9.86,9.86,0,0,0,4-5.6,10.37,10.37,0,0,0-.27-6.41,10.68,10.68,0,0,0-3.21-4.35c-.5-.43-2.31-1.93-6.9-3.21a36.67,36.67,0,0,0-9.68-1.3A32.31,32.31,0,0,0,255,36.91c-12.67,9-13.27,24.16-13.32,26a33.11,33.11,0,0,0,2,12.13,11.6,11.6,0,0,1-5.46-.47,11.82,11.82,0,0,1-5.57-4,12.06,12.06,0,0,1-2.42-6.22q-.06-12.56-.11-25.12a10.42,10.42,0,0,0-20.74,1.15V64.72A11.85,11.85,0,0,1,204.61,73a11.37,11.37,0,0,1-6.6,2,10.85,10.85,0,0,1-6.44-2.07A11.24,11.24,0,0,1,188,68.11a12.63,12.63,0,0,1-.95-3.42q0-11.62,0-23.25a10.59,10.59,0,1,0-21.11.09q0,10.08,0,20.17a40,40,0,0,0,1.05,8.55,40.62,40.62,0,0,0,1.37,4.55,12.24,12.24,0,0,1-3.8,0A10.83,10.83,0,0,1,155,66.18a10.4,10.4,0,0,1-.13-3.26l-.06-27.07a50.93,50.93,0,0,0-.32-5.24,38.94,38.94,0,0,0-2.29-10.22A32.06,32.06,0,0,0,122.34,0a31.44,31.44,0,0,0-7.18,1,33,33,0,0,0-20.9,16.36,32.36,32.36,0,0,0-3.71,14.75l0,33.08A11.36,11.36,0,0,1,68,64.85l-.15-26.09a10.24,10.24,0,0,0-3-5.64,10.5,10.5,0,0,0-6.61-2.77,10.91,10.91,0,0,0-5.26.91,10.64,10.64,0,0,0-4.67,4.24,34.65,34.65,0,0,0-16.21-4.3,32,32,0,0,0-8.4,1A32.25,32.25,0,0,0,7.56,42.78,31.42,31.42,0,0,0,7.18,83.2a32.67,32.67,0,0,0,13.89,9.89,29.33,29.33,0,0,0,11.09,2.18A29.13,29.13,0,0,0,41,93.8a36.6,36.6,0,0,0,9.87-5,38.12,38.12,0,0,0,5-4.15,32,32,0,0,0,11,7.85,31,31,0,0,0,12.28,2.55,32.81,32.81,0,0,0,10.11-1.76,31.54,31.54,0,0,0,12.07-7.07A32.83,32.83,0,0,0,108,77a33.65,33.65,0,0,0,2.26-6,33,33,0,0,0,1.11-7.83V31.2a11.37,11.37,0,1,1,22.72.87V62.22a32.67,32.67,0,0,0,.93,8.31A32.26,32.26,0,0,0,147.4,89.18,33.31,33.31,0,0,0,165.91,95a34.22,34.22,0,0,0,10.82-1.91,33.61,33.61,0,0,0,5.35-2.42A32.06,32.06,0,0,0,198,95a33.57,33.57,0,0,0,11.85-2.31,34.65,34.65,0,0,0,10.09-6.06c1.28,1.05,10.61,8.54,21.58,8.47a34.35,34.35,0,0,0,11.74-2.33,28.21,28.21,0,0,0,4-2.1c8.05,4.21,13.72,4.57,16.39,4.52,1,0,2-.1,2-.11a33.48,33.48,0,0,0,12.09-3.32,28.71,28.71,0,0,0,7-4.75,44.64,44.64,0,0,0,5.84-6.85,18.75,18.75,0,0,1,3.78-4.76,10.23,10.23,0,0,1,3.81-2.09,9.64,9.64,0,0,1,2.93-.36A31.84,31.84,0,0,0,341.92,96,31.31,31.31,0,0,0,360,90.48a32.7,32.7,0,0,0,5.73-4.92,31.5,31.5,0,0,0,8.65,6.77,32.87,32.87,0,0,0,10.11,3.29c4.26.66,6.32.1,6.91-.07a10.2,10.2,0,0,0,5-3,10,10,0,0,0,2.32-6.67A9.71,9.71,0,0,0,396.81,79.71ZM32.09,75.14a12.08,12.08,0,0,1,0-24.14,12.08,12.08,0,0,1,0,24.14ZM341.93,76A12.08,12.08,0,1,1,353.5,63.94,11.83,11.83,0,0,1,341.93,76Z"/></clipPath></defs><g id="Слой_2" data-name="Слой 2"><g id="Слой_1-2" data-name="Слой 1"><g class="cls-2"><path class="cls-3" d="M198,73.06v28.05l19.43-9.73,2.67-4.59a32.58,32.58,0,0,0,5.87-7.4,33.24,33.24,0,0,0,4.35-16.66l-29.11-1Z" transform="translate(5.77 17.63)"/><rect class="cls-4" y="40.23" width="37.83" height="40.15"/><rect class="cls-5" y="80.38" width="37.83" height="40.15"/><rect class="cls-3" x="37.83" y="40.23" width="46.97" height="40.15"/><rect class="cls-6" x="37.83" y="80.38" width="46.97" height="40.15"/><rect class="cls-3" x="84.58" y="49.64" width="43.7" height="30.74"/><rect class="cls-4" x="84.58" width="43.7" height="49.59"/><rect class="cls-5" x="84.58" y="80.38" width="43.7" height="40.15"/><rect class="cls-6" x="128.21" y="49.6" width="39.22" height="30.78"/><rect class="cls-5" x="128.21" width="60.08" height="49.55"/><path class="cls-3" d="M163.1,63.69l-4.55-.94H122.44V102.9h43.61V73.32Q164.58,68.51,163.1,63.69Z" transform="translate(5.77 17.63)"/><rect class="cls-5" x="166.7" y="41.67" width="32.04" height="39.14"/><rect class="cls-4" x="209.61" y="41.67" width="32.04" height="39.14"/><rect class="cls-4" x="242.29" y="41.67" width="37.79" height="39.14"/><path class="cls-5" d="M274.31,63.18h11.24c1.6-1.94,3.19-3.89,4.78-5.83l5.67-7V24.05H274.31Z" transform="translate(5.77 17.63)"/><path class="cls-4" d="M168,74.17a34.69,34.69,0,0,0,19.35,19.2l-12.3,6-8.93-2.68V73.4Z" transform="translate(5.77 17.63)"/><path class="cls-6" d="M165.24,63.19h23.65L198,72.26V99.49L182,90.7a35,35,0,0,1-8.66-7.58,37.29,37.29,0,0,1-5.63-9.79A38,38,0,0,1,165.24,63.19Z" transform="translate(5.77 17.63)"/><path class="cls-5" d="M230.25,64a10.81,10.81,0,0,0,11.34,10.47V97.14c-.64.24-10.54,3.66-17.79-2.35a16.29,16.29,0,0,1-4.93-7.36c.4-.31,1-.78,1.63-1.38a29.4,29.4,0,0,0,7.29-10.62A32.13,32.13,0,0,0,230.25,64Z" transform="translate(5.77 17.63)"/><path class="cls-6" d="M241.57,74.08V97.46a17.12,17.12,0,0,0,12.33-1.62,15.86,15.86,0,0,0,4.87-4.46A31.37,31.37,0,0,1,243.34,74l-.19,0Z" transform="translate(5.77 17.63)"/><path class="cls-3" d="M240.6,63.22h33.64V96.65H262.12c-1.61-2-3.23-4-4.85-6A30.94,30.94,0,0,1,243.75,75L240.6,69.3Z" transform="translate(5.77 17.63)"/><path class="cls-5" d="M281.8,67.68l23.37,13.59-30.93,21.2V70.4Z" transform="translate(5.77 17.63)"/><path class="cls-4" d="M312.08,52.19a31,31,0,0,0,.78,25.4l-10.31,2.3-22.8-13.26A44.08,44.08,0,0,1,294.63,54.2a25.55,25.55,0,0,1,17.45-2Z" transform="translate(5.77 17.63)"/><rect class="cls-4" x="347.53" y="81.5" width="58.06" height="37.07"/><rect class="cls-3" x="347.53" y="44.65" width="58.06" height="37.07"/><path class="cls-5" d="M309.8,64h21.52a32.37,32.37,0,0,1,5.11-6.74,32.78,32.78,0,0,1,5.36-4.39V30.24A69.72,69.72,0,0,0,324.22,35c-3.25,1.38-5.37,2.64-7,4.82-.71.93-1.24,1.9-3,6.32-1.18,2.93-2.11,5.4-2.77,7.2A29.48,29.48,0,0,0,310,59.12,28.83,28.83,0,0,0,309.8,64Z" transform="translate(5.77 17.63)"/><path class="cls-6" d="M341.81,73.55V98.93c-1.2.3-12.36,2.84-21.8-4.94-9.73-8-9.05-20-9-21.09a25.71,25.71,0,0,1-1.12-5,26.54,26.54,0,0,1-.19-4.13h22.78Z" transform="translate(5.77 17.63)"/></g></g></g></svg>