<svg width="443" height="358" viewBox="0 0 443 358" fill="none" xmlns="http://www.w3.org/2000/svg">
	<g clip-path="url(#clip0_5_797)">
		<path d="M370.48 301.796H46.7331C45.0669 301.796 43.6917 300.444 43.6917 298.748V103.955C43.6917 93.7 51.9962 85.3794 62.2051 85.3794H354.982C365.191 85.3794 373.495 93.7 373.495 103.955V298.748C373.495 300.418 372.146 301.796 370.454 301.796H370.48Z" fill="#F2F2F2"/>
		<path d="M292.565 61.4244C293.306 58.5095 295.131 56.0451 297.723 54.5082C299.812 53.2627 302.219 52.7327 304.599 52.9712C305.154 53.0242 305.683 53.1302 306.239 53.2627C312.242 54.7997 315.892 60.9209 314.385 66.9362C312.851 72.9514 306.741 76.6082 300.738 75.0978C294.734 73.5609 291.084 67.4396 292.592 61.4244H292.565Z" fill="#8FD1C8"/>
		<path d="M239.432 56.8401V71.4675C239.432 71.8915 239.696 72.2625 240.093 72.4215L251.571 76.3963C252.894 82.0936 255.142 87.4463 258.13 92.2956L252.788 103.24C252.603 103.611 252.682 104.088 252.973 104.379L263.288 114.714C263.578 115.005 264.055 115.085 264.425 114.899L275.374 109.573C280.188 112.567 285.53 114.82 291.216 116.171L295.184 127.698C295.316 128.096 295.712 128.361 296.136 128.361H310.735C311.158 128.361 311.528 128.096 311.687 127.698L315.654 116.198C321.34 114.873 326.683 112.62 331.523 109.626L342.446 114.979C342.816 115.164 343.292 115.085 343.583 114.793L353.898 104.459C354.188 104.167 354.268 103.69 354.083 103.319L348.767 92.3486C351.755 87.5258 354.003 82.173 355.352 76.4758L366.857 72.501C367.254 72.3685 367.518 71.971 367.518 71.547V56.9196C367.518 56.4956 367.254 56.1246 366.857 55.9656L355.379 51.9908C354.056 46.2936 351.808 40.9408 348.82 36.0915L354.162 25.1474C354.347 24.7765 354.268 24.2995 353.977 24.008L343.662 13.6734C343.371 13.3819 342.895 13.3024 342.525 13.4879L331.576 18.8142C326.762 15.8198 321.42 13.5674 315.733 12.216L311.766 0.688961C311.634 0.291478 311.237 0.0264893 310.814 0.0264893H296.215C295.792 0.0264893 295.422 0.291478 295.263 0.688961L291.296 12.1895C285.609 13.5144 280.267 15.7668 275.427 18.7612L264.504 13.4084C264.134 13.2229 263.658 13.3024 263.367 13.5939L253.052 23.9285C252.761 24.22 252.682 24.697 252.867 25.0679L258.183 36.0385C255.195 40.8613 252.946 46.2141 251.598 51.9113L240.093 55.8862C239.696 56.0186 239.432 56.4161 239.432 56.8401ZM277.807 38.3969C284.631 31.5867 293.676 27.8238 303.303 27.8238C323.192 27.8238 339.351 44.0676 339.325 63.9683C339.325 65.1873 339.272 66.4327 339.14 67.6252C338.611 72.8984 336.918 77.9597 334.194 82.5175C333.956 82.915 333.427 83.0475 333.03 82.809C332.739 82.6235 332.581 82.3055 332.607 81.9876C332.607 81.8551 332.66 81.7491 332.713 81.6431C335.305 77.3237 336.892 72.4744 337.421 67.4662C337.526 66.3002 337.606 65.1343 337.606 63.9683C337.606 44.9951 322.24 29.5463 303.277 29.5198C294.099 29.5198 285.477 33.0971 278.971 39.5893C273.311 45.2336 269.873 52.5208 269.08 60.391C268.947 61.5569 268.894 62.7494 268.894 63.9153C268.894 70.699 270.852 77.0323 274.237 82.3585C280.32 91.9511 291.031 98.3374 303.224 98.3374C305.683 98.3374 308.116 98.0724 310.497 97.5689C310.946 97.4629 311.422 97.7544 311.502 98.2314C311.502 98.3109 311.502 98.4169 311.502 98.4964C311.475 98.8673 311.211 99.1588 310.841 99.2383C310.708 99.2648 310.55 99.2913 310.417 99.3178C310.338 99.3178 310.259 99.3443 310.206 99.3708C310.206 99.3708 310.153 99.3708 310.127 99.3708C308.249 99.7418 306.318 99.9538 304.387 100.007C303.991 100.007 303.594 100.007 303.224 100.007C301.981 100.007 300.738 99.9538 299.521 99.8213C291.296 98.9733 283.652 95.3695 277.728 89.4073C270.931 82.5705 267.175 73.5079 267.175 63.8623C267.175 62.6169 267.228 61.3714 267.36 60.1525C268.207 51.9113 271.804 44.2531 277.754 38.3174L277.807 38.3969ZM302.007 78.8077C301.293 78.7282 300.605 78.6222 299.891 78.4367C292.063 76.4493 287.302 68.4466 289.286 60.5765C290.238 56.7606 292.618 53.5807 296.003 51.5668C299.362 49.5529 303.303 48.9699 307.111 49.9504C314.94 51.9378 319.701 59.9405 317.717 67.8106C315.919 74.9653 309.121 79.5497 302.033 78.8342L302.007 78.8077Z" fill="#8FD1C8"/>
		<path d="M357.283 119.96V129.739C357.283 130.03 357.468 130.269 357.732 130.375L365.429 133.024C366.328 136.84 367.809 140.418 369.819 143.65L366.249 150.991C366.116 151.256 366.169 151.547 366.381 151.759L373.284 158.675C373.495 158.887 373.786 158.94 374.051 158.808L381.377 155.231C384.603 157.244 388.174 158.755 391.982 159.656L394.627 167.367C394.733 167.632 394.971 167.817 395.262 167.817H405.021C405.312 167.817 405.55 167.632 405.656 167.367L408.301 159.656C412.109 158.755 415.68 157.271 418.906 155.257L426.232 158.834C426.497 158.967 426.788 158.914 426.999 158.702L433.902 151.786C434.114 151.574 434.166 151.282 434.034 151.017L430.464 143.677C432.474 140.444 433.981 136.867 434.881 133.051L442.577 130.401C442.841 130.295 443.026 130.057 443.026 129.765V119.987C443.026 119.695 442.841 119.457 442.577 119.351L434.881 116.701C433.981 112.885 432.5 109.308 430.49 106.075L434.061 98.7349C434.193 98.4699 434.14 98.1784 433.928 97.9664L427.026 91.0502C426.814 90.8382 426.523 90.7852 426.259 90.9177L418.933 94.4951C415.706 92.4811 412.136 90.9707 408.327 90.0697L405.682 82.3586C405.576 82.0936 405.338 81.9081 405.047 81.9081H395.288C394.997 81.9081 394.759 82.0936 394.654 82.3586L392.009 90.0697C388.2 90.9707 384.63 92.4546 381.403 94.4686L374.077 90.8912C373.813 90.7587 373.522 90.8117 373.31 91.0237L366.407 97.9399C366.196 98.1519 366.143 98.4434 366.275 98.7084L369.846 106.049C367.835 109.281 366.328 112.859 365.429 116.675L357.732 119.325C357.468 119.431 357.283 119.669 357.283 119.96ZM382.435 107.082C387.142 102.365 393.384 99.7948 400.022 99.7948C406.661 99.7948 412.902 102.392 417.61 107.109C422.318 111.825 424.883 118.079 424.883 124.73C424.883 125.578 424.83 126.426 424.751 127.248C424.381 130.878 423.217 134.376 421.339 137.503C420.969 138.139 420.149 138.324 419.514 137.953C419.065 137.688 418.827 137.185 418.88 136.681C418.88 136.496 418.959 136.31 419.065 136.125C420.731 133.316 421.789 130.189 422.106 126.956C422.186 126.214 422.212 125.446 422.212 124.704C422.212 118.742 419.911 113.15 415.706 108.937C411.501 104.724 405.92 102.418 399.996 102.392C394.045 102.392 388.465 104.697 384.26 108.91C380.61 112.567 378.362 117.284 377.859 122.372C377.78 123.14 377.753 123.882 377.753 124.651C377.753 130.613 380.054 136.204 384.26 140.418C384.286 140.444 384.339 140.497 384.365 140.524C384.365 140.524 384.365 140.524 384.392 140.55C385.846 141.981 387.46 142.935 389.179 143.889C392.379 145.664 395.949 146.406 399.705 146.406C399.784 146.406 398.594 146.406 398.594 146.406V146.857C401.239 146.857 402.456 146.724 403.99 146.406C404.704 146.247 405.735 146.724 405.894 147.44C405.92 147.572 406.105 147.731 406.079 147.864C406.026 148.42 405.709 148.897 405.127 149.03C405.047 149.03 405.021 149.056 404.942 149.083C403.276 149.427 401.609 149.586 399.917 149.586C399.07 149.586 398.224 149.533 397.404 149.454C384.868 148.182 375.056 137.529 375.082 124.651C375.082 123.803 375.135 122.928 375.214 122.08C375.796 116.383 378.282 111.11 382.382 107.029L382.435 107.082ZM405.259 133.475C403.408 134.588 401.265 135.065 399.15 134.826C398.674 134.773 398.171 134.694 397.695 134.561C395.103 133.899 392.934 132.282 391.559 129.977C390.184 127.672 389.814 124.995 390.448 122.398C391.797 117.046 397.245 113.813 402.588 115.164C407.93 116.516 411.183 121.974 409.808 127.327C409.147 129.924 407.534 132.097 405.233 133.475H405.259Z" fill="#8FD1C8"/>
		<path d="M393.834 128.652C392.829 126.956 392.538 124.995 393.014 123.087C393.913 119.51 397.325 117.205 400.869 117.576C401.213 117.602 401.583 117.682 401.927 117.761C405.841 118.768 408.248 122.769 407.243 126.718C406.767 128.626 405.576 130.216 403.884 131.222C402.191 132.229 400.234 132.521 398.33 132.044C396.425 131.567 394.839 130.375 393.834 128.679V128.652Z" fill="#8FD1C8"/>
		<path d="M46.7332 310.779C40.0419 310.779 33.668 305.453 33.668 298.748V103.955C33.668 88.6918 46.9976 77.5887 62.2316 77.5887H355.008C370.242 77.5887 382.778 88.6918 382.778 103.955V298.748C382.778 305.453 377.172 310.779 370.48 310.779H46.7332Z" fill="white"/>
		<path d="M354.982 85.5384H62.2052C51.9963 85.5384 44.2207 93.7266 44.2207 103.955V298.748C44.2207 300.418 45.0406 302.829 46.7068 302.829H370.454C372.12 302.829 374.818 300.444 374.818 298.748V103.955C374.818 93.7001 365.191 85.5384 354.982 85.5384ZM366.883 297.529H49.5103V103.955C49.5103 97.0654 55.3288 93.4881 62.2052 93.4881H354.982C361.858 93.4881 366.883 97.0654 366.883 103.955V297.529Z" fill="#F2F2F2"/>
		<path d="M66.6748 105.333H350.565C352.231 105.333 353.607 106.685 353.607 108.38V278.795C353.607 280.464 352.258 281.842 350.565 281.842H66.6748C65.0086 281.842 63.6333 280.491 63.6333 278.795V108.38C63.6333 106.711 64.9821 105.333 66.6748 105.333Z" fill="#F2F2F2"/>
		<path d="M370.507 331.607H46.7332C34.2763 331.607 24.1469 323.551 24.1469 313.667V298.775C24.1469 297.106 25.4957 295.728 27.1883 295.728H390.025C391.691 295.728 393.067 297.079 393.067 298.775V313.667C393.067 323.551 382.937 331.607 370.507 331.607ZM30.2034 301.796V313.667C30.2034 320.107 37.7674 325.539 46.7332 325.539H370.507C379.446 325.539 387.01 320.107 387.01 313.667V301.796H30.2034Z" fill="#F2F2F2"/>
		<path d="M208.593 323.207C203.357 323.207 199.072 318.914 199.072 313.641C199.072 308.368 203.357 304.101 208.593 304.101C213.83 304.101 218.141 308.394 218.141 313.641C218.141 318.888 213.857 323.207 208.593 323.207ZM208.593 310.196C206.689 310.196 205.129 311.759 205.129 313.667C205.129 315.575 206.689 317.139 208.593 317.139C210.498 317.139 212.058 315.575 212.058 313.667C212.058 311.759 210.498 310.196 208.593 310.196Z" fill="#F2F2F2"/>
		<path d="M108.251 253.303C92.5672 236.45 66.1194 235.549 49.3251 251.262C32.5043 266.976 31.6051 293.475 47.2886 310.302C62.9721 327.155 89.4199 328.056 106.214 312.342C123.035 296.629 123.934 270.13 108.251 253.303ZM98.9146 304.525C86.4049 316.211 66.7542 315.522 55.0907 303.015C43.4272 290.481 44.1149 270.792 56.5982 259.106C69.108 247.42 88.7587 248.109 100.422 260.617C112.086 273.151 111.398 292.839 98.9146 304.525Z" fill="#8FD1C8"/>
		<path d="M111.337 281.802C111.571 263.466 96.9239 248.412 78.6232 248.179C60.3225 247.945 45.2978 262.62 45.0647 280.956C44.8315 299.292 59.4781 314.346 77.7788 314.579C96.0795 314.813 111.104 300.138 111.337 281.802Z" fill="#F2F2F2" fill-opacity="0.4"/>
		<path opacity="0.35" d="M56.8098 283.459C58.6941 283.459 60.2216 281.928 60.2216 280.04C60.2216 278.152 58.6941 276.622 56.8098 276.622C54.9256 276.622 53.3981 278.152 53.3981 280.04C53.3981 281.928 54.9256 283.459 56.8098 283.459Z" fill="white"/>
		<path d="M106.532 253.7C91.2712 238.04 66.2252 237.695 50.5946 252.985C34.964 268.275 34.6201 293.369 49.8805 309.03C65.1409 324.691 90.1869 325.035 105.818 309.746C121.448 294.456 121.792 269.361 106.532 253.7ZM54.4824 304.552C41.7081 291.408 41.9726 270.395 55.0907 257.596C68.2088 244.797 89.1819 245.062 101.956 258.205C114.73 271.349 114.466 292.362 101.348 305.161C88.2298 317.96 67.2567 317.695 54.4824 304.552Z" fill="#478078"/>
		<path d="M2.75056 355.059C-0.978575 351.216 -0.899232 345.069 2.93569 341.332L31.5257 313.402L45.0405 327.288L16.4505 355.218C12.6156 358.954 6.47969 358.874 2.75056 355.032V355.059Z" fill="#478078"/>
		<path d="M52.5316 313.111L45.8854 306.28C43.0917 303.408 38.5037 303.35 35.6379 306.149L33.2516 308.479C30.3858 311.279 30.3274 315.875 33.1211 318.747L39.7673 325.578C42.561 328.449 47.149 328.508 50.0148 325.709L52.401 323.378C55.2668 320.579 55.3253 315.982 52.5316 313.111Z" fill="#8FD1C8"/>
		<path d="M181.526 199.995V211.421H135.472L134.593 202.368L160.301 161.016H171.99L159.29 181.802L148.743 199.995H181.526ZM175.066 161.016V225H160.257V161.016H175.066Z" fill="#478078"/>
		<path d="M232.591 187.163V198.853C232.591 203.452 232.049 207.451 230.965 210.85C229.91 214.248 228.387 217.061 226.395 219.287C224.432 221.514 222.088 223.169 219.363 224.253C216.639 225.337 213.636 225.879 210.354 225.879C207.718 225.879 205.257 225.542 202.972 224.868C200.687 224.165 198.621 223.11 196.775 221.704C194.959 220.269 193.392 218.481 192.073 216.343C190.755 214.204 189.744 211.685 189.041 208.784C188.338 205.854 187.986 202.544 187.986 198.853V187.163C187.986 182.534 188.514 178.535 189.568 175.166C190.652 171.768 192.19 168.955 194.183 166.729C196.175 164.502 198.533 162.847 201.258 161.763C203.982 160.679 206.985 160.137 210.267 160.137C212.903 160.137 215.35 160.488 217.605 161.191C219.891 161.865 221.956 162.92 223.802 164.355C225.647 165.762 227.215 167.534 228.504 169.673C229.822 171.812 230.833 174.346 231.536 177.275C232.239 180.176 232.591 183.472 232.591 187.163ZM217.781 200.654V185.273C217.781 183.223 217.664 181.436 217.43 179.912C217.225 178.389 216.902 177.1 216.463 176.045C216.053 174.99 215.54 174.141 214.925 173.496C214.31 172.822 213.606 172.339 212.815 172.046C212.054 171.724 211.204 171.562 210.267 171.562C209.095 171.562 208.04 171.812 207.103 172.31C206.194 172.778 205.418 173.54 204.773 174.595C204.129 175.649 203.631 177.056 203.279 178.813C202.957 180.571 202.796 182.725 202.796 185.273V200.654C202.796 202.734 202.898 204.551 203.104 206.104C203.338 207.627 203.66 208.931 204.07 210.015C204.51 211.069 205.037 211.934 205.652 212.607C206.268 213.252 206.971 213.721 207.762 214.014C208.553 214.307 209.417 214.453 210.354 214.453C211.497 214.453 212.522 214.219 213.431 213.75C214.339 213.281 215.115 212.52 215.76 211.465C216.434 210.381 216.932 208.96 217.254 207.202C217.605 205.415 217.781 203.232 217.781 200.654Z" fill="#478078"/>
		<path d="M285.94 199.995V211.421H239.886L239.007 202.368L264.715 161.016H276.404L263.704 181.802L253.157 199.995H285.94ZM279.48 161.016V225H264.671V161.016H279.48Z" fill="#478078"/>
	</g>
	<defs>
		<clipPath id="clip0_5_797">
			<rect width="443" height="358" fill="white"/>
		</clipPath>
	</defs>
</svg>
