<svg width="183" height="50" viewBox="0 0 183 50" fill="none" xmlns="http://www.w3.org/2000/svg">
<path d="M41.9519 7.53464C41.78 7.46383 41.6119 7.38346 41.4152 7.29351L41.7762 6.5586L44.2768 7.6112C43.78 7.98553 43.2399 8.29846 42.6683 8.54322C42.5747 8.35184 42.4773 8.16046 42.4028 7.98056C42.3616 7.87958 42.3004 7.78801 42.2229 7.71137C42.1454 7.63473 42.0532 7.57461 41.9519 7.53464ZM4.89226 11.7833C5.06728 11.8232 5.23958 11.8743 5.40805 11.9364C5.69405 12.0494 5.9968 12.1141 6.30397 12.1278C7.06808 12.1278 7.65645 11.7086 8.23336 11.3048L6.94773 10.0111C6.93118 10.0159 6.91565 10.0237 6.90189 10.0341C6.50829 10.3433 6.01645 10.4996 5.51693 10.4742C5.32966 10.4729 5.14399 10.5087 4.97059 10.5795C4.57576 10.7385 4.25381 11.0385 4.06702 11.4216C3.94792 11.6415 3.89735 11.8922 3.92184 12.1412C3.93055 12.2807 3.96919 12.4167 4.03512 12.5398C4.10105 12.663 4.19273 12.7705 4.30389 12.855C4.39934 12.9303 4.51674 12.9721 4.63817 12.9742C4.7596 12.9762 4.87838 12.9384 4.97632 12.8665C5.06822 12.7937 5.1337 12.6926 5.16269 12.5788C5.19168 12.4651 5.18257 12.3449 5.13678 12.2369C5.08842 12.1257 5.00336 12.0346 4.89587 11.9788C4.78838 11.9231 4.66503 11.9061 4.54651 11.9306C4.51021 11.9306 4.47582 11.9306 4.42042 11.9306C4.47301 11.8598 4.54656 11.8075 4.63059 11.781C4.71463 11.7546 4.80487 11.7554 4.88843 11.7833H4.89226ZM45.0084 7.05428L45.3905 6.72702L42.4868 5.5041C42.3149 5.75289 42.1563 5.98638 41.9768 6.24857L44.6263 7.36814C44.7639 7.25331 44.8919 7.15572 45.0065 7.05428H45.0084ZM49.1729 1.7741L48.1833 0.767437C47.6856 0.924062 47.2133 1.15228 46.7812 1.44493L48.9761 2.36547C49.0544 2.1205 49.127 1.90615 49.1709 1.7741H49.1729ZM49.5224 1.7473C49.5972 1.79766 49.6781 1.83819 49.7631 1.86787C49.8663 1.90041 49.9312 1.83534 49.893 1.7339C49.8429 1.61505 49.7787 1.50262 49.702 1.39899C49.3966 0.980103 49.0324 0.607548 48.6208 0.292817C48.521 0.21352 48.4149 0.142478 48.3037 0.0803881C48.2251 0.0470284 48.144 0.0201376 48.061 0C48.0484 0.0822943 48.0549 0.166416 48.0801 0.245767C48.1053 0.325117 48.1485 0.397548 48.2062 0.457402C48.5684 0.958686 49.0128 1.39483 49.5205 1.7473H49.5224ZM48.7908 2.7042L48.5596 2.59895C48.0286 2.37312 47.4994 2.14538 46.9684 1.92338C46.7773 1.843 46.5863 1.7741 46.3953 1.70137C46.2234 1.82194 46.0495 1.9406 45.8814 2.065C45.7783 2.14155 45.6904 2.2315 45.5547 2.33676L48.3151 3.50227L48.7908 2.7042ZM43.9635 5.74524C44.4735 5.9615 44.9855 6.17202 45.4917 6.39594C45.5443 6.4307 45.608 6.44448 45.6702 6.43456C45.7324 6.42465 45.7887 6.39174 45.8279 6.34234C45.9636 6.19307 46.1164 6.0591 46.2597 5.91557C46.2949 5.87484 46.3269 5.83132 46.3552 5.78543L43.2815 4.49744L42.7084 5.20363C42.802 5.24765 42.8689 5.28018 42.9377 5.30889C43.2739 5.45051 43.6196 5.59405 43.9635 5.74524ZM44.9034 12.2292C44.8588 12.3173 44.8407 12.4164 44.8512 12.5145C44.8617 12.6127 44.9004 12.7057 44.9626 12.7823C45.0211 12.862 45.1018 12.9227 45.1945 12.9567C45.2873 12.9908 45.388 12.9967 45.4841 12.9737C45.6343 12.9443 45.7696 12.8631 45.8661 12.744C46.0471 12.5277 46.135 12.2482 46.1106 11.967C46.0438 11.1498 45.2224 10.4895 44.6359 10.4895C44.5003 10.4895 44.3666 10.4895 44.2309 10.4762C43.9442 10.469 43.6648 10.3836 43.4229 10.2293C43.3121 10.1546 43.1975 10.0857 43.0408 9.99388C42.6225 10.4207 42.2022 10.8455 41.7571 11.2972C42.1333 11.5822 42.5433 11.8194 42.9778 12.0034C43.4365 12.1836 43.9451 12.1904 44.4086 12.0225C44.5346 11.9766 44.6588 11.9153 44.7906 11.8809C44.956 11.8336 45.1255 11.8022 45.2969 11.7871C45.3568 11.7739 45.4194 11.784 45.4722 11.8152C45.5251 11.8465 45.5641 11.8966 45.5815 11.9555C45.4993 11.9555 45.4325 11.9364 45.3656 11.9364C45.2688 11.9325 45.173 11.9578 45.0906 12.0089C45.0082 12.0601 44.943 12.1348 44.9034 12.2235V12.2292ZM48.0878 3.80847L45.2071 2.5913C44.9664 2.80756 44.741 3.01041 44.4869 3.24198L47.5338 4.53188L48.0878 3.80847ZM47.2836 4.82853L44.2118 3.53097L43.5547 4.2142L46.6608 5.52133L47.2836 4.82853ZM37.1762 4.96632C37.2557 5.03171 37.3535 5.07086 37.4561 5.0784C37.5587 5.08594 37.6611 5.0615 37.7493 5.00843C37.8424 4.95761 37.9175 4.8792 37.9643 4.78396C38.0112 4.68871 38.0275 4.58128 38.011 4.47639C38.011 4.42854 37.9957 4.38069 37.9843 4.31754C38.0339 4.33408 38.0771 4.36595 38.1077 4.40857C38.1382 4.45119 38.1545 4.5024 38.1543 4.55486C38.1621 4.66702 38.1544 4.77973 38.1313 4.88977C38.0855 5.08115 38.0186 5.24765 37.9575 5.42564C37.8402 5.71964 37.7887 6.03581 37.8066 6.35191C37.8754 7.04471 38.2441 7.59589 38.6357 8.12601L39.9232 6.83802C39.9069 6.80842 39.889 6.77967 39.8697 6.7519C39.5759 6.37492 39.4304 5.90297 39.4609 5.42564C39.501 4.71562 38.842 3.98262 38.16 3.841C37.8786 3.77692 37.5834 3.82496 37.3367 3.97497C37.2501 4.02103 37.1744 4.0852 37.1148 4.16313C37.0551 4.24105 37.0129 4.33091 36.9909 4.42663C36.9627 4.52447 36.9653 4.62867 36.9985 4.72494C37.0316 4.82122 37.0937 4.90486 37.1762 4.9644V4.96632ZM1.01246 1.53487C0.962184 1.57164 0.926277 1.62482 0.910933 1.68525C0.89559 1.74569 0.901761 1.8096 0.928399 1.86596C1.06173 2.24915 1.23593 2.61682 1.44799 2.96257C1.47856 3.01616 1.52059 3.06783 1.57599 3.15395L2.49294 0.968383L1.84726 0.729158C1.54926 1.00475 1.28946 1.2746 1.01246 1.53487ZM1.86445 3.65919C2.02109 3.86014 2.1739 4.06492 2.32864 4.26587C2.36639 4.30776 2.40658 4.34738 2.44898 4.38453C2.83104 3.46016 3.2131 2.55684 3.59516 1.64013C3.34599 1.46413 3.08421 1.30678 2.81195 1.16934C2.78711 1.19614 2.77374 1.20569 2.76801 1.21909C2.45281 1.96547 2.13953 2.71186 1.81287 3.45633C1.80087 3.48998 1.79939 3.52651 1.8086 3.56103C1.81781 3.59556 1.83728 3.62646 1.86445 3.64962V3.65919ZM0.481397 1.7741C1.03693 1.4017 1.51027 0.919034 1.8721 0.355976C1.92299 0.25888 1.96578 0.15774 2.00007 0.0535921C1.93085 0.0347371 1.85801 0.0336122 1.78824 0.0503331C1.71848 0.067054 1.65403 0.101084 1.60083 0.149282C1.07609 0.508978 0.622657 0.963245 0.263621 1.48894C0.216468 1.55659 0.177967 1.62988 0.149008 1.70712C0.140384 1.75972 0.140384 1.81336 0.149008 1.86596C0.208435 1.87402 0.268889 1.86914 0.326256 1.85164C0.383624 1.83413 0.43655 1.80442 0.481397 1.76453V1.7741ZM38.4561 8.71928C38.7579 9.01784 39.0521 9.30491 39.3406 9.59964C39.4151 9.67619 39.4838 9.65323 39.566 9.636C39.658 9.61335 39.754 9.61222 39.8465 9.63272C39.939 9.65321 40.0255 9.69478 40.0994 9.75419C40.1733 9.8136 40.2325 9.88925 40.2725 9.97529C40.3125 10.0613 40.3322 10.1554 40.3301 10.2503C40.3257 10.3472 40.3155 10.4437 40.2995 10.5393L40.3339 10.5068L41.2757 11.4752C41.2934 11.4677 41.3101 11.458 41.3254 11.4465C41.8507 10.9202 42.376 10.3958 42.8994 9.86756C42.942 9.82041 42.9798 9.76912 43.0122 9.71446C42.7982 9.24749 42.5728 8.80541 42.3894 8.3461C42.3284 8.17032 42.2289 8.01039 42.0984 7.87796C41.9679 7.74554 41.8095 7.64395 41.6348 7.58058C41.1611 7.3892 40.7083 7.15953 40.2556 6.94902C39.6228 7.50111 39.022 8.08897 38.4561 8.70972V8.71928ZM3.35449 5.44285L4.63628 2.39992L3.91801 1.84108C3.50348 2.82286 3.10614 3.76828 2.70116 4.72518L3.35449 5.44285ZM50 49.8182V49.8641L49.8644 50H49.8204C49.7555 49.9529 49.6872 49.9107 49.616 49.8737C48.3425 49.2728 47.0734 48.6737 45.8088 48.0766C45.6398 47.9958 45.486 47.8864 45.3542 47.7532L37.5392 40.0023C34.107 43.1247 29.6361 44.8532 25 44.85C20.374 44.853 15.9122 43.1326 12.4818 40.0233L4.66303 47.7704C4.53999 47.8911 4.398 47.9906 4.24275 48.0652C2.94948 48.6814 1.65049 49.29 0.355312 49.9005C0.294182 49.9292 0.236865 49.9655 0.179556 49.9981H0.133711L0 49.8622V49.8163C0.0546438 49.7482 0.103832 49.6759 0.147096 49.6C0.754569 48.3101 1.36267 47.0189 1.97141 45.7265C2.03149 45.5982 2.11288 45.4811 2.21211 45.3801C4.83685 42.7212 7.46097 40.0635 10.0844 37.4072C7.62175 34.1602 6.28971 30.1938 6.29249 26.1158C6.28843 21.5386 7.96361 17.1196 10.9995 13.699L9.14266 11.8579C9.08269 11.8036 9.01885 11.7537 8.95163 11.7086L10.2755 10.3805L10.4187 10.5202L12.2794 12.3823L12.4704 12.2139L10.6671 10.4073C10.5911 10.339 10.5114 10.2751 10.4283 10.2159L11.7655 8.91258L11.7426 8.859L11.947 9.05038L13.905 11.035C17.1165 8.64931 21.0096 7.36352 25.0076 7.36814C29.0136 7.36382 32.9141 8.65451 36.1294 11.0484L38.2823 8.86665L39.5698 10.124L37.5143 12.1852L37.7665 12.4167L39.7914 10.3805L41.0904 11.6819L39.033 13.722C42.053 17.139 43.7187 21.5461 43.7151 26.11C43.7192 30.1793 42.3942 34.1381 39.9423 37.3823C42.5518 40.0233 45.1625 42.6644 47.7745 45.3055C47.9226 45.4542 48.0435 45.6278 48.1317 45.8183C48.7048 47.0527 49.2779 48.2814 49.8625 49.512C49.9026 49.6058 49.9503 49.7072 50 49.8086V49.8182ZM41.0216 31.928C40.9285 31.8889 40.8285 31.8687 40.7276 31.8685C40.6266 31.8684 40.5266 31.8882 40.4333 31.927C40.3401 31.9658 40.2554 32.0228 40.1842 32.0945C40.1131 32.1663 40.0568 32.2515 40.0187 32.3452C39.9799 32.4383 39.9599 32.5381 39.9598 32.639C39.9596 32.7398 39.9794 32.8397 40.0179 32.9329C40.0564 33.0261 40.113 33.1107 40.1842 33.182C40.2555 33.2532 40.3401 33.3096 40.4333 33.348C40.5263 33.3871 40.6261 33.4075 40.727 33.4078C40.8279 33.408 40.9278 33.3883 41.0211 33.3497C41.1143 33.3111 41.199 33.2544 41.2702 33.1828C41.3415 33.1112 41.3979 33.0262 41.4362 32.9327C41.4769 32.8394 41.4986 32.7388 41.5001 32.6369C41.5015 32.5351 41.4826 32.4339 41.4446 32.3395C41.4065 32.245 41.35 32.1591 41.2783 32.0868C41.2067 32.0145 41.1214 31.9572 41.0274 31.9184L41.0216 31.928ZM41.2566 26.11C41.2566 26.313 41.3371 26.5077 41.4804 26.6513C41.6237 26.7949 41.818 26.8755 42.0207 26.8755C42.2234 26.8755 42.4177 26.7949 42.561 26.6513C42.7043 26.5077 42.7848 26.313 42.7848 26.11C42.7848 25.907 42.7043 25.7123 42.561 25.5687C42.4177 25.4251 42.2234 25.3445 42.0207 25.3445C41.8207 25.346 41.6292 25.426 41.4874 25.5673C41.3456 25.7087 41.2648 25.9001 41.2623 26.1004L41.2566 26.11ZM39.9079 19.6031C39.9478 19.6958 40.0056 19.7797 40.0779 19.8499C40.1503 19.9201 40.2358 19.9753 40.3296 20.0123C40.4233 20.0493 40.5234 20.0674 40.6242 20.0655C40.7249 20.0636 40.8243 20.0417 40.9165 20.0012C41.0091 19.9612 41.0928 19.9033 41.1629 19.8308C41.233 19.7583 41.2881 19.6726 41.3251 19.5787C41.362 19.4848 41.38 19.3845 41.3781 19.2836C41.3762 19.1827 41.3544 19.0831 41.3139 18.9907C41.274 18.898 41.2162 18.8141 41.1439 18.7438C41.0715 18.6736 40.986 18.6184 40.8923 18.5814C40.7985 18.5444 40.6984 18.5263 40.5976 18.5283C40.4969 18.5302 40.3975 18.552 40.3053 18.5926C40.2132 18.6331 40.1301 18.6914 40.0606 18.7641C39.9911 18.8368 39.9366 18.9226 39.9002 19.0164C39.8638 19.1103 39.8463 19.2104 39.8486 19.3111C39.8509 19.4118 39.873 19.511 39.9136 19.6031H39.9079ZM36.4942 14.5793C36.5652 14.6508 36.6496 14.7075 36.7426 14.7462C36.8355 14.7849 36.9352 14.8048 37.0358 14.8048C37.1364 14.8048 37.2361 14.7849 37.329 14.7462C37.422 14.7075 37.5064 14.6508 37.5774 14.5793C37.7143 14.442 37.794 14.2577 37.8003 14.0637C37.8067 13.8697 37.7393 13.6805 37.6118 13.5344C37.5831 13.5057 37.5544 13.4789 37.5277 13.4502C37.3815 13.3262 37.1942 13.2616 37.0028 13.2694C36.8114 13.2772 36.6299 13.3568 36.4942 13.4923C36.423 13.5638 36.3666 13.6488 36.3283 13.7423C36.29 13.8358 36.2705 13.936 36.2711 14.037C36.2716 14.1381 36.2921 14.238 36.3314 14.3311C36.3707 14.4242 36.428 14.5086 36.5 14.5793H36.4942ZM31.218 11.0465C31.3109 11.0853 31.4106 11.1054 31.5112 11.1055C31.6119 11.1057 31.7117 11.0859 31.8047 11.0473C31.8977 11.0087 31.9822 10.9521 32.0533 10.8807C32.1244 10.8092 32.1807 10.7245 32.219 10.6312C32.2578 10.5381 32.2778 10.4382 32.278 10.3374C32.2781 10.2365 32.2583 10.1366 32.2198 10.0434C32.1813 9.95024 32.1248 9.86559 32.0535 9.79436C31.9822 9.72313 31.8976 9.6667 31.8045 9.62834C31.7114 9.58919 31.6116 9.56889 31.5107 9.5686C31.4098 9.56831 31.3099 9.58805 31.2166 9.62666C31.1234 9.66527 31.0387 9.72198 30.9675 9.79355C30.8962 9.86512 30.8398 9.95013 30.8016 10.0436C30.763 10.1372 30.7433 10.2375 30.7437 10.3387C30.7441 10.4399 30.7645 10.54 30.8038 10.6333C30.843 10.7266 30.9004 10.8111 30.9724 10.882C31.0445 10.9529 31.1299 11.0088 31.2237 11.0465H31.218ZM24.2263 9.0389C24.2263 9.24193 24.3068 9.43664 24.4501 9.5802C24.5934 9.72377 24.7878 9.80442 24.9904 9.80442C25.1931 9.80442 25.3875 9.72377 25.5308 9.5802C25.6741 9.43664 25.7546 9.24193 25.7546 9.0389C25.7546 8.83587 25.6741 8.64115 25.5308 8.49759C25.3875 8.35403 25.1931 8.27338 24.9904 8.27338C24.7888 8.27489 24.5959 8.35621 24.4538 8.49961C24.3118 8.64301 24.2321 8.83686 24.2321 9.0389H24.2263ZM17.7657 10.6312C17.804 10.7247 17.8604 10.8097 17.9316 10.8813C18.0029 10.9528 18.0876 11.0096 18.1808 11.0482C18.274 11.0868 18.374 11.1065 18.4749 11.1062C18.5758 11.1059 18.6756 11.0856 18.7686 11.0465C18.8617 11.0081 18.9464 10.9517 19.0176 10.8805C19.0889 10.8092 19.1454 10.7246 19.184 10.6314C19.2225 10.5382 19.2423 10.4383 19.2421 10.3374C19.242 10.2366 19.2219 10.1367 19.1832 10.0436C19.1449 9.95036 19.0885 9.86557 19.0174 9.79416C18.9463 9.72275 18.8619 9.66613 18.7688 9.62753C18.6758 9.58894 18.5761 9.56914 18.4754 9.56928C18.3747 9.56942 18.2751 9.58949 18.1822 9.62834C18.0889 9.66652 18.004 9.72282 17.9326 9.79397C17.8611 9.86513 17.8044 9.94975 17.7657 10.043C17.727 10.1362 17.707 10.2361 17.7071 10.3371C17.7071 10.438 17.727 10.538 17.7657 10.6312ZM12.4169 14.5793C12.4879 14.6511 12.5724 14.7081 12.6656 14.7469C12.7587 14.7858 12.8585 14.8058 12.9594 14.8058C13.0603 14.8058 13.1602 14.7858 13.2533 14.7469C13.3464 14.7081 13.4309 14.6511 13.502 14.5793C13.5736 14.5082 13.6304 14.4235 13.6692 14.3302C13.708 14.2369 13.728 14.1369 13.728 14.0358C13.728 13.9348 13.708 13.8347 13.6692 13.7414C13.6304 13.6481 13.5736 13.5635 13.502 13.4923C13.3656 13.3562 13.1831 13.2767 12.9908 13.2696C12.7985 13.2625 12.6106 13.3284 12.4647 13.454L12.3863 13.5287C12.2566 13.6746 12.1875 13.8647 12.1932 14.0601C12.1989 14.2554 12.2789 14.4412 12.4169 14.5793ZM8.97838 20.2901C9.07129 20.329 9.17096 20.3491 9.27164 20.3492C9.37232 20.3493 9.47202 20.3295 9.56503 20.2909C9.65805 20.2523 9.74256 20.1957 9.81366 20.1243C9.88477 20.0529 9.94107 19.9681 9.97937 19.8748C10.0184 19.7817 10.0387 19.6816 10.039 19.5806C10.0393 19.4795 10.0196 19.3794 9.98105 19.2859C9.94251 19.1925 9.88589 19.1077 9.81446 19.0363C9.74302 18.9649 9.65817 18.9085 9.56483 18.8701C9.4718 18.8313 9.37203 18.8113 9.27126 18.8113C9.1705 18.8113 9.07074 18.8313 8.9777 18.87C8.88466 18.9088 8.80019 18.9657 8.72917 19.0373C8.65814 19.1089 8.60194 19.1939 8.56383 19.2873C8.52506 19.3804 8.50502 19.4802 8.50488 19.5811C8.50474 19.682 8.52452 19.7819 8.56304 19.875C8.60156 19.9682 8.65807 20.0529 8.72935 20.1241C8.80063 20.1954 8.88526 20.2518 8.97838 20.2901ZM8.7415 26.11C8.7415 25.907 8.66098 25.7123 8.51768 25.5687C8.37439 25.4251 8.18004 25.3445 7.97738 25.3445C7.77473 25.3445 7.58036 25.4251 7.43706 25.5687C7.29376 25.7123 7.21327 25.907 7.21327 26.11C7.21327 26.313 7.29376 26.5077 7.43706 26.6513C7.58036 26.7949 7.77473 26.8755 7.97738 26.8755C8.07805 26.8748 8.17758 26.8541 8.27025 26.8147C8.36292 26.7753 8.44691 26.7179 8.51738 26.6459C8.58786 26.5739 8.64344 26.4886 8.68092 26.395C8.7184 26.3014 8.73703 26.2013 8.73576 26.1004L8.7415 26.11ZM10.0902 32.6054C10.0503 32.5127 9.9925 32.4289 9.92014 32.3586C9.84777 32.2884 9.76227 32.2332 9.66852 32.1962C9.57478 32.1592 9.47465 32.1411 9.37391 32.1431C9.27317 32.145 9.17381 32.1668 9.08154 32.2074C8.98877 32.2473 8.90481 32.3053 8.83454 32.3779C8.76427 32.4506 8.70907 32.5364 8.67213 32.6306C8.63518 32.7247 8.61722 32.8253 8.61929 32.9264C8.62136 33.0275 8.64342 33.1272 8.68418 33.2198C8.72406 33.3125 8.78186 33.3964 8.85423 33.4666C8.92659 33.5368 9.01209 33.5921 9.10584 33.629C9.19958 33.666 9.29971 33.6841 9.40045 33.6822C9.50119 33.6803 9.60055 33.6584 9.69282 33.6179C9.78627 33.5774 9.87071 33.5187 9.94119 33.4451C10.0117 33.3716 10.0668 33.2846 10.1033 33.1894C10.1397 33.0942 10.1569 32.9927 10.1536 32.8907C10.1504 32.7888 10.1269 32.6886 10.0844 32.5959L10.0902 32.6054ZM9.28019 40.8941L11.3051 38.854C11.2516 38.7985 11.2 38.743 11.1485 38.6856C9.45085 40.3863 7.75451 42.0883 6.05944 43.7916C5.19599 44.6586 4.37074 45.5657 3.52831 46.4537C3.50454 46.476 3.48905 46.5057 3.48437 46.5379C3.5455 46.4824 3.60854 46.4288 3.6754 46.3733C5.58187 44.5954 7.42723 42.7352 9.27448 40.8846L9.28019 40.8941ZM13.5058 37.6311C13.4347 37.5593 13.3502 37.5024 13.2571 37.4635C13.164 37.4247 13.0641 37.4047 12.9632 37.4047C12.8624 37.4047 12.7625 37.4247 12.6694 37.4635C12.5763 37.5024 12.4918 37.5593 12.4207 37.6311C12.283 37.7695 12.2033 37.9554 12.198 38.1507C12.1926 38.3461 12.2621 38.5361 12.3921 38.6818C12.4112 38.699 12.4284 38.7201 12.4475 38.7392C12.5927 38.873 12.784 38.9453 12.9812 38.941C13.1785 38.9368 13.3664 38.8562 13.5058 38.7162C13.5782 38.6446 13.6356 38.5591 13.6745 38.4649C13.7135 38.3707 13.7334 38.2696 13.7328 38.1677C13.7323 38.0657 13.7114 37.9649 13.6714 37.8711C13.6315 37.7773 13.5732 37.6924 13.5 37.6215L13.5058 37.6311ZM18.7763 41.1506C18.6833 41.1114 18.5834 41.0911 18.4825 41.0908C18.3816 41.0906 18.2817 41.1103 18.1884 41.1489C18.0952 41.1875 18.0105 41.2442 17.9393 41.3158C17.868 41.3874 17.8117 41.4724 17.7734 41.5659C17.7344 41.6592 17.7142 41.7593 17.714 41.8605C17.7138 41.9616 17.7337 42.0618 17.7724 42.1553C17.8112 42.2487 17.868 42.3335 17.9396 42.4048C18.0113 42.4761 18.0963 42.5324 18.1898 42.5706C18.2827 42.6095 18.3824 42.6295 18.4831 42.6297C18.5837 42.6298 18.6834 42.61 18.7765 42.5714C18.8695 42.5328 18.954 42.4762 19.0251 42.4048C19.0962 42.3334 19.1525 42.2486 19.1908 42.1553C19.2299 42.0621 19.2501 41.9621 19.2504 41.861C19.2507 41.76 19.231 41.6598 19.1925 41.5664C19.154 41.473 19.0973 41.3882 19.0259 41.3168C18.9544 41.2454 18.8696 41.1889 18.7763 41.1506ZM25.766 43.1601C25.766 42.957 25.6855 42.7623 25.5422 42.6188C25.3989 42.4752 25.2046 42.3946 25.0019 42.3946C24.7993 42.3946 24.6049 42.4752 24.4616 42.6188C24.3183 42.7623 24.2378 42.957 24.2378 43.1601C24.2378 43.3631 24.3183 43.5578 24.4616 43.7014C24.6049 43.8449 24.7993 43.9256 25.0019 43.9256C25.2042 43.9256 25.3983 43.8452 25.5416 43.7021C25.6848 43.5589 25.7655 43.3647 25.766 43.162V43.1601ZM32.2247 41.5659C32.1864 41.4726 32.1301 41.3878 32.059 41.3164C31.9879 41.245 31.9034 41.1884 31.8104 41.1498C31.7174 41.1112 31.6177 41.0914 31.517 41.0915C31.4163 41.0917 31.3166 41.1117 31.2237 41.1506C31.1302 41.1888 31.0452 41.2451 30.9735 41.3164C30.9019 41.3877 30.8451 41.4725 30.8064 41.5659C30.7676 41.6594 30.7478 41.7596 30.7479 41.8607C30.7481 41.9619 30.7683 42.062 30.8073 42.1553C30.8456 42.2488 30.902 42.3338 30.9732 42.4054C31.0445 42.477 31.1291 42.5337 31.2224 42.5723C31.3156 42.6109 31.4156 42.6307 31.5164 42.6304C31.6173 42.6301 31.7172 42.6098 31.8102 42.5706C31.9033 42.5323 31.9879 42.4758 32.0592 42.4046C32.1305 42.3334 32.187 42.2487 32.2255 42.1555C32.2641 42.0623 32.2838 41.9624 32.2837 41.8616C32.2835 41.7607 32.2635 41.6609 32.2247 41.5678V41.5659ZM40.3511 26.0985C40.3461 22.0214 38.727 18.1128 35.8492 15.23C32.9713 12.3472 29.0696 10.7257 25 10.7211C20.9295 10.7257 17.0271 12.3477 14.1488 15.2312C11.2705 18.1148 9.65153 22.0244 9.64698 26.1024C9.65153 30.1801 11.2706 34.0896 14.1489 36.9728C17.0272 39.8561 20.9297 41.4776 25 41.4817C29.0703 41.4771 32.9726 39.8551 35.8505 36.9715C38.7285 34.0879 40.3471 30.1782 40.3511 26.1004V26.0985ZM36.5 38.7047C36.6399 38.8453 36.829 38.9259 37.0272 38.9295C37.2253 38.933 37.4171 38.8593 37.5621 38.7239L37.6079 38.6741C37.7395 38.5287 37.8103 38.3382 37.8057 38.1419C37.8011 37.9457 37.7214 37.7587 37.5831 37.6196C37.5121 37.5481 37.4277 37.4914 37.3348 37.4528C37.2418 37.4141 37.1422 37.3941 37.0415 37.3941C36.9409 37.3941 36.8412 37.4141 36.7483 37.4528C36.6554 37.4914 36.571 37.5481 36.5 37.6196C36.4283 37.6908 36.3715 37.7754 36.3327 37.8687C36.2939 37.962 36.2739 38.0621 36.2739 38.1631C36.2739 38.2642 36.2939 38.3642 36.3327 38.4575C36.3715 38.5508 36.4283 38.6355 36.5 38.7067V38.7047ZM46.5767 46.5265C46.5328 46.4748 46.4908 46.4193 46.443 46.3695C45.188 45.0452 43.931 43.7208 42.6396 42.429L38.8745 38.6626C38.8229 38.722 38.7694 38.7775 38.7159 38.8349C40.467 40.5892 42.2213 42.3429 43.9788 44.0959C44.8193 44.9265 45.6942 45.7284 46.5767 46.5284V46.5265ZM7.8322 8.01501C7.60679 8.51451 7.37373 9.00828 7.1445 9.50586C7.04516 9.7183 7.04516 9.72021 7.21518 9.88863L8.69566 11.3699C8.7242 11.3966 8.75486 11.4209 8.78735 11.4426L9.76159 10.4685C9.71708 10.3519 9.70656 10.2251 9.73125 10.1028C9.75594 9.98047 9.81482 9.8677 9.90104 9.77762C9.99104 9.68759 10.1049 9.62531 10.2292 9.59817C10.3535 9.57103 10.4829 9.58018 10.6021 9.62452L11.5324 8.6944L9.76542 6.9184C9.22862 7.17294 8.65936 7.43896 8.09391 7.71263C7.97329 7.77872 7.88041 7.88603 7.8322 8.01501ZM7.40238 8.49537C7.49026 8.30399 7.57812 8.11261 7.65644 7.93463C7.6916 7.84863 7.7435 7.7705 7.80909 7.70478C7.87468 7.63907 7.95266 7.58709 8.0385 7.55187C8.22953 7.46766 8.42056 7.37005 8.63643 7.27053C8.39466 6.69501 8.08352 6.15128 7.70994 5.65146L6.6631 8.16237C6.89462 8.29883 7.13985 8.41045 7.39474 8.49537H7.40238ZM11.7598 7.60545C11.9041 7.34263 12.0317 7.07097 12.1418 6.79208C12.2524 6.52648 12.2797 6.23346 12.2201 5.95193C12.1552 5.67443 12.0711 5.40266 11.9852 5.1309C11.9103 4.94926 11.8776 4.75292 11.8897 4.55676C11.8886 4.50365 11.9045 4.4516 11.9351 4.40821C11.9657 4.36481 12.0094 4.33238 12.0597 4.31563C12.0449 4.40041 12.036 4.48608 12.0329 4.57208C12.0299 4.6707 12.0572 4.76789 12.1112 4.85041C12.1652 4.93293 12.2432 4.9968 12.3347 5.03331C12.4274 5.07969 12.532 5.09648 12.6345 5.08142C12.737 5.06637 12.8324 5.02019 12.9078 4.9491C12.985 4.88754 13.0408 4.80313 13.0672 4.70793C13.0936 4.61272 13.0893 4.51159 13.0549 4.41897C13.0258 4.31778 12.9757 4.22388 12.9079 4.14341C12.8401 4.06294 12.7561 3.99772 12.6614 3.95201C12.4843 3.85612 12.2852 3.80865 12.084 3.81436C11.8828 3.82007 11.6866 3.87876 11.5152 3.98454C10.9269 4.31754 10.5601 4.79408 10.5849 5.51558C10.6051 5.90202 10.497 6.28427 10.2774 6.60262C10.2163 6.68683 10.1666 6.77869 10.1226 6.84759L11.4102 8.13749C11.5133 7.96716 11.6528 7.79492 11.7521 7.60545H11.7598ZM5.30297 7.22269C5.33736 7.14614 5.35837 7.10595 5.37557 7.06385L6.495 4.40558C6.51407 4.37363 6.52763 4.3387 6.5351 4.30224C6.54292 4.2598 6.53619 4.21596 6.51601 4.17783C6.32498 3.97114 6.13396 3.76828 5.90855 3.53862C5.46727 4.59695 5.04127 5.61893 4.61336 6.6409L5.30297 7.22269ZM4.31534 6.37297L5.61818 3.26878L4.93237 2.64106C4.493 3.68791 4.06893 4.70222 3.63912 5.72419C3.84855 5.95213 4.07185 6.16688 4.30772 6.36722L4.31534 6.37297ZM6.32306 7.94994C6.35554 7.91932 6.37083 7.91166 6.37656 7.89827C6.72805 7.0715 7.08146 6.24283 7.42722 5.41032C7.43717 5.37843 7.43994 5.34471 7.43531 5.31162C7.43069 5.27852 7.41879 5.24687 7.40047 5.21894C7.23237 4.99694 7.0547 4.78643 6.84648 4.52806C6.4224 5.52707 6.01933 6.47631 5.60862 7.44661L6.32306 7.94994ZM35.7912 26.1062C35.7882 28.9705 34.6511 31.7166 32.6294 33.742C30.6078 35.7674 27.8667 36.9066 25.0076 36.9096C22.1484 36.9066 19.4071 35.7674 17.3852 33.7421C15.3632 31.7168 14.2257 28.9707 14.2221 26.1062C14.2257 23.2415 15.3631 20.4952 17.385 18.4696C19.4069 16.4439 22.1482 15.3044 25.0076 15.3009C27.8646 15.3064 30.6028 16.4461 32.6226 18.4704C34.6424 20.4946 35.779 23.2383 35.7836 26.1004L35.7912 26.1062ZM34.093 25.5052C33.9597 23.5039 33.1691 21.6029 31.8446 20.0988L28.8454 23.0939C29.3895 23.7903 29.7342 24.6218 29.8426 25.4995L34.093 25.5052ZM31.0041 19.2471C29.4998 17.9192 27.5986 17.1284 25.5979 16.9984V21.247C26.4742 21.3534 27.3047 21.6982 27.9991 22.2441L31.0041 19.2471ZM28.2131 26.1062C28.2121 25.2548 27.8741 24.4385 27.2731 23.8365C26.6722 23.2345 25.8575 22.8958 25.0076 22.8948C24.1577 22.8953 23.3426 23.2338 22.7416 23.836C22.1406 24.4381 21.8027 25.2546 21.8022 26.1062C21.8032 26.9576 22.1412 27.7738 22.7421 28.3758C23.3431 28.9779 24.1578 29.3165 25.0076 29.3175C25.8571 29.3145 26.6708 28.9742 27.2702 28.3711C27.8697 27.7681 28.206 26.9515 28.2055 26.1004L28.2131 26.1062ZM24.4078 17.0041C22.4106 17.1344 20.5124 17.9231 19.0093 19.2471L22.0066 22.2499C22.7014 21.7047 23.5317 21.3599 24.4078 21.2528V17.0041ZM19.0093 32.9633C20.5123 34.2879 22.4104 35.0772 24.4078 35.2082V30.9596C23.5318 30.851 22.7017 30.5056 22.0066 29.9606L19.0093 32.9633ZM25.5979 35.2025C27.5954 35.0718 29.4936 34.2824 30.9964 32.9576L27.9991 29.9548C27.3044 30.5006 26.4742 30.846 25.5979 30.9538V35.2025ZM15.9147 25.4995H20.1555C20.2624 24.6218 20.6065 23.79 21.1508 23.0939L18.1478 20.0988C16.8298 21.6034 16.0448 23.5019 15.9147 25.4995ZM18.1478 32.1079L21.145 29.107C20.6004 28.4104 20.2562 27.5779 20.1498 26.6995H15.9089C16.0387 28.7005 16.8259 30.6021 18.1478 32.1079ZM34.0796 26.6995H29.8388C29.7311 27.5773 29.3863 28.4091 28.8416 29.1051L31.8389 32.1079C33.1634 30.6031 33.9533 28.7013 34.0854 26.6995H34.0796Z" fill="#303030"/>
<path d="M71.28 29.5H63.84L62.3 33H60.24L66.58 19H68.56L74.92 33H72.82L71.28 29.5ZM70.58 27.9L67.56 21.04L64.54 27.9H70.58ZM86.6563 25.74C87.6029 25.9667 88.3163 26.3733 88.7963 26.96C89.2896 27.5333 89.5363 28.2733 89.5363 29.18C89.5363 30.3933 89.0896 31.3333 88.1963 32C87.3163 32.6667 86.0296 33 84.3363 33H77.9363V19H83.9563C85.4896 19 86.6829 19.3133 87.5363 19.94C88.4029 20.5533 88.8363 21.44 88.8363 22.6C88.8363 23.36 88.6429 24.0067 88.2563 24.54C87.8829 25.0733 87.3496 25.4733 86.6563 25.74ZM79.9163 25.16H83.8163C84.7896 25.16 85.5296 24.9667 86.0363 24.58C86.5563 24.1933 86.8163 23.6267 86.8163 22.88C86.8163 22.1333 86.5563 21.5667 86.0363 21.18C85.5163 20.78 84.7763 20.58 83.8163 20.58H79.9163V25.16ZM84.2963 31.42C86.4429 31.42 87.5163 30.62 87.5163 29.02C87.5163 28.22 87.2429 27.6333 86.6963 27.26C86.1629 26.8733 85.3629 26.68 84.2963 26.68H79.9163V31.42H84.2963ZM102.902 20.74H98.1023V33H96.1423V20.74H91.3623V19H102.902V20.74ZM112.038 33.16C110.624 33.16 109.351 32.8533 108.218 32.24C107.084 31.6133 106.191 30.7533 105.538 29.66C104.898 28.5667 104.578 27.3467 104.578 26C104.578 24.6533 104.898 23.4333 105.538 22.34C106.191 21.2467 107.084 20.3933 108.218 19.78C109.351 19.1533 110.624 18.84 112.038 18.84C113.438 18.84 114.704 19.1533 115.838 19.78C116.971 20.3933 117.858 21.2467 118.498 22.34C119.138 23.42 119.458 24.64 119.458 26C119.458 27.36 119.138 28.5867 118.498 29.68C117.858 30.76 116.971 31.6133 115.838 32.24C114.704 32.8533 113.438 33.16 112.038 33.16ZM112.038 31.38C113.064 31.38 113.984 31.1467 114.798 30.68C115.624 30.2133 116.271 29.5733 116.738 28.76C117.218 27.9333 117.458 27.0133 117.458 26C117.458 24.9867 117.218 24.0733 116.738 23.26C116.271 22.4333 115.624 21.7867 114.798 21.32C113.984 20.8533 113.064 20.62 112.038 20.62C111.011 20.62 110.078 20.8533 109.238 21.32C108.411 21.7867 107.758 22.4333 107.278 23.26C106.811 24.0733 106.578 24.9867 106.578 26C106.578 27.0133 106.811 27.9333 107.278 28.76C107.758 29.5733 108.411 30.2133 109.238 30.68C110.078 31.1467 111.011 31.38 112.038 31.38ZM138.422 20.74H131.222L131.242 33H129.262V19H138.442L138.422 20.74ZM147.868 29.5H140.428L138.888 33H136.828L143.168 19H145.148L151.508 33H149.408L147.868 29.5ZM147.168 27.9L144.148 21.04L141.128 27.9H147.168ZM159.985 19C161.798 19 163.225 19.4333 164.265 20.3C165.305 21.1667 165.825 22.36 165.825 23.88C165.825 25.4 165.305 26.5933 164.265 27.46C163.225 28.3267 161.798 28.76 159.985 28.76H156.525V33H154.525V19H159.985ZM159.925 27.02C161.191 27.02 162.158 26.7533 162.825 26.22C163.491 25.6733 163.825 24.8933 163.825 23.88C163.825 22.8667 163.491 22.0933 162.825 21.56C162.158 21.0133 161.191 20.74 159.925 20.74H156.525V27.02H159.925ZM181.98 31.26V36.06H180.12V33H168.6L168.58 36.06H166.72L166.74 31.26H167.42C168.3 31.2067 168.92 30.5133 169.28 29.18C169.64 27.8333 169.86 25.94 169.94 23.5L170.08 19H179.92V31.26H181.98ZM171.7 23.68C171.633 25.6533 171.473 27.2867 171.22 28.58C170.98 29.8733 170.587 30.7667 170.04 31.26H177.94V20.74H171.8L171.7 23.68Z" fill="#303030"/>
</svg>
