<svg width="49" height="49" viewBox="0 0 49 49" fill="none" xmlns="http://www.w3.org/2000/svg">
<path fill-rule="evenodd" clip-rule="evenodd" d="M31.6707 24.2636C32.2565 24.8493 32.2565 25.7991 31.6707 26.3849L23.504 34.5515C23.2227 34.8329 22.8412 34.9909 22.4434 34.9909C22.0455 34.9909 21.664 34.8329 21.3827 34.5515L18.3202 31.489C17.7344 30.9033 17.7344 29.9535 18.3202 29.3677C18.906 28.7819 19.8557 28.7819 20.4415 29.3677L22.4434 31.3696L29.5494 24.2636C30.1352 23.6778 31.0849 23.6778 31.6707 24.2636Z" fill="black"/>
<path fill-rule="evenodd" clip-rule="evenodd" d="M20.6482 3.0003C20.6979 3.00043 20.746 3.00057 20.7923 3.00057H28.959C29.0053 3.00057 29.0534 3.00043 29.1031 3.0003C30.0087 2.99781 31.4448 2.99386 32.5983 3.76291C33.9826 4.68574 34.5423 6.34414 34.5423 8.5839C34.5423 8.63024 34.5424 8.67832 34.5426 8.72799C34.5451 9.63359 34.549 11.0697 33.78 12.2232C32.8571 13.6075 31.1987 14.1672 28.959 14.1672H20.7923C20.746 14.1672 20.6979 14.1674 20.6482 14.1675C19.7426 14.17 18.3065 14.1739 17.153 13.4049C15.7687 12.4821 15.209 10.8237 15.209 8.5839C15.209 6.34414 15.7687 4.68574 17.153 3.76291C18.3065 2.99386 19.7426 2.99781 20.6482 3.0003ZM18.8171 6.25906C18.6701 6.35706 18.209 6.74033 18.209 8.5839C18.209 10.4275 18.6701 10.8107 18.8171 10.9087C19.1315 11.1183 19.642 11.1672 20.7923 11.1672H28.959C30.8026 11.1672 31.1858 10.7061 31.2838 10.5591C31.4934 10.2447 31.5423 9.73426 31.5423 8.5839C31.5423 6.74033 31.0812 6.35706 30.9342 6.25906C30.6198 6.04945 30.1093 6.00057 28.959 6.00057H20.7923C19.642 6.00057 19.1315 6.04945 18.8171 6.25906Z" fill="black"/>
<path fill-rule="evenodd" clip-rule="evenodd" d="M18.2061 8.54212C18.2509 9.36934 17.6165 10.0762 16.7893 10.1209C13.5076 10.2983 11.4535 10.988 10.1564 12.3921C8.84259 13.8143 8 16.2988 8 20.8323V33.0823C8 37.1391 8.53306 39.6904 9.92574 41.282C11.2751 42.8241 13.7752 43.8323 18.75 43.8323H31C35.9748 43.8323 38.4749 42.8241 39.8243 41.282C41.2169 39.6904 41.75 37.1391 41.75 33.0823V20.8323C41.75 16.2876 40.907 13.8042 39.5943 12.3852C38.298 10.984 36.2448 10.2984 32.9607 10.1209C32.1335 10.0762 31.4991 9.36934 31.5439 8.54212C31.5886 7.7149 32.2954 7.08056 33.1226 7.12527C36.6373 7.31525 39.6882 8.06906 41.7965 10.348C43.8882 12.609 44.75 16.0465 44.75 20.8323V33.0823C44.75 37.1921 44.2622 40.7658 42.082 43.2575C39.8584 45.7988 36.2335 46.8323 31 46.8323H18.75C13.5165 46.8323 9.8916 45.7988 7.66801 43.2575C5.48778 40.7658 5 37.1921 5 33.0823V20.8323C5 16.0557 5.8622 12.6194 7.95284 10.3564C10.0602 8.07522 13.1103 7.31539 16.6274 7.12527C17.4546 7.08056 18.1614 7.7149 18.2061 8.54212Z" fill="black"/>
</svg>
