<svg width="49" height="49" viewBox="0 0 49 49" fill="none" xmlns="http://www.w3.org/2000/svg">
<path fill-rule="evenodd" clip-rule="evenodd" d="M14.4648 31.7461C15.2933 31.7461 15.9648 32.4177 15.9648 33.2461V37.4723C15.9648 38.3008 15.2933 38.9723 14.4648 38.9723C13.6364 38.9723 12.9648 38.3008 12.9648 37.4723V33.2461C12.9648 32.4177 13.6364 31.7461 14.4648 31.7461Z" fill="black"/>
<path fill-rule="evenodd" clip-rule="evenodd" d="M24.916 27.5195C25.7444 27.5195 26.416 28.1911 26.416 29.0195V37.472C26.416 38.3005 25.7444 38.972 24.916 38.972C24.0876 38.972 23.416 38.3005 23.416 37.472V29.0195C23.416 28.1911 24.0876 27.5195 24.916 27.5195Z" fill="black"/>
<path fill-rule="evenodd" clip-rule="evenodd" d="M35.3672 23.2734C36.1956 23.2734 36.8672 23.945 36.8672 24.7734V37.4726C36.8672 38.301 36.1956 38.9726 35.3672 38.9726C34.5388 38.9726 33.8672 38.301 33.8672 37.4726V24.7734C33.8672 23.945 34.5388 23.2734 35.3672 23.2734Z" fill="black"/>
<path fill-rule="evenodd" clip-rule="evenodd" d="M36.3446 11.2175C36.9752 11.7547 37.0509 12.7015 36.5137 13.3321L35.5724 14.4371C30.1627 20.7591 22.9083 25.2343 14.8281 27.249C14.0243 27.4494 13.2102 26.9603 13.0098 26.1565C12.8093 25.3527 13.2985 24.5386 14.1023 24.3381C21.5792 22.4738 28.2894 18.3336 33.2921 12.4877C33.2924 12.4874 33.2927 12.487 33.293 12.4867L34.23 11.3867C34.7672 10.7561 35.7139 10.6803 36.3446 11.2175Z" fill="black"/>
<path fill-rule="evenodd" clip-rule="evenodd" d="M27.8867 12.3594C27.8867 11.5309 28.5583 10.8594 29.3867 10.8594H35.3688C36.1972 10.8594 36.8688 11.5309 36.8688 12.3594V18.321C36.8688 19.1495 36.1972 19.821 35.3688 19.821C34.5404 19.821 33.8688 19.1495 33.8688 18.321V13.8594H29.3867C28.5583 13.8594 27.8867 13.1878 27.8867 12.3594Z" fill="black"/>
<path fill-rule="evenodd" clip-rule="evenodd" d="M6.75705 6.75705C9.47286 4.04124 13.5396 3 18.7917 3H31.0417C36.2938 3 40.3605 4.04124 43.0763 6.75705C45.7921 9.47286 46.8333 13.5396 46.8333 18.7917V31.0417C46.8333 36.2938 45.7921 40.3605 43.0763 43.0763C40.3605 45.7921 36.2938 46.8333 31.0417 46.8333H18.7917C13.5396 46.8333 9.47286 45.7921 6.75705 43.0763C4.04124 40.3605 3 36.2938 3 31.0417V18.7917C3 13.5396 4.04124 9.47286 6.75705 6.75705ZM8.87837 8.87837C7.00043 10.7563 6 13.8354 6 18.7917V31.0417C6 35.9979 7.00043 39.077 8.87837 40.955C10.7563 42.8329 13.8354 43.8333 18.7917 43.8333H31.0417C35.9979 43.8333 39.077 42.8329 40.955 40.955C42.8329 39.077 43.8333 35.9979 43.8333 31.0417V18.7917C43.8333 13.8354 42.8329 10.7563 40.955 8.87837C39.077 7.00043 35.9979 6 31.0417 6H18.7917C13.8354 6 10.7563 7.00043 8.87837 8.87837Z" fill="black"/>
</svg>
