<svg width="49" height="49" viewBox="0 0 49 49" fill="none" xmlns="http://www.w3.org/2000/svg">
<path fill-rule="evenodd" clip-rule="evenodd" d="M7.37519 7.37519C6.49167 8.25871 6 9.93118 6 13.565V26.5092C6 30.1437 6.49195 31.8148 7.3742 32.6954C8.256 33.5756 9.92674 34.064 13.5608 34.0538L13.565 34.0537L36.2683 34.0537C39.905 34.0537 41.5764 33.5663 42.4591 32.6852C43.3412 31.8049 43.8333 30.1342 43.8333 26.4888V13.565C43.8333 9.93104 43.3416 8.25951 42.4566 7.37619C41.5706 6.49185 39.8927 6 36.2479 6H13.565C9.93118 6 8.25871 6.49167 7.37519 7.37519ZM5.25387 5.25387C7.09087 3.41687 9.9509 3 13.565 3H36.2479C39.8715 3 42.7363 3.4167 44.5759 5.25288C46.4166 7.09008 46.8333 9.95104 46.8333 13.565V26.4888C46.8333 30.1116 46.417 32.9735 44.5785 34.8085C42.7407 36.6428 39.8796 37.0537 36.2683 37.0537L13.5692 37.0537C13.5688 37.0537 13.5683 37.0537 13.5679 37.0537C9.95462 37.0638 7.09336 36.6538 5.25487 34.8187C3.41659 32.9839 3 30.1225 3 26.5092V13.565C3 9.9509 3.41687 7.09087 5.25387 5.25387Z" fill="black"/>
<path fill-rule="evenodd" clip-rule="evenodd" d="M24.916 34.0762C25.7444 34.0762 26.416 34.7477 26.416 35.5762V45.3353C26.416 46.1638 25.7444 46.8353 24.916 46.8353C24.0876 46.8353 23.416 46.1638 23.416 45.3353V35.5762C23.416 34.7477 24.0876 34.0762 24.916 34.0762Z" fill="black"/>
<path fill-rule="evenodd" clip-rule="evenodd" d="M3 26.959C3 26.1306 3.67157 25.459 4.5 25.459H45.3333C46.1618 25.459 46.8333 26.1306 46.8333 26.959C46.8333 27.7874 46.1618 28.459 45.3333 28.459H4.5C3.67157 28.459 3 27.7874 3 26.959Z" fill="black"/>
<path fill-rule="evenodd" clip-rule="evenodd" d="M14.2285 45.334C14.2285 44.5056 14.9001 43.834 15.7285 43.834H34.1035C34.9319 43.834 35.6035 44.5056 35.6035 45.334C35.6035 46.1624 34.9319 46.834 34.1035 46.834H15.7285C14.9001 46.834 14.2285 46.1624 14.2285 45.334Z" fill="black"/>
</svg>
