<svg width="49" height="49" viewBox="0 0 49 49" fill="none" xmlns="http://www.w3.org/2000/svg">
<path fill-rule="evenodd" clip-rule="evenodd" d="M22.875 6C13.5563 6 6 13.5563 6 22.875C6 32.1937 13.5563 39.75 22.875 39.75C32.1937 39.75 39.75 32.1937 39.75 22.875C39.75 22.0466 40.4216 21.375 41.25 21.375C42.0784 21.375 42.75 22.0466 42.75 22.875C42.75 33.8505 33.8505 42.75 22.875 42.75C11.8995 42.75 3 33.8505 3 22.875C3 11.8995 11.8995 3 22.875 3C23.7034 3 24.375 3.67157 24.375 4.5C24.375 5.32843 23.7034 6 22.875 6Z" fill="black"/>
<path fill-rule="evenodd" clip-rule="evenodd" d="M41.9713 37.1349C40.4086 37.123 39.0053 37.7393 38.1497 38.9271C37.2949 40.1139 37.151 41.6429 37.6414 43.1274L37.6418 43.1287C38.2567 44.9851 39.4545 46.5627 41.2858 46.8081C43.1169 47.0535 44.6868 45.8472 45.7664 44.222L45.7665 44.2218C46.7915 42.6782 47.2217 40.8727 46.3931 39.3254C45.565 37.7789 43.8257 37.1364 41.9713 37.1349ZM40.584 40.6805C40.3874 40.9534 40.2454 41.4455 40.4898 42.186C40.9569 43.5957 41.5353 43.8147 41.6843 43.8347C41.8336 43.8547 42.4483 43.7952 43.2674 42.5622M40.584 40.6805C40.7786 40.4102 41.1896 40.1282 41.9517 40.1349ZM43.7484 40.7416C43.6536 40.5646 43.2522 40.1349 41.9649 40.1349H41.9517L41.9517 40.1349M43.7484 40.7416C43.8437 40.9195 43.9777 41.4924 43.2675 42.562Z" fill="black"/>
<path fill-rule="evenodd" clip-rule="evenodd" d="M27.5 10.625C27.5 9.79657 28.1716 9.125 29 9.125H41.25C42.0784 9.125 42.75 9.79657 42.75 10.625C42.75 11.4534 42.0784 12.125 41.25 12.125H29C28.1716 12.125 27.5 11.4534 27.5 10.625Z" fill="black"/>
<path fill-rule="evenodd" clip-rule="evenodd" d="M27.5 16.75C27.5 15.9216 28.1716 15.25 29 15.25H35.125C35.9534 15.25 36.625 15.9216 36.625 16.75C36.625 17.5784 35.9534 18.25 35.125 18.25H29C28.1716 18.25 27.5 17.5784 27.5 16.75Z" fill="black"/>
</svg>
