<svg width="49" height="49" viewBox="0 0 49 49" fill="none" xmlns="http://www.w3.org/2000/svg">
<path fill-rule="evenodd" clip-rule="evenodd" d="M21.334 40.166C21.334 39.3376 22.0056 38.666 22.834 38.666H43.2506C44.0791 38.666 44.7506 39.3376 44.7506 40.166C44.7506 40.9944 44.0791 41.666 43.2506 41.666H22.834C22.0056 41.666 21.334 40.9944 21.334 40.166Z" fill="black"/>
<path fill-rule="evenodd" clip-rule="evenodd" d="M21.334 25.875C21.334 25.0466 22.0056 24.375 22.834 24.375H43.2506C44.0791 24.375 44.7506 25.0466 44.7506 25.875C44.7506 26.7034 44.0791 27.375 43.2506 27.375H22.834C22.0056 27.375 21.334 26.7034 21.334 25.875Z" fill="black"/>
<path fill-rule="evenodd" clip-rule="evenodd" d="M21.334 11.584C21.334 10.7556 22.0056 10.084 22.834 10.084H43.2506C44.0791 10.084 44.7506 10.7556 44.7506 11.584C44.7506 12.4124 44.0791 13.084 43.2506 13.084H22.834C22.0056 13.084 21.334 12.4124 21.334 11.584Z" fill="black"/>
<path fill-rule="evenodd" clip-rule="evenodd" d="M15.7273 6.43934C16.3131 7.02513 16.3131 7.97487 15.7273 8.56066L9.60233 14.6857C9.01654 15.2714 8.06679 15.2714 7.48101 14.6857L5.43934 12.644C4.85355 12.0582 4.85355 11.1085 5.43934 10.5227C6.02513 9.93689 6.97487 9.93689 7.56066 10.5227L8.54167 11.5037L13.606 6.43934C14.1918 5.85355 15.1415 5.85355 15.7273 6.43934Z" fill="black"/>
<path fill-rule="evenodd" clip-rule="evenodd" d="M15.7273 20.7304C16.3131 21.3161 16.3131 22.2659 15.7273 22.8517L9.60233 28.9767C9.01654 29.5625 8.06679 29.5625 7.48101 28.9767L5.43934 26.935C4.85355 26.3492 4.85355 25.3995 5.43934 24.8137C6.02513 24.2279 6.97487 24.2279 7.56066 24.8137L8.54167 25.7947L13.606 20.7304C14.1918 20.1446 15.1415 20.1446 15.7273 20.7304Z" fill="black"/>
<path fill-rule="evenodd" clip-rule="evenodd" d="M15.7273 35.0233C16.3131 35.6091 16.3131 36.5589 15.7273 37.1446L9.60233 43.2696C9.01654 43.8554 8.06679 43.8554 7.48101 43.2696L5.43934 41.228C4.85355 40.6422 4.85355 39.6924 5.43934 39.1067C6.02513 38.5209 6.97487 38.5209 7.56066 39.1067L8.54167 40.0877L13.606 35.0233C14.1918 34.4375 15.1415 34.4375 15.7273 35.0233Z" fill="black"/>
</svg>
