<svg width="49" height="49" viewBox="0 0 49 49" fill="none" xmlns="http://www.w3.org/2000/svg">
<path fill-rule="evenodd" clip-rule="evenodd" d="M16.7706 6C14.9285 6 13.4318 7.50889 13.4318 9.33875C13.4318 10.2619 13.7997 11.1002 14.4094 11.696L14.4216 11.7081C15.0215 12.3079 15.8662 12.6775 16.791 12.6775H17.4035C17.9103 12.6775 18.3829 12.9335 18.6598 13.358C18.9368 13.7825 18.9805 14.3182 18.7762 14.7821L10.0986 34.4855C8.78422 37.4621 8.72163 39.7697 9.53384 41.2389C10.3004 42.6255 12.1808 43.8333 16.1989 43.8333H31.8585C35.8312 43.8333 37.7201 42.6327 38.4996 41.2415C39.3222 39.7735 39.2789 37.4712 37.9776 34.5022L29.361 14.778C29.1584 14.3142 29.2033 13.7796 29.4804 13.3561C29.7575 12.9327 30.2295 12.6775 30.7356 12.6775H31.0622C32.7346 12.6775 34.182 11.6099 34.5464 10.165C34.8424 8.92957 34.4515 7.78519 33.6562 6.98983C33.0423 6.37595 32.2127 6 31.2868 6H16.7706ZM10.4318 9.33875C10.4318 5.86028 13.2634 3 16.7706 3H31.2868C33.0559 3 34.6355 3.72655 35.7775 4.86851C37.2675 6.35853 38.0199 8.56008 37.4612 10.8749L37.4583 10.8867C36.8804 13.1983 35.0498 14.8196 32.9153 15.4203L40.7252 33.2978C40.7254 33.2981 40.7255 33.2985 40.7256 33.2988C42.1802 36.6178 42.6165 40.0317 41.1168 42.708C39.5739 45.4614 36.3383 46.8333 31.8585 46.8333H16.1989C11.6828 46.8333 8.43863 45.4584 6.90833 42.6903C5.42377 40.0049 5.89183 36.5859 7.35388 33.2744C7.35399 33.2742 7.35376 33.2747 7.35388 33.2744L15.1927 15.4758C14.091 15.1923 13.0947 14.6216 12.3064 13.8355C11.1232 12.6759 10.4318 11.0668 10.4318 9.33875Z" fill="black"/>
</svg>
