<svg width="49" height="49" viewBox="0 0 49 49" fill="none" xmlns="http://www.w3.org/2000/svg">
<path fill-rule="evenodd" clip-rule="evenodd" d="M29.5126 7.05363C28.898 7.66829 28.459 8.78232 28.459 10.9312V18.4854C28.459 20.6343 28.898 21.7484 29.5126 22.363C30.1273 22.9777 31.2413 23.4167 33.3902 23.4167H38.9027C41.0517 23.4167 42.1657 22.9777 42.7804 22.363C43.395 21.7484 43.834 20.6343 43.834 18.4854V10.9312C43.834 8.78232 43.395 7.66829 42.7804 7.05363C42.1657 6.43897 41.0517 6 38.9027 6H33.3902C31.2413 6 30.1273 6.43897 29.5126 7.05363ZM27.3913 4.93231C28.8438 3.47978 30.9454 3 33.3902 3H38.9027C41.3476 3 43.4491 3.47978 44.9017 4.93231C46.3542 6.38484 46.834 8.48643 46.834 10.9312V18.4854C46.834 20.9302 46.3542 23.0318 44.9017 24.4844C43.4491 25.9369 41.3476 26.4167 38.9027 26.4167H33.3902C30.9454 26.4167 28.8438 25.9369 27.3913 24.4844C25.9388 23.0318 25.459 20.9302 25.459 18.4854V10.9312C25.459 8.48643 25.9388 6.38484 27.3913 4.93231Z" fill="black"/>
<path fill-rule="evenodd" clip-rule="evenodd" d="M7.05363 27.4706C6.43897 28.0853 6 29.1993 6 31.3482V38.9024C6 41.0513 6.43897 42.1654 7.05363 42.78C7.66829 43.3947 8.78232 43.8337 10.9313 43.8337H16.4438C18.5927 43.8337 19.7067 43.3947 20.3214 42.78C20.936 42.1654 21.375 41.0513 21.375 38.9024V31.3482C21.375 29.1993 20.936 28.0853 20.3214 27.4706C19.7067 26.856 18.5927 26.417 16.4438 26.417H10.9313C8.78232 26.417 7.66829 26.856 7.05363 27.4706ZM4.93231 25.3493C6.38484 23.8968 8.48643 23.417 10.9313 23.417H16.4438C18.8886 23.417 20.9902 23.8968 22.4427 25.3493C23.8952 26.8018 24.375 28.9034 24.375 31.3482V38.9024C24.375 41.3472 23.8952 43.4488 22.4427 44.9014C20.9902 46.3539 18.8886 46.8337 16.4438 46.8337H10.9313C8.48643 46.8337 6.38484 46.3539 4.93231 44.9014C3.47978 43.4488 3 41.3472 3 38.9024V31.3482C3 28.9034 3.47978 26.8018 4.93231 25.3493Z" fill="black"/>
<path fill-rule="evenodd" clip-rule="evenodd" d="M45.3327 29.542C46.1611 29.542 46.8327 30.2136 46.8327 31.042C46.8327 39.7717 39.7707 46.8337 31.041 46.8337C30.5006 46.8337 30.002 46.543 29.7357 46.0727C29.4695 45.6024 29.4767 45.0253 29.7548 44.5619L31.8985 40.989C32.3247 40.2786 33.2461 40.0483 33.9565 40.4745C34.6669 40.9007 34.8972 41.8221 34.471 42.5325L33.8793 43.5186C39.5828 42.2301 43.8327 37.1391 43.8327 31.042C43.8327 30.2136 44.5043 29.542 45.3327 29.542Z" fill="black"/>
<path fill-rule="evenodd" clip-rule="evenodd" d="M15.9534 6.31503C10.2499 7.60358 6 12.6945 6 18.7917C6 19.6201 5.32843 20.2917 4.5 20.2917C3.67157 20.2917 3 19.6201 3 18.7917C3 10.062 10.062 3 18.7917 3C19.3321 3 19.8307 3.29069 20.097 3.76095C20.3632 4.23121 20.3559 4.80835 20.0779 5.27174L17.9342 8.84466C17.5079 9.55503 16.5865 9.78538 15.8762 9.35916C15.1658 8.93293 14.9355 8.01154 15.3617 7.30117L15.9534 6.31503Z" fill="black"/>
</svg>
