<svg width="60" height="60" viewBox="0 0 60 60" fill="none" xmlns="http://www.w3.org/2000/svg">
<g filter="url(#filter0_i_702_11492)">
<path d="M29.9422 39.187L27.7549 42.1206L29.9422 52.9185L32.1295 42.1206L29.9422 39.187Z" fill="#929292"/>
<path d="M29.9422 39.187L27.7549 42.1206L29.9422 52.9185L32.1295 42.1206L29.9422 39.187Z" fill="url(#paint0_linear_702_11492)"/>
</g>
<g filter="url(#filter1_i_702_11492)">
<path d="M52.138 37.2774C51.1287 36.2681 50.0521 35.3508 48.9201 34.5259L32.5234 58.0305H59.9998V56.2581H59.9999C59.9999 49.0882 57.2078 42.3474 52.138 37.2774ZM54.8545 52.0601H43.3267V48.515H54.8545V52.0601Z" fill="#929292"/>
<path d="M52.138 37.2774C51.1287 36.2681 50.0521 35.3508 48.9201 34.5259L32.5234 58.0305H59.9998V56.2581H59.9999C59.9999 49.0882 57.2078 42.3474 52.138 37.2774ZM54.8545 52.0601H43.3267V48.515H54.8545V52.0601Z" fill="url(#paint1_linear_702_11492)"/>
</g>
<g filter="url(#filter2_i_702_11492)">
<path d="M11.1101 34.5039C9.96703 35.3343 8.88023 36.2589 7.86199 37.2773C2.79211 42.3472 0 49.0879 0 56.2578V58.0302H27.3604L11.1101 34.5039Z" fill="#929292"/>
<path d="M11.1101 34.5039C9.96703 35.3343 8.88023 36.2589 7.86199 37.2773C2.79211 42.3472 0 49.0879 0 56.2578V58.0302H27.3604L11.1101 34.5039Z" fill="url(#paint2_linear_702_11492)"/>
</g>
<g filter="url(#filter3_i_702_11492)">
<path d="M45.9188 32.6296C43.7534 31.4563 41.4369 30.5902 39.0234 30.0549C42.9401 27.2399 45.4961 22.6454 45.4961 17.4648C45.4961 16.1194 45.3234 14.8135 44.9995 13.5679H36.2238C35.4509 16.2774 32.9546 18.2676 30.0006 18.2676C27.0465 18.2676 24.5501 16.2774 23.7773 13.5679H15.0016C14.6779 14.8135 14.5051 16.1194 14.5051 17.4648C14.5051 22.6454 17.0611 27.2399 20.9777 30.0549C18.5764 30.5875 16.2713 31.4474 14.1152 32.6115L25.4207 48.4517L23.9662 41.2713L27.8259 36.0949L25.6543 32.3391C27.034 32.7429 28.4923 32.9604 30.0006 32.9604C31.4633 32.9604 32.8792 32.7566 34.2217 32.376L32.077 36.1191L35.9188 41.2715L34.4003 48.7685L45.9188 32.6296Z" fill="#929292"/>
<path d="M45.9188 32.6296C43.7534 31.4563 41.4369 30.5902 39.0234 30.0549C42.9401 27.2399 45.4961 22.6454 45.4961 17.4648C45.4961 16.1194 45.3234 14.8135 44.9995 13.5679H36.2238C35.4509 16.2774 32.9546 18.2676 30.0006 18.2676C27.0465 18.2676 24.5501 16.2774 23.7773 13.5679H15.0016C14.6779 14.8135 14.5051 16.1194 14.5051 17.4648C14.5051 22.6454 17.0611 27.2399 20.9777 30.0549C18.5764 30.5875 16.2713 31.4474 14.1152 32.6115L25.4207 48.4517L23.9662 41.2713L27.8259 36.0949L25.6543 32.3391C27.034 32.7429 28.4923 32.9604 30.0006 32.9604C31.4633 32.9604 32.8792 32.7566 34.2217 32.376L32.077 36.1191L35.9188 41.2715L34.4003 48.7685L45.9188 32.6296Z" fill="url(#paint3_linear_702_11492)"/>
</g>
<g filter="url(#filter4_i_702_11492)">
<path d="M30.0004 8.86865C28.3864 8.86865 27.0732 10.1817 27.0732 11.7958C27.0732 13.4098 28.3864 14.7229 30.0004 14.7229C31.6143 14.7229 32.9275 13.4098 32.9275 11.7958C32.9275 10.1817 31.6143 8.86865 30.0004 8.86865Z" fill="#929292"/>
<path d="M30.0004 8.86865C28.3864 8.86865 27.0732 10.1817 27.0732 11.7958C27.0732 13.4098 28.3864 14.7229 30.0004 14.7229C31.6143 14.7229 32.9275 13.4098 32.9275 11.7958C32.9275 10.1817 31.6143 8.86865 30.0004 8.86865Z" fill="url(#paint4_linear_702_11492)"/>
</g>
<g filter="url(#filter5_i_702_11492)">
<path d="M30 1.96924C24.1511 1.96924 19.0493 5.22693 16.4121 10.0228H23.7766C24.5496 7.31346 27.0459 5.32326 30 5.32326C32.9541 5.32326 35.4505 7.31346 36.2232 10.0229H43.5878C40.9507 5.22705 35.8489 1.96924 30 1.96924Z" fill="#929292"/>
<path d="M30 1.96924C24.1511 1.96924 19.0493 5.22693 16.4121 10.0228H23.7766C24.5496 7.31346 27.0459 5.32326 30 5.32326C32.9541 5.32326 35.4505 7.31346 36.2232 10.0229H43.5878C40.9507 5.22705 35.8489 1.96924 30 1.96924Z" fill="url(#paint5_linear_702_11492)"/>
</g>
<defs>
<filter id="filter0_i_702_11492" x="27.7549" y="39.187" width="4.375" height="14.7314" filterUnits="userSpaceOnUse" color-interpolation-filters="sRGB">
<feFlood flood-opacity="0" result="BackgroundImageFix"/>
<feBlend mode="normal" in="SourceGraphic" in2="BackgroundImageFix" result="shape"/>
<feColorMatrix in="SourceAlpha" type="matrix" values="0 0 0 0 0 0 0 0 0 0 0 0 0 0 0 0 0 0 127 0" result="hardAlpha"/>
<feOffset dy="1"/>
<feGaussianBlur stdDeviation="1"/>
<feComposite in2="hardAlpha" operator="arithmetic" k2="-1" k3="1"/>
<feColorMatrix type="matrix" values="0 0 0 0 0 0 0 0 0 0 0 0 0 0 0 0 0 0 0.25 0"/>
<feBlend mode="normal" in2="shape" result="effect1_innerShadow_702_11492"/>
</filter>
<filter id="filter1_i_702_11492" x="32.5234" y="34.5259" width="27.4766" height="24.5049" filterUnits="userSpaceOnUse" color-interpolation-filters="sRGB">
<feFlood flood-opacity="0" result="BackgroundImageFix"/>
<feBlend mode="normal" in="SourceGraphic" in2="BackgroundImageFix" result="shape"/>
<feColorMatrix in="SourceAlpha" type="matrix" values="0 0 0 0 0 0 0 0 0 0 0 0 0 0 0 0 0 0 127 0" result="hardAlpha"/>
<feOffset dy="1"/>
<feGaussianBlur stdDeviation="1"/>
<feComposite in2="hardAlpha" operator="arithmetic" k2="-1" k3="1"/>
<feColorMatrix type="matrix" values="0 0 0 0 0 0 0 0 0 0 0 0 0 0 0 0 0 0 0.25 0"/>
<feBlend mode="normal" in2="shape" result="effect1_innerShadow_702_11492"/>
</filter>
<filter id="filter2_i_702_11492" x="0" y="34.5039" width="27.3604" height="24.5264" filterUnits="userSpaceOnUse" color-interpolation-filters="sRGB">
<feFlood flood-opacity="0" result="BackgroundImageFix"/>
<feBlend mode="normal" in="SourceGraphic" in2="BackgroundImageFix" result="shape"/>
<feColorMatrix in="SourceAlpha" type="matrix" values="0 0 0 0 0 0 0 0 0 0 0 0 0 0 0 0 0 0 127 0" result="hardAlpha"/>
<feOffset dy="1"/>
<feGaussianBlur stdDeviation="1"/>
<feComposite in2="hardAlpha" operator="arithmetic" k2="-1" k3="1"/>
<feColorMatrix type="matrix" values="0 0 0 0 0 0 0 0 0 0 0 0 0 0 0 0 0 0 0.25 0"/>
<feBlend mode="normal" in2="shape" result="effect1_innerShadow_702_11492"/>
</filter>
<filter id="filter3_i_702_11492" x="14.1152" y="13.5679" width="31.8037" height="36.2007" filterUnits="userSpaceOnUse" color-interpolation-filters="sRGB">
<feFlood flood-opacity="0" result="BackgroundImageFix"/>
<feBlend mode="normal" in="SourceGraphic" in2="BackgroundImageFix" result="shape"/>
<feColorMatrix in="SourceAlpha" type="matrix" values="0 0 0 0 0 0 0 0 0 0 0 0 0 0 0 0 0 0 127 0" result="hardAlpha"/>
<feOffset dy="1"/>
<feGaussianBlur stdDeviation="1"/>
<feComposite in2="hardAlpha" operator="arithmetic" k2="-1" k3="1"/>
<feColorMatrix type="matrix" values="0 0 0 0 0 0 0 0 0 0 0 0 0 0 0 0 0 0 0.25 0"/>
<feBlend mode="normal" in2="shape" result="effect1_innerShadow_702_11492"/>
</filter>
<filter id="filter4_i_702_11492" x="27.0732" y="8.86865" width="5.85449" height="6.854" filterUnits="userSpaceOnUse" color-interpolation-filters="sRGB">
<feFlood flood-opacity="0" result="BackgroundImageFix"/>
<feBlend mode="normal" in="SourceGraphic" in2="BackgroundImageFix" result="shape"/>
<feColorMatrix in="SourceAlpha" type="matrix" values="0 0 0 0 0 0 0 0 0 0 0 0 0 0 0 0 0 0 127 0" result="hardAlpha"/>
<feOffset dy="1"/>
<feGaussianBlur stdDeviation="1"/>
<feComposite in2="hardAlpha" operator="arithmetic" k2="-1" k3="1"/>
<feColorMatrix type="matrix" values="0 0 0 0 0 0 0 0 0 0 0 0 0 0 0 0 0 0 0.25 0"/>
<feBlend mode="normal" in2="shape" result="effect1_innerShadow_702_11492"/>
</filter>
<filter id="filter5_i_702_11492" x="16.4121" y="1.96924" width="27.1758" height="9.05371" filterUnits="userSpaceOnUse" color-interpolation-filters="sRGB">
<feFlood flood-opacity="0" result="BackgroundImageFix"/>
<feBlend mode="normal" in="SourceGraphic" in2="BackgroundImageFix" result="shape"/>
<feColorMatrix in="SourceAlpha" type="matrix" values="0 0 0 0 0 0 0 0 0 0 0 0 0 0 0 0 0 0 127 0" result="hardAlpha"/>
<feOffset dy="1"/>
<feGaussianBlur stdDeviation="1"/>
<feComposite in2="hardAlpha" operator="arithmetic" k2="-1" k3="1"/>
<feColorMatrix type="matrix" values="0 0 0 0 0 0 0 0 0 0 0 0 0 0 0 0 0 0 0.25 0"/>
<feBlend mode="normal" in2="shape" result="effect1_innerShadow_702_11492"/>
</filter>
<linearGradient id="paint0_linear_702_11492" x1="29.1972" y1="39.0435" x2="36.7994" y2="44.1275" gradientUnits="userSpaceOnUse">
<stop stop-color="#4FFFFF"/>
<stop offset="1" stop-color="#32CDCD"/>
</linearGradient>
<linearGradient id="paint1_linear_702_11492" x1="41.5822" y1="34.2802" x2="51.4241" y2="58.4307" gradientUnits="userSpaceOnUse">
<stop stop-color="#4FFFFF"/>
<stop offset="1" stop-color="#32CDCD"/>
</linearGradient>
<linearGradient id="paint2_linear_702_11492" x1="9.02048" y1="34.258" x2="18.9078" y2="58.3951" gradientUnits="userSpaceOnUse">
<stop stop-color="#4FFFFF"/>
<stop offset="1" stop-color="#32CDCD"/>
</linearGradient>
<linearGradient id="paint3_linear_702_11492" x1="24.6006" y1="13.1999" x2="42.0006" y2="46.1999" gradientUnits="userSpaceOnUse">
<stop stop-color="#4FFFFF"/>
<stop offset="1" stop-color="#32CDCD"/>
</linearGradient>
<linearGradient id="paint4_linear_702_11492" x1="29.0033" y1="8.80746" x2="31.7267" y2="14.5241" gradientUnits="userSpaceOnUse">
<stop stop-color="#4FFFFF"/>
<stop offset="1" stop-color="#32CDCD"/>
</linearGradient>
<linearGradient id="paint5_linear_702_11492" x1="25.3717" y1="1.88505" x2="26.7074" y2="11.3458" gradientUnits="userSpaceOnUse">
<stop stop-color="#4FFFFF"/>
<stop offset="1" stop-color="#32CDCD"/>
</linearGradient>
</defs>
</svg>
