<svg width="16" height="17" viewBox="0 0 16 17" fill="none" xmlns="http://www.w3.org/2000/svg">
<g filter="url(#filter0_bdii_202_2475)">
<mask id="path-1-inside-1_202_2475" fill="white">
<path d="M3.87468 12.5625L3.87468 4.43749C3.87465 4.38335 3.88869 4.33013 3.91541 4.28304C3.94214 4.23596 3.98064 4.19663 4.02715 4.1689C4.07365 4.14118 4.12656 4.12601 4.18069 4.12488C4.23482 4.12376 4.28831 4.13672 4.33593 4.16249L11.8359 8.22499C11.8855 8.25177 11.927 8.29146 11.9559 8.33988C11.9847 8.38829 12 8.44362 12 8.49999C12 8.55637 11.9847 8.61169 11.9559 8.6601C11.927 8.70852 11.8855 8.74821 11.8359 8.77499L4.33593 12.8375C4.28831 12.8633 4.23482 12.8762 4.18069 12.8751C4.12656 12.874 4.07365 12.8588 4.02715 12.8311C3.98064 12.8034 3.94214 12.764 3.91541 12.7169C3.88869 12.6699 3.87465 12.6166 3.87468 12.5625Z"/>
</mask>
<path d="M3.87468 12.5625L3.87468 4.43749C3.87465 4.38335 3.88869 4.33013 3.91541 4.28304C3.94214 4.23596 3.98064 4.19663 4.02715 4.1689C4.07365 4.14118 4.12656 4.12601 4.18069 4.12488C4.23482 4.12376 4.28831 4.13672 4.33593 4.16249L11.8359 8.22499C11.8855 8.25177 11.927 8.29146 11.9559 8.33988C11.9847 8.38829 12 8.44362 12 8.49999C12 8.55637 11.9847 8.61169 11.9559 8.6601C11.927 8.70852 11.8855 8.74821 11.8359 8.77499L4.33593 12.8375C4.28831 12.8633 4.23482 12.8762 4.18069 12.8751C4.12656 12.874 4.07365 12.8588 4.02715 12.8311C3.98064 12.8034 3.94214 12.764 3.91541 12.7169C3.88869 12.6699 3.87465 12.6166 3.87468 12.5625Z" fill="url(#paint0_linear_202_2475)" fill-opacity="0.3"/>
<path d="M3.87468 12.5625L3.87468 4.43749C3.87465 4.38335 3.88869 4.33013 3.91541 4.28304C3.94214 4.23596 3.98064 4.19663 4.02715 4.1689C4.07365 4.14118 4.12656 4.12601 4.18069 4.12488C4.23482 4.12376 4.28831 4.13672 4.33593 4.16249L11.8359 8.22499C11.8855 8.25177 11.927 8.29146 11.9559 8.33988C11.9847 8.38829 12 8.44362 12 8.49999C12 8.55637 11.9847 8.61169 11.9559 8.6601C11.927 8.70852 11.8855 8.74821 11.8359 8.77499L4.33593 12.8375C4.28831 12.8633 4.23482 12.8762 4.18069 12.8751C4.12656 12.874 4.07365 12.8588 4.02715 12.8311C3.98064 12.8034 3.94214 12.764 3.91541 12.7169C3.88869 12.6699 3.87465 12.6166 3.87468 12.5625Z" fill="#4FFFFF" fill-opacity="0.2"/>
<path d="M3.87468 12.5625L5.79134 12.5636L5.79134 12.5625L3.87468 12.5625ZM3.87468 4.43749L5.79135 4.43749L5.79134 4.43643L3.87468 4.43749ZM4.33593 4.16249L5.2488 2.47718L5.24826 2.47689L4.33593 4.16249ZM11.8359 8.22499L10.9231 9.9103L10.9256 9.91166L11.8359 8.22499ZM11.8359 8.77499L10.9256 7.08832L10.9231 7.08968L11.8359 8.77499ZM4.33593 12.8375L5.24826 14.5231L5.2488 14.5228L4.33593 12.8375ZM5.79134 12.5625L5.79135 4.43749L1.95801 4.43749L1.95801 12.5625L5.79134 12.5625ZM5.79134 4.43643C5.7915 4.71436 5.71944 4.98756 5.58224 5.22925L2.24859 3.33684C2.05793 3.6727 1.9578 4.05234 1.95801 4.43855L5.79134 4.43643ZM5.58224 5.22925C5.44504 5.47094 5.24739 5.67285 5.00867 5.81518L3.04563 2.52262C2.7139 2.7204 2.43925 3.00098 2.24859 3.33684L5.58224 5.22925ZM5.00867 5.81518C4.76995 5.95751 4.49835 6.03537 4.22048 6.04114L4.1409 2.20863C3.75478 2.21665 3.37736 2.32485 3.04563 2.52262L5.00867 5.81518ZM4.22048 6.04114C3.94261 6.04691 3.66801 5.98039 3.4236 5.84809L5.24826 2.47689C4.90861 2.29305 4.52703 2.20061 4.1409 2.20863L4.22048 6.04114ZM3.42305 5.8478L10.9231 9.9103L12.7488 6.53968L5.2488 2.47718L3.42305 5.8478ZM10.9256 9.91166C10.6709 9.77421 10.4582 9.57042 10.3099 9.3219L13.6018 7.35785C13.3958 7.0125 13.1002 6.72933 12.7463 6.53832L10.9256 9.91166ZM10.3099 9.3219C10.1616 9.07338 10.0833 8.78938 10.0833 8.49999L13.9167 8.49999C13.9167 8.09785 13.8079 7.7032 13.6018 7.35785L10.3099 9.3219ZM10.0833 8.49999C10.0833 8.2106 10.1616 7.9266 10.3099 7.67808L13.6018 9.64213C13.8079 9.29678 13.9167 8.90213 13.9167 8.49999L10.0833 8.49999ZM10.3099 7.67808C10.4582 7.42956 10.6709 7.22577 10.9256 7.08832L12.7463 10.4617C13.1002 10.2707 13.3958 9.98748 13.6018 9.64213L10.3099 7.67808ZM10.9231 7.08968L3.42305 11.1522L5.2488 14.5228L12.7488 10.4603L10.9231 7.08968ZM3.4236 11.1519C3.66802 11.0196 3.94262 10.9531 4.22048 10.9588L4.1409 14.7913C4.52702 14.7994 4.90861 14.7069 5.24826 14.5231L3.4236 11.1519ZM4.22048 10.9588C4.49834 10.9646 4.76994 11.0425 5.00867 11.1848L3.04563 14.4774C3.37736 14.6751 3.75478 14.7833 4.1409 14.7913L4.22048 10.9588ZM5.00867 11.1848C5.24739 11.3271 5.44504 11.529 5.58224 11.7707L2.24859 13.6631C2.43925 13.999 2.71389 14.2796 3.04563 14.4774L5.00867 11.1848ZM5.58224 11.7707C5.71944 12.0124 5.7915 12.2856 5.79134 12.5636L1.95801 12.5614C1.9578 12.9476 2.05793 13.3273 2.24859 13.6631L5.58224 11.7707Z" fill="url(#paint1_linear_202_2475)" fill-opacity="0.1" mask="url(#path-1-inside-1_202_2475)"/>
</g>
<defs>
<filter id="filter0_bdii_202_2475" x="0.674756" y="0.924817" width="14.5252" height="15.1504" filterUnits="userSpaceOnUse" color-interpolation-filters="sRGB">
<feFlood flood-opacity="0" result="BackgroundImageFix"/>
<feGaussianBlur in="BackgroundImageFix" stdDeviation="1.5"/>
<feComposite in2="SourceAlpha" operator="in" result="effect1_backgroundBlur_202_2475"/>
<feColorMatrix in="SourceAlpha" type="matrix" values="0 0 0 0 0 0 0 0 0 0 0 0 0 0 0 0 0 0 127 0" result="hardAlpha"/>
<feMorphology radius="0.2" operator="dilate" in="SourceAlpha" result="effect2_dropShadow_202_2475"/>
<feOffset/>
<feGaussianBlur stdDeviation="1.5"/>
<feComposite in2="hardAlpha" operator="out"/>
<feColorMatrix type="matrix" values="0 0 0 0 0.64599 0 0 0 0 0.9875 0 0 0 0 0.954018 0 0 0 0.8 0"/>
<feBlend mode="normal" in2="effect1_backgroundBlur_202_2475" result="effect2_dropShadow_202_2475"/>
<feBlend mode="normal" in="SourceGraphic" in2="effect2_dropShadow_202_2475" result="shape"/>
<feColorMatrix in="SourceAlpha" type="matrix" values="0 0 0 0 0 0 0 0 0 0 0 0 0 0 0 0 0 0 127 0" result="hardAlpha"/>
<feOffset dx="1" dy="1"/>
<feGaussianBlur stdDeviation="1"/>
<feComposite in2="hardAlpha" operator="arithmetic" k2="-1" k3="1"/>
<feColorMatrix type="matrix" values="0 0 0 0 1 0 0 0 0 1 0 0 0 0 1 0 0 0 0.5 0"/>
<feBlend mode="normal" in2="shape" result="effect3_innerShadow_202_2475"/>
<feColorMatrix in="SourceAlpha" type="matrix" values="0 0 0 0 0 0 0 0 0 0 0 0 0 0 0 0 0 0 127 0" result="hardAlpha"/>
<feOffset dx="-1" dy="-1"/>
<feGaussianBlur stdDeviation="1"/>
<feComposite in2="hardAlpha" operator="arithmetic" k2="-1" k3="1"/>
<feColorMatrix type="matrix" values="0 0 0 0 0.142188 0 0 0 0 0.758333 0 0 0 0 0.758333 0 0 0 0.5 0"/>
<feBlend mode="normal" in2="effect3_innerShadow_202_2475" result="effect4_innerShadow_202_2475"/>
</filter>
<linearGradient id="paint0_linear_202_2475" x1="12.0849" y1="7.00973" x2="3.94306" y2="10.6114" gradientUnits="userSpaceOnUse">
<stop stop-color="#A0FFF9"/>
<stop offset="0.427083" stop-color="#1AD8CC"/>
<stop offset="1" stop-color="#24D5CA"/>
</linearGradient>
<linearGradient id="paint1_linear_202_2475" x1="12" y1="8.49999" x2="6.8747" y2="12.9872" gradientUnits="userSpaceOnUse">
<stop stop-color="white"/>
<stop offset="1" stop-color="#06AAAB"/>
</linearGradient>
</defs>
</svg>
