<svg width="10" height="10" viewBox="0 0 10 10" fill="none" xmlns="http://www.w3.org/2000/svg">
<g clip-path="url(#clip0_28_17169)">
<path d="M0.937422 9.06218L0.937423 0.937185C0.937392 0.883043 0.95143 0.829823 0.978158 0.782739C1.00489 0.735655 1.04339 0.696322 1.08989 0.668597C1.1364 0.640871 1.18931 0.625703 1.24344 0.624579C1.29757 0.623455 1.35106 0.636413 1.39867 0.662185L8.89867 4.72468C8.94828 4.75146 8.98973 4.79116 9.01861 4.83957C9.04749 4.88799 9.06274 4.94331 9.06274 4.99968C9.06274 5.05606 9.04749 5.11138 9.01861 5.1598C8.98973 5.20821 8.94828 5.24791 8.89867 5.27468L1.39867 9.33718C1.35106 9.36296 1.29757 9.37591 1.24344 9.37479C1.1893 9.37367 1.1364 9.3585 1.08989 9.33077C1.04339 9.30305 1.00489 9.26371 0.978158 9.21663C0.95143 9.16955 0.937392 9.11633 0.937422 9.06218Z" fill="black"/>
</g>
<defs>
<clipPath id="clip0_28_17169">
<rect width="10" height="10" fill="white"/>
</clipPath>
</defs>
</svg>
