<svg width="16" height="16" viewBox="0 0 16 16" fill="none" xmlns="http://www.w3.org/2000/svg">
<path d="M14 3H2C1.86739 3 1.74021 3.05268 1.64645 3.14645C1.55268 3.24021 1.5 3.36739 1.5 3.5V12C1.5 12.2652 1.60536 12.5196 1.79289 12.7071C1.98043 12.8946 2.23478 13 2.5 13H13.5C13.7652 13 14.0196 12.8946 14.2071 12.7071C14.3946 12.5196 14.5 12.2652 14.5 12V3.5C14.5 3.36739 14.4473 3.24021 14.3536 3.14645C14.2598 3.05268 14.1326 3 14 3ZM6.16867 8L2.5 11.3627V4.63733L6.16867 8ZM6.906 8.68133L7.66267 9.36867C7.75482 9.4529 7.87515 9.49961 8 9.49961C8.12485 9.49961 8.24518 9.4529 8.33733 9.36867L9.094 8.68133L12.7127 12H3.28667L6.90533 8.68133H6.906ZM9.83133 8L13.5 4.63733V11.3627L9.83133 8Z" fill="#333438"/>
</svg>
