<svg width="16" height="16" viewBox="0 0 16 16" fill="none" xmlns="http://www.w3.org/2000/svg">
<path d="M8 7.33301C8.26522 7.33301 8.51957 7.22765 8.70711 7.04011C8.89464 6.85258 9 6.59822 9 6.33301C9 6.06779 8.89464 5.81344 8.70711 5.6259C8.51957 5.43836 8.26522 5.33301 8 5.33301C7.73478 5.33301 7.48043 5.43836 7.29289 5.6259C7.10536 5.81344 7 6.06779 7 6.33301C7 6.59822 7.10536 6.85258 7.29289 7.04011C7.48043 7.22765 7.73478 7.33301 8 7.33301Z" fill="#333438"/>
<path d="M8.00033 1.33301C6.59503 1.33294 5.2465 1.88751 4.24782 2.8762C3.24915 3.86489 2.68105 5.20778 2.66699 6.61301C2.66699 10.2663 7.36699 14.333 7.56699 14.5063C7.68775 14.6096 7.84142 14.6664 8.00033 14.6664C8.15923 14.6664 8.3129 14.6096 8.43366 14.5063C8.66699 14.333 13.3337 10.2663 13.3337 6.61301C13.3196 5.20778 12.7515 3.86489 11.7528 2.8762C10.7542 1.88751 9.40562 1.33294 8.00033 1.33301ZM8.00033 8.66634C7.69391 8.66634 7.39049 8.60599 7.1074 8.48873C6.8243 8.37147 6.56708 8.19959 6.35041 7.98292C6.13374 7.76625 5.96187 7.50903 5.84461 7.22594C5.72735 6.94284 5.66699 6.63943 5.66699 6.33301C5.66699 6.02659 5.72735 5.72317 5.84461 5.44008C5.96187 5.15699 6.13374 4.89976 6.35041 4.68309C6.56708 4.46642 6.8243 4.29455 7.1074 4.17729C7.39049 4.06003 7.69391 3.99967 8.00033 3.99967C8.61916 3.99967 9.21266 4.24551 9.65024 4.68309C10.0878 5.12068 10.3337 5.71417 10.3337 6.33301C10.3337 6.95185 10.0878 7.54534 9.65024 7.98292C9.21266 8.42051 8.61916 8.66634 8.00033 8.66634Z" fill="#333438"/>
</svg>
