<svg width="16" height="16" viewBox="0 0 16 16" fill="none" xmlns="http://www.w3.org/2000/svg">
<path d="M1.6001 2.4001C1.6001 2.18792 1.68438 1.98444 1.83441 1.83441C1.98444 1.68438 2.18792 1.6001 2.4001 1.6001H4.12276C4.31209 1.60021 4.49523 1.66746 4.63964 1.7899C4.78404 1.91233 4.88035 2.08201 4.91143 2.26876L5.50343 5.81676C5.53172 5.98574 5.50501 6.15933 5.42724 6.31199C5.34947 6.46465 5.22475 6.58831 5.07143 6.66476L3.83276 7.28343C4.27684 8.38396 4.93821 9.38367 5.77737 10.2228C6.61652 11.062 7.61624 11.7234 8.71676 12.1674L9.3361 10.9288C9.41249 10.7757 9.53593 10.6511 9.68832 10.5734C9.8407 10.4956 10.014 10.4688 10.1828 10.4968L13.7314 11.0888C13.9182 11.1198 14.0879 11.2162 14.2103 11.3606C14.3327 11.505 14.4 11.6881 14.4001 11.8774V13.6001C14.4001 13.8123 14.3158 14.0158 14.1658 14.1658C14.0158 14.3158 13.8123 14.4001 13.6001 14.4001H12.0001C6.2561 14.4001 1.6001 9.7441 1.6001 4.0001V2.4001Z" fill="#333438"/>
</svg>
