<svg xmlns="http://www.w3.org/2000/svg" version="1.1" xmlns:xlink="http://www.w3.org/1999/xlink" xmlns:svgjs="http://svgjs.com/svgjs" width="512" height="512" x="0" y="0" viewBox="0 0 24 24" style="enable-background:new 0 0 512 512" xml:space="preserve" fill-rule="evenodd" class=""><g><path d="M10 1.25c-4.829 0-8.75 3.921-8.75 8.75s3.921 8.75 8.75 8.75 8.75-3.921 8.75-8.75S14.829 1.25 10 1.25zm0 1.5c4.001 0 7.25 3.249 7.25 7.25s-3.249 7.25-7.25 7.25S2.75 14.001 2.75 10 5.999 2.75 10 2.75z" fill="#000000" data-original="#000000" class=""></path><path d="m15.125 16.186 6.345 6.344a.749.749 0 1 0 1.06-1.06l-6.344-6.345a.752.752 0 0 0-1.061 0 .752.752 0 0 0 0 1.061z" fill="#000000" data-original="#000000" class=""></path></g></svg>
