<svg width="50" height="50" viewBox="0 0 50 50" fill="none" xmlns="http://www.w3.org/2000/svg">
<path d="M38.8941 29.4325L35.3332 28.4355V24.4667C35.3332 24.3252 35.277 24.1896 35.177 24.0895C35.0769 23.9895 34.9413 23.9333 34.7998 23.9333H34.2665V13.8C34.2651 12.5274 33.7589 11.3073 32.859 10.4075C31.9592 9.50761 30.7391 9.00144 29.4665 9.00001H24.4835C24.1332 8.99904 23.7861 9.06757 23.4625 9.20164C23.1388 9.33571 22.8449 9.53266 22.5979 9.78108L21.7202 10.6587C21.1035 10.2216 20.3522 10.0164 19.599 10.0796C18.8457 10.1427 18.1391 10.4701 17.6038 11.0039C17.4523 11.1555 17.3162 11.3219 17.1975 11.5004C17.1292 11.603 17.0985 11.726 17.1107 11.8486C17.1228 11.9712 17.1771 12.0859 17.2642 12.173L20.96 15.8688C21.0471 15.9559 21.1618 16.0101 21.2844 16.0223C21.407 16.0344 21.53 16.0038 21.6326 15.9355C21.8111 15.8168 21.9774 15.6807 22.129 15.5292C22.6627 14.994 22.9901 14.2875 23.0533 13.5343C23.1165 12.7812 22.9115 12.03 22.4744 11.4133L23.3522 10.5356C23.5004 10.3865 23.6767 10.2683 23.8709 10.1878C24.0651 10.1073 24.2733 10.0661 24.4835 10.0667H29.4665C30.4563 10.0678 31.4052 10.4615 32.1051 11.1614C32.805 11.8613 33.1987 12.8102 33.1998 13.8V23.9333H31.009C31.365 23.5864 31.6479 23.1718 31.8409 22.7138C32.034 22.2557 32.1334 21.7637 32.1332 21.2667C32.1332 21.1252 32.077 20.9896 31.977 20.8895C31.8769 20.7895 31.7413 20.7333 31.5998 20.7333H29.9998V19.1333C29.9998 18.4902 29.5737 17.5333 28.3998 17.5333C27.226 17.5333 26.7998 18.4902 26.7998 19.1333C26.799 19.2748 26.8544 19.4108 26.9538 19.5114C27.0532 19.612 27.1886 19.669 27.33 19.6698C27.4715 19.6707 27.6074 19.6153 27.7081 19.5159C27.8087 19.4164 27.8657 19.2811 27.8665 19.1397C27.8729 19.0277 27.9028 18.9184 27.954 18.8187C28.0136 18.7105 28.1131 18.6 28.3999 18.6C28.6867 18.6 28.7866 18.7105 28.8458 18.8187C28.8961 18.9165 28.9259 19.0236 28.9332 19.1333V20.7333H21.9998C21.8584 20.7333 21.7227 20.7895 21.6227 20.8895C21.5227 20.9896 21.4665 21.1252 21.4665 21.2667C21.4664 21.7945 21.5785 22.3163 21.7953 22.7975C22.0122 23.2787 22.3288 23.7083 22.7242 24.0579C22.6644 24.1078 22.6162 24.1704 22.5832 24.241C22.5502 24.3117 22.5331 24.3887 22.5332 24.4667V27.687L19.6546 28.8067L18.5806 27.3745L18.8428 27.185C19.1863 26.9361 19.417 26.5611 19.4844 26.1423C19.5517 25.7234 19.4502 25.295 19.2021 24.9509L15.1402 19.3321C14.9098 19.0126 14.5692 18.7898 14.1841 18.7067C14.226 18.3151 14.1214 17.9218 13.8904 17.6028L12.3282 15.4418C12.0793 15.0983 11.7043 14.8676 11.2855 14.8002C10.8667 14.7328 10.4382 14.8344 10.0942 15.0825L9.66191 15.3949C9.31843 15.6439 9.0877 16.0189 9.02033 16.4377C8.95297 16.8565 9.05447 17.2849 9.30258 17.629L10.8648 19.7901C11.0954 20.1094 11.436 20.3321 11.821 20.4151C11.779 20.8067 11.8835 21.1999 12.1143 21.519L16.1762 27.1379C16.3336 27.3554 16.5433 27.5298 16.7858 27.645C17.0283 27.7602 17.2959 27.8125 17.564 27.7971L18.6221 29.2079L18.01 29.4459C17.8129 29.5225 17.633 29.6374 17.4807 29.784C17.3283 29.9305 17.2065 30.1058 17.1223 30.2998C17.0381 30.4937 16.9931 30.7024 16.99 30.9137C16.987 31.1251 17.0258 31.335 17.1043 31.5313L17.7522 33.151C17.8887 33.7729 18.1385 34.3644 18.4891 34.8959C19.0482 35.7341 20.1109 36.7333 21.9998 36.7333C22.7265 36.7333 23.4065 36.5267 24.0889 36.2023L25.2301 37.8H17.7332C17.3088 37.8 16.9019 37.9686 16.6018 38.2686C16.3017 38.5687 16.1332 38.9757 16.1332 39.4C16.1332 39.8243 16.3017 40.2313 16.6018 40.5314C16.9019 40.8314 17.3088 41 17.7332 41H37.9998C38.424 40.9995 38.8307 40.8308 39.1307 40.5308C39.4306 40.2309 39.5993 39.8242 39.5998 39.4V39.3793C39.6004 39.1393 39.5467 38.9022 39.4427 38.6859C39.3387 38.4695 39.1872 38.2794 38.9994 38.1299L34.0665 34.1835C33.9869 34.1199 33.8908 34.0804 33.7895 34.0696C33.6882 34.0589 33.5859 34.0774 33.4948 34.123L30.3094 35.7157L28.7217 33.4928C30.156 32.8049 31.8254 32.3201 33.9399 32.4447V32.4381L37.7204 33.5407C37.9909 33.6202 38.2744 33.6454 38.5547 33.6149C38.835 33.5843 39.1065 33.4985 39.3535 33.3625C39.6005 33.2266 39.8181 33.043 39.9938 32.8225C40.1695 32.602 40.2999 32.3489 40.3773 32.0778C40.4547 31.8067 40.4777 31.5229 40.445 31.2429C40.4122 30.9629 40.3243 30.6921 40.1864 30.4461C40.0485 30.2002 39.8633 29.984 39.6414 29.8101C39.4195 29.6361 39.1654 29.5077 38.8937 29.4324L38.8941 29.4325ZM21.375 14.7751L18.358 11.7581C18.7586 11.3606 19.3004 11.138 19.8648 11.1391C20.4292 11.1402 20.9701 11.3648 21.3692 11.7639C21.7683 12.163 21.993 12.7039 21.9941 13.2683C21.9952 13.8327 21.7726 14.3745 21.375 14.7751ZM11.7293 19.1652L10.167 17.0041C10.0844 16.8894 10.0506 16.7465 10.0731 16.6069C10.0956 16.4673 10.1725 16.3423 10.287 16.2594L10.7192 15.9469C10.834 15.8643 10.9768 15.8305 11.1164 15.853C11.256 15.8754 11.381 15.9524 11.4639 16.0669L13.0262 18.2281C13.1088 18.3428 13.1426 18.4856 13.1201 18.6252C13.0976 18.7648 13.0207 18.8898 12.9062 18.9727L12.4739 19.2852C12.3592 19.3679 12.2164 19.4017 12.0768 19.3792C11.9372 19.3567 11.8122 19.2797 11.7293 19.1652ZM18.2179 26.3203L17.7856 26.6328C17.6709 26.7155 17.5281 26.7493 17.3885 26.7268C17.2489 26.7043 17.1239 26.6273 17.041 26.5128L12.9791 20.8941C12.8964 20.7794 12.8626 20.6365 12.8851 20.4969C12.9076 20.3573 12.9846 20.2323 13.0991 20.1494L13.5313 19.837C13.646 19.7543 13.7889 19.7205 13.9285 19.743C14.0681 19.7655 14.1931 19.8425 14.276 19.957L18.3378 25.5759C18.4205 25.6906 18.4542 25.8334 18.4318 25.9729C18.4093 26.1125 18.3324 26.2374 18.2179 26.3203ZM34.2665 25V28.1368L27.6289 26.2783C27.0728 26.1238 26.4817 26.1528 25.9434 26.3609L23.5998 27.2722V25H34.2665ZM22.5865 21.8H31.0132C30.8894 22.4019 30.5619 22.9428 30.0859 23.3314C29.6098 23.72 29.0144 23.9326 28.3998 23.9333H25.1998C24.5853 23.9326 23.9899 23.72 23.5138 23.3314C23.0378 22.9428 22.7103 22.4019 22.5865 21.8ZM33.6665 35.2296L38.3332 38.9629C38.3957 39.0128 38.4462 39.0761 38.4809 39.1483C38.5155 39.2204 38.5334 39.2994 38.5332 39.3794V39.4C38.533 39.5414 38.4768 39.677 38.3768 39.7769C38.2768 39.8769 38.1412 39.9332 37.9998 39.9333H17.7332C17.5917 39.9333 17.4561 39.8771 17.3561 39.7771C17.256 39.6771 17.1998 39.5414 17.1998 39.4C17.1998 39.2586 17.256 39.1229 17.3561 39.0229C17.4561 38.9229 17.5917 38.8667 17.7332 38.8667H26.2665C26.3493 38.8667 26.431 38.8474 26.505 38.8103L33.6665 35.2296ZM29.3434 36.1986L26.4356 37.6525L25.0338 35.69C25.3934 35.4757 25.7598 35.2407 26.1398 34.9967C26.6592 34.6633 27.1968 34.3184 27.7684 33.9935L29.3434 36.1986ZM25.5634 34.0991C24.2532 34.94 23.1218 35.6667 21.9998 35.6667C19.9252 35.6667 19.1562 34.1036 18.9028 33.3309L26.8209 30.3617L31.0219 31.587C28.7488 32.0551 27.0278 33.1591 25.5635 34.0991H25.5634ZM39.3701 31.6681C39.3453 31.8168 39.2893 31.9585 39.2058 32.084C39.1222 32.2094 39.0131 32.3158 38.8854 32.396C38.7578 32.4762 38.6146 32.5284 38.4653 32.5492C38.316 32.5701 38.164 32.559 38.0193 32.5168L26.9492 29.288C26.8386 29.2557 26.7205 29.2602 26.6126 29.3007L18.5679 32.3174L18.095 31.1351C18.0688 31.0697 18.0559 30.9997 18.0569 30.9293C18.058 30.8588 18.0729 30.7893 18.101 30.7246C18.1291 30.66 18.1697 30.6016 18.2205 30.5527C18.2713 30.5039 18.3312 30.4656 18.3969 30.4401L26.3302 27.355C26.6532 27.2301 27.0078 27.2127 27.3414 27.3055L38.6065 30.46C38.8607 30.5312 39.0795 30.6941 39.2205 30.9173C39.3615 31.1404 39.4148 31.4079 39.37 31.6681H39.3701Z" fill="#0AB6B6"/>
</svg>
