<svg width="13" height="13" viewBox="0 0 13 13" fill="none" xmlns="http://www.w3.org/2000/svg">
<path d="M5.65626 0.937159C5.80593 0.476503 6.45764 0.476503 6.60731 0.937158L7.70929 4.3287C7.77623 4.53471 7.96821 4.67419 8.18482 4.67419L11.7509 4.67419C12.2353 4.67419 12.4366 5.294 12.0448 5.5787L9.15977 7.67478C8.98453 7.80211 8.9112 8.02779 8.97814 8.2338L10.0801 11.6253C10.2298 12.086 9.70255 12.4691 9.31069 12.1844L6.42568 10.0883C6.25043 9.96095 6.01314 9.96095 5.83789 10.0883L2.95288 12.1844C2.56102 12.4691 2.03378 12.086 2.18346 11.6253L3.28543 8.2338C3.35237 8.02779 3.27904 7.80211 3.1038 7.67478L0.218782 5.5787C-0.173075 5.294 0.0283127 4.67419 0.512674 4.67419L4.07875 4.67419C4.29536 4.67419 4.48734 4.53471 4.55428 4.3287L5.65626 0.937159Z" fill="#F9CE06"/>
</svg>
