<svg width="60" height="60" viewBox="0 0 60 60" fill="none" xmlns="http://www.w3.org/2000/svg">
<g clip-path="url(#clip0_28_27618)">
<path d="M30 60C46.5685 60 60 46.5685 60 30C60 13.4315 46.5685 0 30 0C13.4315 0 0 13.4315 0 30C0 46.5685 13.4315 60 30 60Z" fill="url(#paint0_linear_28_27618)"/>
<path fill-rule="evenodd" clip-rule="evenodd" d="M13.7608 29.4839C22.4846 25.683 28.3013 23.1769 31.2111 21.9658C39.5218 18.5109 41.2576 17.9109 42.3739 17.8886C42.7878 17.8805 43.1938 18.0025 43.5348 18.2374C43.7741 18.4437 43.9266 18.7328 43.9618 19.0467C44.0219 19.4371 44.0387 19.833 44.012 20.2272C43.5627 24.9713 41.612 36.4383 40.6213 41.7379C40.2027 43.9704 39.3767 44.7323 38.5757 44.8076C36.8399 44.9667 35.506 43.6579 33.8315 42.5555C31.1971 40.8281 29.7097 39.7648 27.1534 38.0681C24.198 36.1146 26.1153 35.0513 27.798 33.3044C28.239 32.8467 35.8911 25.8811 36.0418 25.2504C36.0616 25.1573 36.0594 25.0608 36.0351 24.9687C36.0109 24.8766 35.9654 24.7915 35.9022 24.7202C35.8106 24.6629 35.7069 24.6278 35.5994 24.6177C35.4919 24.6075 35.3834 24.6225 35.2827 24.6616C35.0204 24.7193 30.8139 27.4997 22.6632 33.003C21.4688 33.8234 20.3869 34.2234 19.4176 34.203C18.3488 34.1779 16.2948 33.5974 14.7655 33.0867C12.8929 32.4783 11.4167 32.1574 11.5339 31.1332C11.6027 30.5974 12.345 30.0476 13.7608 29.4839Z" fill="white"/>
</g>
<defs>
<linearGradient id="paint0_linear_28_27618" x1="0" y1="30" x2="60" y2="30" gradientUnits="userSpaceOnUse">
<stop stop-color="#2AABEE"/>
<stop offset="1" stop-color="#229ED9"/>
</linearGradient>
<clipPath id="clip0_28_27618">
<rect width="60" height="60" fill="white"/>
</clipPath>
</defs>
</svg>
