<svg width="60" height="60" viewBox="0 0 60 60" fill="none" xmlns="http://www.w3.org/2000/svg">
<g clip-path="url(#clip0_28_27614)">
<path d="M30 60C46.5685 60 60 46.5685 60 30C60 13.4315 46.5685 0 30 0C13.4315 0 0 13.4315 0 30C0 46.5685 13.4315 60 30 60Z" fill="#0077FF"/>
<path d="M31.0995 41.0623C19.4679 41.0623 12.8372 33.0865 12.5581 19.814H18.3823C18.5749 29.5535 22.8697 33.6809 26.2716 34.5321V19.814H31.7609V28.214C35.1097 27.854 38.6511 24.0279 39.84 19.814H45.3293C44.4139 25.0019 40.5851 28.8307 37.8642 30.4047C39.9923 31.4615 41.8718 32.9579 43.3785 34.7952C44.8853 36.6324 45.9849 38.7685 46.6046 41.0623H40.5655C39.2679 37.0214 36.0335 33.8958 31.7609 33.4716V41.0623H31.0995Z" fill="white"/>
</g>
<defs>
<clipPath id="clip0_28_27614">
<rect width="60" height="60" fill="white"/>
</clipPath>
</defs>
</svg>
