<svg width="81" height="140" viewBox="0 0 81 140" fill="none" xmlns="http://www.w3.org/2000/svg">
<path d="M0.183594 40.1995C0.183594 17.9981 18.2752 0 40.592 0C62.9087 0 81.0003 17.9981 81.0003 40.1995V130.333C81.0003 134.327 76.5412 136.721 73.185 134.531L43.5145 115.167C42.6462 114.6 41.6304 114.299 40.592 114.299C39.5535 114.299 38.5377 114.6 37.6694 115.167L7.99887 134.531C4.64268 136.721 0.183594 134.327 0.183594 130.333V40.1995Z" fill="white"/>
<path d="M40.6063 73.5377C58.9761 73.5377 73.8678 58.723 73.8678 40.4481C73.8678 22.1731 58.9761 7.3584 40.6063 7.3584C22.2364 7.3584 7.34473 22.1731 7.34473 40.4481C7.34473 58.723 22.2364 73.5377 40.6063 73.5377Z" fill="#FF3D00"/>
<path d="M44.8081 26.0182H41.4945C35.8179 26.0182 32.978 28.8581 32.978 33.1143C32.978 37.8442 34.8713 40.2111 39.1275 43.051L42.4411 45.418L32.978 60.0846H25.4082L34.3984 46.8335C29.1915 43.051 26.3557 39.7374 26.3557 33.588C26.3557 26.0182 31.5585 20.8105 41.4945 20.8105H51.4305V60.0838H44.8081V26.0182Z" fill="white"/>
<path d="M14.7171 86.5711H17.5791L13.8203 82.227L17.4179 78.0645H14.6933L12.3836 80.7057L10.0624 78.0645H7.06297L10.7751 82.2498L7.00488 86.5711H9.7867L12.2691 83.8045L14.7171 86.5711ZM21.5153 86.7428H21.8721C25.423 86.7428 25.837 84.6624 25.837 83.5188V83.3356C25.837 82.2148 25.423 80.0546 21.8835 80.0546H21.5039C18.079 80.0546 17.5504 82.2148 17.5504 83.347V83.5074C17.5504 84.6624 18.079 86.7428 21.5153 86.7428ZM21.7567 85.0734H21.6299C20.1711 85.0734 19.8602 84.0674 19.8602 83.3698C19.8602 82.6495 20.1711 81.689 21.6299 81.689H21.7567C23.1705 81.689 23.5264 82.6495 23.5264 83.3698C23.5264 84.0674 23.1705 85.0734 21.7567 85.0734ZM26.9922 88.7549H29.2332V85.7596C29.509 86.0453 30.2903 86.6972 31.75 86.6972H31.9112C34.3477 86.6972 35.152 84.8447 35.152 83.4618V83.2672C35.152 81.7582 34.3583 80.1002 31.9226 80.1002H31.7729C30.3247 80.1002 29.4861 80.7399 29.2103 81.0378V80.2255H26.9922V88.7549ZM32.8308 83.404C32.8308 84.056 32.5084 85.0164 31.1069 85.0164H30.9923C29.6472 85.0164 29.2218 84.1129 29.2218 83.404V83.3698C29.2218 82.6381 29.6472 81.7582 30.9915 81.7582H31.1061C32.5084 81.7582 32.8308 82.6836 32.8308 83.3698V83.404ZM39.9449 86.7428H40.3016C43.8525 86.7428 44.2665 84.6624 44.2665 83.5188V83.3356C44.2665 82.2148 43.8525 80.0546 40.3131 80.0546H39.9334C36.5085 80.0546 35.98 82.2148 35.98 83.347V83.5074C35.98 84.6624 36.5085 86.7428 39.9449 86.7428ZM40.1862 85.0734H40.0602C38.6006 85.0734 38.2897 84.0674 38.2897 83.3698C38.2897 82.6495 38.6006 81.689 40.0602 81.689H40.1862C41.6001 81.689 41.956 82.6495 41.956 83.3698C41.956 84.0674 41.6001 85.0734 40.1862 85.0734ZM45.3989 86.5711H56.0762V80.2255H53.8343V84.8789H51.8576V80.2255H49.6166V84.8789H47.6399V80.2255H45.3981L45.3989 86.5711ZM65.2832 84.5932H62.9513C62.9047 84.7079 62.7329 85.1996 61.4336 85.1996C60.055 85.1996 59.6066 84.6046 59.5027 83.8728H65.3069V83.6669C65.3069 81.8949 64.7211 80.0888 61.4565 80.0888H60.9509C57.9285 80.0888 57.2159 81.8835 57.2159 83.3242V83.4846C57.2159 85.005 57.9973 86.72 61.1464 86.72H61.5719C64.87 86.72 65.2832 85.1076 65.2832 84.5932ZM61.2381 81.5409C62.6748 81.5409 62.8933 82.2034 62.9047 82.6722H59.5256C59.6639 82.0097 60.0656 81.5409 61.2381 81.5409ZM74.1899 84.5932H71.8573C71.8114 84.7079 71.6388 85.1996 70.3395 85.1996C68.9609 85.1996 68.5125 84.6046 68.4086 83.8728H74.2128V83.6669C74.2128 81.8949 73.627 80.0888 70.3633 80.0888H69.8576C66.8344 80.0888 66.1218 81.8835 66.1218 83.3242V83.4846C66.1218 85.005 66.904 86.72 70.0523 86.72H70.4778C73.7767 86.72 74.1899 85.1076 74.1899 84.5932ZM70.1448 81.5409C71.5815 81.5409 71.7992 82.2034 71.8114 82.6722H68.4323C68.5698 82.0097 68.9723 81.5409 70.1448 81.5409ZM20.8886 92.0596L22.8768 96.3353H24.5901L26.5782 92.0596V96.3353H28.8201V89.9897H25.7732L23.8766 94.0375L21.9801 89.9897H18.8194V96.3353H20.8886V92.0596ZM37.9534 94.3574H35.6208C35.575 94.4721 35.4023 94.9638 34.1031 94.9638C32.7244 94.9638 32.2761 94.3688 32.1722 93.637H37.9763V93.4311C37.9763 91.6591 37.3905 89.8529 34.1268 89.8529H33.6212C30.598 89.8529 29.8853 91.6477 29.8853 93.0884V93.2488C29.8853 94.7692 30.6667 96.4842 33.8159 96.4842H34.2413C37.5402 96.4842 37.9534 94.8718 37.9534 94.3574ZM33.9083 91.305C35.3451 91.305 35.5635 91.9676 35.575 92.4364H32.1959C32.3333 91.7739 32.7359 91.305 33.9083 91.305ZM46.7792 93.8429H44.4359C44.4244 94.0033 44.2395 94.849 42.9067 94.849H42.7922C41.4937 94.849 41.1149 93.9113 41.1149 93.1226V93.1112C41.1149 92.3339 41.4356 91.4418 42.7463 91.4418H42.8609C44.1831 91.4418 44.413 92.2305 44.4359 92.4136H46.78V92.4022C46.78 91.4988 46.1827 89.8188 43.0908 89.8188H42.5622C39.355 89.8188 38.7929 91.8878 38.7929 93.0884V93.2488C38.7929 94.4493 39.3787 96.507 42.5737 96.507H43.1366C46.2048 96.507 46.7792 94.8034 46.7792 93.8429ZM49.7238 96.3353H51.9648V91.6819H54.4357V89.9897H47.2521V91.6819H49.723L49.7238 96.3353ZM58.885 96.507H59.2417C62.7926 96.507 63.2066 94.4257 63.2066 93.2829V93.0998C63.2066 91.979 62.7934 89.8188 59.2532 89.8188H58.8743C55.4494 89.8188 54.9201 91.979 54.9201 93.1112V93.2716C54.9201 94.4257 55.4486 96.507 58.885 96.507ZM59.1272 94.8376H59.0003C57.5407 94.8376 57.2306 93.8315 57.2306 93.134C57.2306 92.4136 57.5407 91.4532 59.0003 91.4532H59.1263C60.5402 91.4532 60.8969 92.4136 60.8969 93.134C60.8969 93.8315 60.5402 94.8376 59.1272 94.8376ZM26.4768 101.79H27.1436C27.3768 101.79 27.5543 101.827 27.6762 101.899C27.799 101.972 27.8595 102.094 27.8595 102.267C27.8607 102.329 27.8504 102.392 27.8292 102.451C27.8098 102.501 27.7799 102.546 27.7417 102.584C27.7032 102.622 27.658 102.653 27.6083 102.674C27.5522 102.699 27.4934 102.717 27.4332 102.729C27.5969 102.748 27.7212 102.793 27.8047 102.862C27.889 102.931 27.9307 103.036 27.9307 103.177C27.9331 103.268 27.9122 103.358 27.8702 103.438C27.8301 103.509 27.7727 103.569 27.7032 103.612C27.6256 103.658 27.5407 103.692 27.4521 103.711C27.3486 103.731 27.2433 103.741 27.1379 103.74H26.476L26.4768 101.79ZM26.8073 102.076V102.595H27.1592C27.2527 102.6 27.3454 102.576 27.4251 102.527C27.4922 102.48 27.5257 102.407 27.5257 102.307C27.5257 102.216 27.4946 102.156 27.4332 102.125C27.3529 102.088 27.2647 102.071 27.1763 102.076H26.8073ZM26.8073 102.878V103.457H27.1706C27.2328 103.457 27.2892 103.452 27.34 103.444C27.3861 103.435 27.4303 103.418 27.4709 103.395C27.5062 103.372 27.5355 103.342 27.556 103.305C27.5772 103.262 27.5876 103.214 27.5862 103.166C27.5862 103.059 27.5502 102.985 27.4799 102.943C27.4103 102.9 27.2982 102.878 27.1436 102.878H26.8073ZM29.3576 103.253C29.3595 103.327 29.3438 103.401 29.3118 103.468C29.2841 103.528 29.2419 103.58 29.1891 103.62C29.1324 103.662 29.0682 103.693 29.0001 103.711C28.9264 103.73 28.8471 103.74 28.7595 103.74H28.2318V102.328H28.5492V102.786H28.7702C28.9559 102.786 29.0999 102.823 29.2022 102.9C29.3061 102.976 29.3576 103.094 29.3576 103.253ZM29.8362 103.74H29.5196V102.328H29.8362V103.74ZM28.5492 103.036V103.492H28.735C28.8093 103.496 28.8831 103.478 28.9477 103.441C29.005 103.404 29.0328 103.346 29.0328 103.264C29.0328 103.182 29.0082 103.124 28.9592 103.09C28.8959 103.05 28.8214 103.031 28.7464 103.036H28.5492ZM31.5225 103.038C31.5225 103.156 31.5037 103.26 31.4677 103.352C31.4342 103.437 31.3829 103.515 31.3172 103.579C31.2536 103.642 31.1771 103.691 31.093 103.721C30.9114 103.786 30.7127 103.784 30.5325 103.715C30.4479 103.681 30.3723 103.629 30.3116 103.561C30.2463 103.484 30.1963 103.395 30.1643 103.299C30.1275 103.18 30.1098 103.055 30.112 102.93C30.112 102.801 30.1177 102.683 30.1283 102.576C30.139 102.469 30.157 102.373 30.1832 102.288C30.2077 102.208 30.2444 102.133 30.292 102.065C30.3433 101.992 30.4091 101.931 30.4852 101.885C30.5614 101.838 30.6463 101.808 30.7346 101.796C30.8312 101.781 30.9302 101.772 31.03 101.768C31.1412 101.764 31.2255 101.754 31.282 101.742C31.3323 101.729 31.381 101.711 31.4268 101.687V101.967C31.4069 101.98 31.3858 101.991 31.3638 102C31.3386 102.008 31.3129 102.014 31.2869 102.019L31.1862 102.035L31.0521 102.046C30.9674 102.054 30.8829 102.063 30.7984 102.073C30.7254 102.079 30.655 102.102 30.5931 102.141C30.5232 102.189 30.4698 102.257 30.4401 102.337C30.4073 102.42 30.3852 102.522 30.3746 102.642C30.4646 102.437 30.6413 102.334 30.9015 102.334C30.9858 102.334 31.0652 102.35 31.1388 102.383C31.2147 102.413 31.2831 102.46 31.3392 102.519C31.3982 102.583 31.4438 102.658 31.4734 102.739C31.5062 102.827 31.5225 102.926 31.5225 103.038ZM30.814 103.504C30.8648 103.505 30.9155 103.496 30.9626 103.477C31.0097 103.458 31.0521 103.429 31.0872 103.392C31.1609 103.316 31.1969 103.2 31.1969 103.044C31.1969 102.888 31.1609 102.773 31.0881 102.699C31.0534 102.661 31.011 102.631 30.9636 102.612C30.9163 102.592 30.8653 102.582 30.814 102.584C30.7636 102.583 30.7135 102.592 30.667 102.611C30.6205 102.63 30.5786 102.659 30.544 102.696C30.4744 102.77 30.4401 102.884 30.4401 103.038C30.4401 103.198 30.4752 103.316 30.5464 103.392C30.5806 103.429 30.6221 103.457 30.6682 103.476C30.7143 103.496 30.764 103.505 30.814 103.504ZM32.4078 103.767C32.3126 103.768 32.218 103.752 32.1288 103.719C32.0452 103.687 31.9689 103.639 31.9046 103.577C31.8408 103.51 31.7908 103.432 31.7573 103.346C31.721 103.246 31.7032 103.14 31.705 103.033C31.705 102.915 31.7222 102.811 31.7573 102.721C31.7902 102.635 31.8403 102.557 31.9046 102.492C31.9679 102.429 32.0444 102.38 32.1288 102.35C32.2177 102.317 32.312 102.301 32.407 102.302C32.5076 102.302 32.6009 102.318 32.6868 102.35C32.7708 102.381 32.8471 102.429 32.9102 102.492C32.9762 102.557 33.0276 102.635 33.0607 102.721C33.0975 102.811 33.1155 102.915 33.1155 103.033C33.1155 103.151 33.0975 103.256 33.0607 103.346C33.027 103.432 32.9761 103.511 32.911 103.577C32.8466 103.639 32.7704 103.687 32.6868 103.719C32.5976 103.752 32.503 103.768 32.4078 103.767ZM32.4078 103.504C32.4585 103.505 32.5088 103.496 32.5554 103.476C32.602 103.456 32.6438 103.426 32.6778 103.389C32.7514 103.313 32.7874 103.194 32.7874 103.033C32.7874 102.874 32.7514 102.756 32.6786 102.679C32.6447 102.641 32.6029 102.611 32.5561 102.591C32.5093 102.571 32.4587 102.562 32.4078 102.563C32.357 102.562 32.3067 102.572 32.2601 102.592C32.2136 102.612 32.1719 102.642 32.1378 102.679C32.0658 102.756 32.0306 102.874 32.0306 103.033C32.0306 103.194 32.0658 103.313 32.137 103.389C32.2106 103.466 32.3014 103.504 32.4078 103.504ZM34.1628 103.767C34.065 103.77 33.9684 103.746 33.8838 103.697C33.8067 103.647 33.743 103.58 33.6981 103.5V104.222H33.3806V102.328H33.6702L33.6923 102.579C33.7366 102.497 33.8014 102.428 33.8805 102.378C33.9665 102.325 34.0665 102.298 34.1677 102.302C34.252 102.302 34.3313 102.317 34.4058 102.348C34.4824 102.377 34.5509 102.423 34.6054 102.484C34.6656 102.55 34.711 102.628 34.7388 102.713C34.774 102.803 34.7912 102.91 34.7912 103.033C34.7912 103.158 34.774 103.267 34.7396 103.36C34.71 103.444 34.6632 103.522 34.6022 103.588C34.5467 103.647 34.4789 103.693 34.4033 103.724C34.3266 103.753 34.245 103.768 34.1628 103.767ZM34.0859 103.504C34.1988 103.504 34.2904 103.466 34.3592 103.389C34.4303 103.312 34.4655 103.193 34.4655 103.033C34.4655 102.875 34.4303 102.757 34.3592 102.679C34.3256 102.641 34.2839 102.611 34.2372 102.591C34.1906 102.571 34.14 102.561 34.0892 102.563C34.0366 102.562 33.9846 102.572 33.936 102.592C33.8875 102.612 33.8436 102.642 33.8069 102.679C33.7701 102.723 33.7423 102.774 33.7251 102.829C33.7037 102.895 33.6935 102.964 33.6948 103.033C33.6938 103.104 33.704 103.175 33.7251 103.242C33.7427 103.296 33.7704 103.346 33.8069 103.389C33.8407 103.427 33.8826 103.457 33.9296 103.476C33.9796 103.494 34.0326 103.504 34.0859 103.504ZM35.6601 102.328H36.8652V103.74H36.5486V102.584H35.9775V103.74H35.6601V102.328ZM37.8364 103.767C37.7415 103.768 37.6472 103.752 37.5582 103.719C37.4747 103.687 37.3984 103.639 37.3341 103.577C37.2703 103.51 37.2202 103.432 37.1868 103.346C37.1504 103.246 37.1327 103.14 37.1344 103.033C37.1344 102.915 37.1516 102.811 37.186 102.721C37.2189 102.635 37.269 102.557 37.3333 102.492C37.3968 102.429 37.4736 102.38 37.5582 102.35C37.6472 102.317 37.7415 102.301 37.8364 102.302C37.9371 102.302 38.0295 102.318 38.1154 102.35C38.1998 102.381 38.2763 102.429 38.3396 102.492C38.4057 102.557 38.457 102.635 38.4902 102.721C38.5262 102.811 38.545 102.915 38.545 103.033C38.545 103.151 38.5262 103.256 38.4902 103.346C38.4563 103.432 38.4051 103.511 38.3396 103.577C38.2753 103.639 38.199 103.687 38.1154 103.719C38.0265 103.752 37.9314 103.768 37.8364 103.767ZM37.8364 103.504C37.8872 103.505 37.9377 103.496 37.9845 103.476C38.0312 103.456 38.0731 103.426 38.1072 103.389C38.1809 103.313 38.2169 103.194 38.2169 103.033C38.2169 102.874 38.1801 102.756 38.1072 102.679C38.0734 102.642 38.0317 102.612 37.9851 102.592C37.9385 102.571 37.888 102.562 37.8372 102.563C37.7864 102.562 37.7359 102.572 37.6892 102.592C37.6425 102.612 37.6006 102.642 37.5664 102.679C37.4952 102.756 37.4601 102.874 37.4601 103.033C37.4601 103.194 37.4952 103.313 37.5664 103.389C37.6007 103.426 37.6425 103.456 37.689 103.475C37.7356 103.495 37.7858 103.505 37.8364 103.504ZM38.8927 103.24C38.9132 103.147 38.9254 103.028 38.9312 102.881C38.9385 102.732 38.9418 102.548 38.9418 102.328H39.9612V103.74H39.6446V102.584H39.2314C39.2282 102.771 39.2208 102.936 39.2102 103.079C39.2029 103.203 39.1798 103.325 39.1414 103.444C39.1156 103.531 39.0654 103.609 38.9966 103.669C38.9253 103.725 38.836 103.753 38.7454 103.748C38.7307 103.748 38.7159 103.747 38.7012 103.746C38.6876 103.745 38.6739 103.745 38.6603 103.743V103.449C38.6792 103.452 38.6931 103.455 38.7012 103.455C38.7236 103.456 38.7458 103.451 38.7662 103.442C38.7866 103.433 38.8047 103.42 38.8191 103.403C38.8555 103.355 38.8807 103.299 38.8927 103.24ZM41.4634 103.253C41.4651 103.327 41.4491 103.401 41.4168 103.468C41.3891 103.528 41.3469 103.58 41.2941 103.62C41.2376 103.662 41.1738 103.692 41.1059 103.711C41.0271 103.731 40.9459 103.741 40.8645 103.74H40.318V102.328H40.6346V102.786H40.8727C41.0584 102.786 41.2032 102.823 41.3072 102.9C41.4111 102.976 41.4634 103.094 41.4634 103.253ZM40.6346 103.036V103.492H40.84C40.9143 103.496 40.9881 103.478 41.0527 103.441C41.1075 103.404 41.1345 103.346 41.1345 103.264C41.1345 103.182 41.11 103.124 41.0609 103.09C40.9976 103.05 40.9231 103.031 40.8482 103.036H40.6346ZM42.766 103.335C42.7681 103.401 42.7525 103.467 42.7209 103.525C42.6893 103.583 42.6427 103.632 42.586 103.667C42.5263 103.703 42.4607 103.729 42.3921 103.743C42.3168 103.759 42.2374 103.767 42.154 103.767C42.0337 103.767 41.9355 103.755 41.8594 103.732C41.7974 103.713 41.7376 103.688 41.6811 103.656V103.397C41.7417 103.435 41.808 103.464 41.8774 103.482C41.9584 103.501 42.0443 103.512 42.1376 103.512C42.2164 103.515 42.2949 103.5 42.3667 103.468C42.424 103.439 42.4518 103.39 42.4518 103.321C42.4518 103.256 42.4264 103.21 42.3757 103.182C42.301 103.149 42.2193 103.134 42.1376 103.139H41.938V102.9H42.1425C42.211 102.904 42.2792 102.889 42.3397 102.857C42.3624 102.843 42.381 102.824 42.3935 102.801C42.4061 102.778 42.4121 102.752 42.4109 102.726C42.4109 102.662 42.3847 102.619 42.3315 102.595C42.2688 102.568 42.2005 102.555 42.1319 102.557C41.9811 102.555 41.8326 102.594 41.7032 102.671V102.413C41.761 102.379 41.8236 102.353 41.8889 102.337C41.9674 102.314 42.064 102.302 42.1785 102.302C42.3536 102.302 42.4862 102.333 42.5778 102.397C42.6225 102.428 42.6584 102.469 42.6824 102.518C42.7063 102.566 42.7173 102.62 42.7144 102.674C42.7188 102.754 42.6911 102.832 42.6375 102.892C42.5744 102.948 42.4969 102.987 42.4133 103.003C42.649 103.039 42.766 103.15 42.766 103.335ZM43.6905 103.767C43.5953 103.768 43.5007 103.752 43.4115 103.719C43.3279 103.687 43.2517 103.639 43.1873 103.577C43.1235 103.51 43.0735 103.432 43.0401 103.346C43.0037 103.246 42.9859 103.14 42.9877 103.033C42.9877 102.915 43.0049 102.811 43.0401 102.721C43.0729 102.635 43.1231 102.557 43.1873 102.492C43.2506 102.429 43.3272 102.381 43.4115 102.35C43.5005 102.317 43.5947 102.301 43.6897 102.302C43.7903 102.302 43.8836 102.318 43.9687 102.35C44.0531 102.38 44.1296 102.429 44.1929 102.492C44.259 102.557 44.3103 102.635 44.3434 102.721C44.3802 102.811 44.3982 102.915 44.3982 103.033C44.3982 103.151 44.3802 103.256 44.3434 103.346C44.3096 103.432 44.2583 103.511 44.1929 103.577C44.1288 103.639 44.0528 103.687 43.9695 103.719C43.8803 103.752 43.7857 103.768 43.6905 103.767ZM43.6905 103.504C43.7412 103.505 43.7915 103.496 43.8381 103.476C43.8847 103.456 43.9265 103.426 43.9605 103.389C44.0342 103.313 44.0702 103.194 44.0702 103.033C44.0702 102.874 44.0342 102.756 43.9605 102.679C43.9267 102.642 43.885 102.612 43.8384 102.592C43.7918 102.571 43.7413 102.562 43.6905 102.563C43.6396 102.562 43.5892 102.572 43.5424 102.592C43.4957 102.612 43.4539 102.642 43.4197 102.679C43.3485 102.756 43.3133 102.874 43.3133 103.033C43.3133 103.194 43.3485 103.313 43.4197 103.389C43.4933 103.466 43.5842 103.504 43.6905 103.504ZM44.6642 102.328H45.2426C45.6026 102.328 45.7818 102.446 45.7818 102.682C45.7818 102.77 45.7572 102.838 45.7082 102.889C45.6489 102.944 45.5761 102.983 45.4971 103.001C45.6116 103.017 45.6975 103.052 45.754 103.107C45.8112 103.161 45.8391 103.238 45.8391 103.338C45.8405 103.4 45.8252 103.462 45.7949 103.517C45.7654 103.568 45.7232 103.611 45.6722 103.642C45.6143 103.677 45.5506 103.702 45.484 103.715C45.4087 103.732 45.3269 103.74 45.2377 103.74H44.6633L44.6642 102.328ZM44.9775 102.571V102.906H45.2099C45.2868 102.906 45.349 102.892 45.3956 102.865C45.4178 102.852 45.4362 102.834 45.4488 102.812C45.4613 102.79 45.4675 102.765 45.4668 102.739C45.4668 102.676 45.4463 102.633 45.4038 102.609C45.3494 102.58 45.2879 102.567 45.2262 102.571H44.9775ZM44.9775 103.129V103.498H45.2213C45.2934 103.501 45.3652 103.488 45.4316 103.46C45.4864 103.435 45.5134 103.387 45.5134 103.318C45.5134 103.25 45.4889 103.201 45.4398 103.172C45.3694 103.138 45.2912 103.123 45.2132 103.129H44.9775ZM46.9673 103.492C46.9331 103.566 46.8814 103.631 46.8168 103.68C46.7786 103.708 46.7364 103.729 46.6916 103.743C46.6425 103.759 46.5852 103.767 46.5198 103.767C46.407 103.768 46.2971 103.732 46.2072 103.664C46.1682 103.628 46.1368 103.585 46.1148 103.536C46.0921 103.479 46.0809 103.418 46.0821 103.356C46.0821 103.203 46.1393 103.088 46.2539 103.011C46.3684 102.933 46.5312 102.894 46.7407 102.894H46.9567V102.807C46.9567 102.715 46.9322 102.652 46.8855 102.617C46.8381 102.581 46.7595 102.563 46.6507 102.563C46.5615 102.562 46.4728 102.576 46.3881 102.604C46.3143 102.626 46.2431 102.656 46.1753 102.693V102.429C46.3385 102.346 46.519 102.303 46.7023 102.302C46.8847 102.302 47.0246 102.34 47.1236 102.416C47.2234 102.49 47.2733 102.61 47.2733 102.774V103.569C47.2754 103.59 47.2765 103.611 47.2766 103.632L47.2815 103.693L47.2872 103.74H46.9952C46.9797 103.665 46.9715 103.588 46.9706 103.512L46.9673 103.492ZM46.6073 103.522C46.6654 103.525 46.723 103.511 46.7734 103.482C46.8154 103.456 46.8525 103.423 46.8831 103.384C46.9237 103.329 46.9491 103.264 46.9567 103.196V103.101H46.7603C46.6343 103.101 46.5419 103.121 46.4838 103.161C46.456 103.178 46.4332 103.202 46.4178 103.231C46.4024 103.259 46.395 103.291 46.3962 103.324C46.3962 103.386 46.4134 103.435 46.4478 103.471C46.4846 103.505 46.5386 103.522 46.6073 103.522ZM48.2314 102.584V103.74H47.914V102.584H47.4844V102.328H48.6683V102.584H48.2314ZM50.0617 103.636C50.0376 103.652 50.0131 103.667 49.9881 103.68C49.9545 103.697 49.9198 103.71 49.8842 103.721C49.7803 103.752 49.6726 103.768 49.5642 103.767C49.3032 103.767 49.1085 103.703 48.9792 103.574C48.8516 103.445 48.7878 103.265 48.7878 103.033C48.7878 102.919 48.805 102.817 48.8402 102.726C48.8712 102.641 48.9199 102.565 48.9829 102.501C49.0459 102.436 49.1219 102.386 49.2059 102.354C49.2954 102.318 49.391 102.3 49.4873 102.302C49.5848 102.3 49.6816 102.317 49.7721 102.354C49.858 102.388 49.9275 102.439 49.9823 102.508C50.0397 102.583 50.0782 102.671 50.0944 102.764C50.1165 102.866 50.1173 102.984 50.0969 103.12H49.1159C49.12 103.23 49.166 103.334 49.2443 103.411C49.318 103.474 49.4309 103.506 49.5863 103.506C49.7543 103.511 49.92 103.466 50.0617 103.376V103.636ZM49.4873 102.551C49.4011 102.549 49.3173 102.579 49.2525 102.636C49.1831 102.703 49.1386 102.791 49.1265 102.886H49.7942C49.7974 102.772 49.7721 102.687 49.7172 102.634C49.6866 102.605 49.6505 102.583 49.6112 102.569C49.5718 102.555 49.5291 102.549 49.4873 102.551ZM50.5093 103.24C50.5297 103.147 50.542 103.028 50.5477 102.881C50.5551 102.732 50.5583 102.548 50.5583 102.328H51.5778V103.74H51.2612V102.584H50.848C50.8447 102.771 50.8373 102.936 50.8267 103.079C50.8194 103.203 50.7963 103.325 50.758 103.444C50.7321 103.531 50.6819 103.609 50.6132 103.669C50.5419 103.725 50.4526 103.753 50.362 103.748C50.3472 103.748 50.3325 103.747 50.3178 103.746C50.3041 103.745 50.2905 103.745 50.2769 103.743V103.449C50.2904 103.452 50.304 103.454 50.3178 103.455C50.3401 103.456 50.3623 103.451 50.3827 103.442C50.4032 103.433 50.4212 103.42 50.4356 103.403C50.472 103.355 50.4972 103.299 50.5093 103.24ZM53.1233 103.636C53.0993 103.652 53.0747 103.667 53.0497 103.68C53.0161 103.697 52.9814 103.71 52.9458 103.721C52.842 103.752 52.7342 103.768 52.6259 103.767C52.3649 103.767 52.1702 103.703 52.0409 103.574C51.9132 103.445 51.8494 103.265 51.8494 103.033C51.8494 102.919 51.8666 102.817 51.9018 102.726C51.9329 102.641 51.9816 102.565 52.0446 102.501C52.1076 102.437 52.1836 102.386 52.2675 102.354C52.357 102.318 52.4526 102.3 52.549 102.302C52.6464 102.3 52.7433 102.317 52.8337 102.354C52.9196 102.388 52.9892 102.439 53.044 102.508C53.1014 102.583 53.1398 102.671 53.1561 102.764C53.1782 102.866 53.179 102.984 53.1585 103.12H52.1775C52.1816 103.23 52.2275 103.334 52.306 103.411C52.3796 103.474 52.4925 103.506 52.648 103.506C52.8157 103.511 52.981 103.466 53.1225 103.376L53.1233 103.636ZM52.549 102.551C52.4628 102.549 52.3789 102.579 52.3142 102.636C52.2447 102.703 52.2002 102.791 52.1882 102.886H52.8558C52.8591 102.772 52.8337 102.687 52.7789 102.634C52.7483 102.605 52.7122 102.583 52.6728 102.569C52.6334 102.555 52.5908 102.549 52.549 102.551ZM54.0929 102.16C54.0252 102.161 53.9577 102.151 53.8933 102.131C53.842 102.112 53.7947 102.085 53.7542 102.048C53.7182 102.013 53.6903 101.971 53.6723 101.924C53.6538 101.874 53.6444 101.821 53.6445 101.768H53.9227C53.9227 101.832 53.9382 101.878 53.9669 101.908C53.998 101.934 54.0405 101.948 54.0929 101.948C54.1375 101.951 54.1815 101.936 54.2156 101.908C54.2451 101.878 54.2598 101.832 54.2598 101.768H54.5413C54.5414 101.821 54.5319 101.874 54.5134 101.924C54.4952 101.971 54.4664 102.014 54.4292 102.048C54.3892 102.085 54.3418 102.113 54.2901 102.131C54.2264 102.151 54.1598 102.161 54.0929 102.16ZM53.7672 103.313L54.4234 102.328H54.7343V103.74H54.421V102.761L53.7705 103.74H53.4531V102.328H53.7672V103.313ZM30.553 104.844C30.551 104.752 30.5697 104.66 30.6078 104.575C30.6419 104.5 30.6945 104.434 30.7608 104.384C30.8311 104.332 30.9112 104.293 30.9964 104.271C31.0889 104.245 31.192 104.232 31.3049 104.232H31.9414V106.182H31.6084V105.431H31.3049L30.805 106.182H30.4196L30.9711 105.382C30.8468 105.359 30.7348 105.292 30.6544 105.195C30.5838 105.092 30.5483 104.969 30.553 104.844ZM31.6084 105.157V104.518H31.3024C31.1981 104.513 31.0946 104.538 31.0046 104.591C30.931 104.638 30.895 104.72 30.895 104.836C30.895 104.95 30.9277 105.032 30.9932 105.084C31.0586 105.132 31.1519 105.157 31.2713 105.157H31.6084ZM33.2432 105.587H32.6459V106.182H32.3284V104.77H32.6459V105.331H33.244V104.77H33.5614V106.182H33.244L33.2432 105.587ZM33.8781 105.926C33.9229 105.885 33.9567 105.834 33.9762 105.777C34.0016 105.714 34.0212 105.635 34.036 105.54C34.0507 105.444 34.0622 105.333 34.0687 105.206C34.0769 105.079 34.0826 104.934 34.0883 104.77H35.1274V105.926H35.3402V106.585H35.0636L35.0391 106.182H34.0613L34.0368 106.585H33.7586V105.926H33.8789H33.8781ZM34.81 105.926V105.026H34.3616C34.3557 105.212 34.3401 105.397 34.315 105.581C34.2953 105.726 34.261 105.841 34.2143 105.926H34.81ZM36.7327 106.078C36.7086 106.094 36.6841 106.108 36.6591 106.122C36.6255 106.138 36.5908 106.152 36.5552 106.163C36.4516 106.194 36.3441 106.209 36.2361 106.209C35.9751 106.209 35.7803 106.145 35.6511 106.016C35.5234 105.887 35.4596 105.707 35.4596 105.475C35.4596 105.36 35.476 105.259 35.5112 105.167C35.5422 105.083 35.591 105.006 35.6542 104.942C35.7174 104.878 35.7936 104.828 35.8777 104.795C35.9672 104.76 36.0628 104.742 36.1592 104.743C36.2563 104.742 36.3529 104.759 36.4431 104.795C36.529 104.83 36.5985 104.881 36.6542 104.95C36.7116 105.025 36.75 105.113 36.7662 105.206C36.7875 105.307 36.7883 105.426 36.7687 105.562H35.7869C35.7912 105.672 35.8375 105.776 35.9162 105.853C35.989 105.916 36.1027 105.948 36.2573 105.948C36.4253 105.953 36.591 105.908 36.7327 105.818V106.078ZM36.1592 104.993C36.073 104.991 35.9891 105.021 35.9243 105.078C35.8549 105.145 35.8105 105.233 35.7983 105.328H36.4652C36.4692 105.214 36.4431 105.129 36.3891 105.076C36.3583 105.047 36.3221 105.025 36.2826 105.011C36.2431 104.997 36.2011 104.991 36.1592 104.993ZM37.5026 105.608H37.3799V106.182H37.0641V104.77H37.3807V105.352H37.5149L37.9657 104.77H38.2995L37.7636 105.451L38.3208 106.182H37.9469L37.5042 105.608H37.5026ZM39.1177 106.209C39.0032 106.209 38.9001 106.193 38.8084 106.16C38.7219 106.128 38.6428 106.079 38.5761 106.016C38.5109 105.95 38.4607 105.872 38.4288 105.785C38.3926 105.686 38.3749 105.581 38.3764 105.475C38.3764 105.36 38.3944 105.259 38.4288 105.167C38.4606 105.081 38.5116 105.003 38.5778 104.938C38.6441 104.874 38.724 104.825 38.8117 104.795C38.9113 104.76 39.0167 104.742 39.1226 104.743C39.2208 104.743 39.3067 104.754 39.3795 104.776C39.4548 104.798 39.5137 104.825 39.5579 104.857V105.119C39.5003 105.082 39.4378 105.054 39.3722 105.035C39.2975 105.013 39.22 105.003 39.1422 105.005C38.8485 105.005 38.7021 105.161 38.7021 105.475C38.7021 105.789 38.8461 105.946 39.1341 105.946C39.2265 105.946 39.3059 105.935 39.3713 105.916C39.4362 105.895 39.4987 105.868 39.5579 105.834V106.095C39.5022 106.129 39.4423 106.157 39.3795 106.177C39.2943 106.2 39.2061 106.211 39.1177 106.209ZM40.6665 105.934C40.6328 106.008 40.5814 106.073 40.5168 106.122C40.4783 106.15 40.4358 106.171 40.3908 106.185C40.3417 106.201 40.2844 106.209 40.219 106.209C40.1064 106.21 39.9968 106.174 39.9072 106.106C39.868 106.07 39.8363 106.026 39.814 105.978C39.7913 105.921 39.7802 105.86 39.7812 105.798C39.7812 105.644 39.8385 105.53 39.9531 105.453C40.0676 105.375 40.2304 105.336 40.4399 105.336H40.6559V105.249C40.6559 105.157 40.6322 105.093 40.5847 105.059C40.5372 105.023 40.4587 105.005 40.3499 105.005C40.261 105.004 40.1725 105.018 40.0881 105.045C40.0141 105.068 39.9425 105.098 39.8745 105.135V104.871C40.0377 104.788 40.2182 104.744 40.4014 104.743C40.5839 104.743 40.7246 104.782 40.8228 104.857C40.9226 104.932 40.9733 105.052 40.9733 105.216V106.011C40.975 106.03 40.9758 106.051 40.9758 106.073L40.9815 106.135L40.9864 106.182H40.6943C40.6789 106.107 40.6707 106.03 40.6698 105.954L40.6665 105.934ZM40.3065 105.964C40.3646 105.966 40.4222 105.952 40.4726 105.924C40.5146 105.898 40.5517 105.865 40.5822 105.826C40.6229 105.771 40.6482 105.706 40.6559 105.638V105.543H40.4595C40.3335 105.543 40.2411 105.563 40.183 105.603C40.1551 105.62 40.1324 105.644 40.117 105.673C40.1016 105.701 40.0941 105.733 40.0954 105.766C40.094 105.793 40.0978 105.819 40.1068 105.845C40.1158 105.87 40.1297 105.893 40.1478 105.913C40.1838 105.947 40.2378 105.964 40.3065 105.964ZM41.8881 105.233H44.1242V105.48H41.8881V105.233ZM46.2122 106.182H44.9464V105.869C45.1101 105.742 45.2508 105.63 45.3678 105.532C45.484 105.434 45.5789 105.344 45.6517 105.263C45.727 105.18 45.781 105.102 45.8153 105.029C45.8497 104.957 45.8676 104.878 45.8677 104.798C45.8698 104.755 45.8629 104.712 45.8474 104.672C45.8319 104.631 45.8082 104.595 45.7777 104.564C45.7196 104.506 45.6353 104.477 45.5265 104.477C45.428 104.477 45.3309 104.501 45.2442 104.548C45.1544 104.595 45.0717 104.654 44.9988 104.725V104.412C45.1526 104.274 45.3543 104.2 45.5617 104.205C45.6599 104.205 45.7499 104.218 45.8293 104.246C45.9094 104.273 45.9765 104.312 46.0322 104.362C46.0889 104.412 46.133 104.475 46.1606 104.545C46.2249 104.712 46.2211 104.897 46.15 105.062C46.1115 105.147 46.0534 105.233 45.9773 105.32C45.8906 105.418 45.7954 105.509 45.6926 105.592C45.5797 105.686 45.4472 105.79 45.2942 105.905H46.2122V106.182ZM47.0729 106.209C46.9792 106.213 46.886 106.193 46.802 106.152C46.7179 106.111 46.6457 106.049 46.5918 105.972C46.5274 105.877 46.4811 105.772 46.4552 105.66C46.42 105.511 46.4035 105.359 46.4061 105.206C46.4061 105.03 46.4224 104.879 46.4552 104.754C46.4809 104.643 46.5273 104.538 46.5918 104.445C46.6461 104.368 46.7193 104.306 46.8045 104.265C46.8863 104.227 46.9763 104.208 47.0729 104.208C47.1651 104.204 47.2567 104.224 47.3393 104.265C47.422 104.305 47.493 104.366 47.5458 104.441C47.6031 104.521 47.6497 104.624 47.6824 104.749C47.7152 104.874 47.7315 105.024 47.7315 105.2C47.7315 105.376 47.7152 105.527 47.6824 105.654C47.6497 105.781 47.6039 105.886 47.5458 105.97C47.4927 106.047 47.4213 106.11 47.338 106.152C47.255 106.191 47.1644 106.21 47.0729 106.209ZM47.0696 105.946C47.1195 105.947 47.1687 105.934 47.212 105.91C47.2583 105.879 47.2945 105.836 47.3159 105.785C47.3437 105.727 47.365 105.652 47.3789 105.559C47.3936 105.465 47.401 105.348 47.401 105.208C47.401 105.071 47.3928 104.956 47.3789 104.863C47.3701 104.784 47.3497 104.707 47.3183 104.634C47.297 104.583 47.2608 104.54 47.2144 104.51C47.1719 104.484 47.1228 104.471 47.0729 104.472C47.022 104.471 46.9718 104.484 46.9281 104.51C46.8815 104.54 46.8446 104.584 46.8217 104.634C46.7902 104.707 46.769 104.784 46.7587 104.863C46.7426 104.977 46.7352 105.093 46.7366 105.208C46.7366 105.348 46.744 105.465 46.7587 105.559C46.7726 105.652 46.7939 105.727 46.8209 105.785C46.8423 105.836 46.8785 105.879 46.9248 105.91C46.9673 105.933 47.0148 105.946 47.0696 105.946ZM49.2173 106.182H47.9524V105.869C48.1161 105.742 48.2568 105.63 48.373 105.532C48.49 105.434 48.5849 105.344 48.6577 105.263C48.7322 105.18 48.787 105.102 48.8213 105.029C48.8557 104.957 48.8736 104.878 48.8737 104.798C48.8758 104.755 48.8689 104.712 48.8534 104.672C48.8379 104.631 48.8142 104.595 48.7837 104.564C48.7248 104.506 48.6413 104.477 48.5317 104.477C48.4334 104.477 48.3367 104.502 48.2502 104.548C48.1604 104.595 48.0777 104.654 48.0048 104.725V104.412C48.1586 104.274 48.3603 104.2 48.5677 104.205C48.6659 104.205 48.7551 104.218 48.8352 104.246C48.9154 104.273 48.9825 104.312 49.0373 104.362C49.0941 104.412 49.1381 104.475 49.1658 104.545C49.23 104.712 49.2262 104.897 49.1552 105.062C49.1111 105.156 49.0532 105.243 48.9833 105.32C48.8966 105.418 48.8014 105.509 48.6986 105.592C48.5857 105.686 48.4532 105.79 48.2993 105.905H49.2182L49.2173 106.182ZM50.7203 106.182H49.4546V105.869C49.6182 105.742 49.759 105.63 49.876 105.532C49.9922 105.434 50.0871 105.344 50.1599 105.263C50.2352 105.18 50.29 105.102 50.3235 105.029C50.3579 104.957 50.3758 104.878 50.3759 104.798C50.378 104.755 50.3711 104.712 50.3556 104.672C50.3401 104.631 50.3164 104.595 50.2859 104.564C50.2278 104.506 50.1435 104.477 50.0347 104.477C49.9364 104.477 49.8397 104.502 49.7532 104.548C49.6631 104.595 49.5802 104.654 49.507 104.725V104.412C49.6608 104.274 49.8625 104.2 50.0699 104.205C50.161 104.204 50.2517 104.218 50.3382 104.246C50.4176 104.273 50.4855 104.312 50.5403 104.362C50.5971 104.412 50.6411 104.475 50.6688 104.545C50.733 104.712 50.7292 104.897 50.6582 105.062C50.6139 105.156 50.5557 105.243 50.4855 105.32C50.3988 105.418 50.3036 105.509 50.2008 105.592C50.0879 105.686 49.9553 105.79 49.8023 105.905H50.7203V106.182Z" fill="#323555"/>
</svg>
