<svg width="60" height="60" viewBox="0 0 60 60" fill="none" xmlns="http://www.w3.org/2000/svg">
<g clip-path="url(#clip0_28_27622)">
<path d="M30 60C46.5685 60 60 46.5685 60 30C60 13.4315 46.5685 0 30 0C13.4315 0 0 13.4315 0 30C0 46.5685 13.4315 60 30 60Z" fill="#FF0000"/>
<path d="M44.799 22.3756C44.6222 21.7166 44.2751 21.1157 43.7926 20.6332C43.3101 20.1508 42.7092 19.8037 42.0502 19.6268C39.6279 18.9766 29.9023 18.9766 29.9023 18.9766C29.9023 18.9766 20.1767 18.9766 17.7516 19.6268C17.0933 19.8052 16.4933 20.1528 16.011 20.6351C15.5288 21.1173 15.1812 21.7174 15.0028 22.3756C14.3525 24.8007 14.3525 29.8603 14.3525 29.8603C14.3525 29.8603 14.3525 34.9198 15.0028 37.3449C15.1812 38.0032 15.5288 38.6033 16.011 39.0855C16.4933 39.5677 17.0933 39.9154 17.7516 40.0938C20.1767 40.744 29.9023 40.744 29.9023 40.744C29.9023 40.744 39.6251 40.744 42.0502 40.0938C42.7092 39.9169 43.3101 39.5698 43.7926 39.0873C44.2751 38.6048 44.6222 38.0039 44.799 37.3449C45.4493 34.9198 45.4493 29.8603 45.4493 29.8603C45.4493 29.8603 45.4493 24.8007 44.799 22.3756ZM26.7907 34.5235V25.197L34.8837 29.8603L26.7907 34.5235Z" fill="white"/>
</g>
<defs>
<clipPath id="clip0_28_27622">
<rect width="60" height="60" fill="white"/>
</clipPath>
</defs>
</svg>
