<svg width="30" height="30" viewBox="0 0 30 30" fill="none" xmlns="http://www.w3.org/2000/svg">
<g id="&#208;&#152;&#208;&#186;&#208;&#190;&#208;&#189;&#208;&#186;&#208;&#184; &#208;&#188;&#208;&#190;&#208;&#177;&#208;&#184;&#208;&#187;&#209;&#140;&#208;&#189;&#208;&#190;&#208;&#179;&#208;&#190; &#208;&#188;&#208;&#181;&#208;&#189;&#209;&#142;">
<path id="Vector" d="M23.1037 5H6.50872C6.1086 5 5.72488 5.15894 5.44195 5.44187C5.15903 5.72479 5.00009 6.10852 5.00009 6.50863V21.4813C4.99699 21.77 5.07836 22.0533 5.23418 22.2963C5.39 22.5393 5.61348 22.7315 5.8771 22.8491C6.07222 22.9487 6.28946 23 6.50872 23C6.86467 22.999 7.20881 22.8722 7.48028 22.642L10.4774 20.1245L23.1037 20.0863C23.5038 20.0863 23.8875 19.9274 24.1704 19.6445C24.4534 19.3615 24.6123 18.9778 24.6123 18.5777V6.50863C24.6123 6.10852 24.4534 5.72479 24.1704 5.44187C23.8875 5.15894 23.5038 5 23.1037 5ZM10.2803 13.6746C9.98021 13.6746 9.69242 13.5554 9.48023 13.3432C9.26803 13.131 9.14883 12.8432 9.14883 12.5432C9.14883 12.2431 9.26803 11.9553 9.48023 11.7431C9.69242 11.5309 9.98021 11.4117 10.2803 11.4117C10.5804 11.4117 10.8682 11.5309 11.0804 11.7431C11.2926 11.9553 11.4118 12.2431 11.4118 12.5432C11.4118 12.8432 11.2926 13.131 11.0804 13.3432C10.8682 13.5554 10.5804 13.6746 10.2803 13.6746ZM14.8062 13.6746C14.5061 13.6746 14.2183 13.5554 14.0061 13.3432C13.7939 13.131 13.6747 12.8432 13.6747 12.5432C13.6747 12.2431 13.7939 11.9553 14.0061 11.7431C14.2183 11.5309 14.5061 11.4117 14.8062 11.4117C15.1063 11.4117 15.3941 11.5309 15.6063 11.7431C15.8185 11.9553 15.9377 12.2431 15.9377 12.5432C15.9377 12.8432 15.8185 13.131 15.6063 13.3432C15.3941 13.5554 15.1063 13.6746 14.8062 13.6746ZM19.3321 13.6746C19.1806 13.6792 19.0297 13.6532 18.8885 13.5984C18.7472 13.5435 18.6183 13.4608 18.5096 13.3553C18.4008 13.2497 18.3144 13.1234 18.2553 12.9838C18.1963 12.8442 18.1659 12.6942 18.1659 12.5427C18.1659 12.3911 18.1963 12.2411 18.2553 12.1015C18.3144 11.9619 18.4008 11.8356 18.5096 11.73C18.6183 11.6245 18.7472 11.5418 18.8885 11.487C19.0297 11.4321 19.1806 11.4062 19.3321 11.4107C19.6265 11.4195 19.9059 11.5426 20.111 11.7539C20.3161 11.9652 20.4308 12.2482 20.4308 12.5427C20.4308 12.8372 20.3161 13.1201 20.111 13.3314C19.9059 13.5428 19.6265 13.6659 19.3321 13.6746Z" fill="#9FB3BF"/>
</g>
</svg>
