<svg width="20" height="22" viewBox="0 0 20 22" fill="none" xmlns="http://www.w3.org/2000/svg">
<path fill-rule="evenodd" clip-rule="evenodd" d="M1.18297 7.6563C2.13852 6.52026 3.74837 6 6.00075 6H14.0008C16.2531 6 17.863 6.52026 18.8185 7.6563C19.7646 8.78103 19.8384 10.2416 19.6947 11.54L19.693 11.554L18.9441 17.5455C18.8317 18.5875 18.5638 19.7886 17.579 20.6883C16.6004 21.5823 15.1132 22 13.0008 22H7.00075C4.88828 22 3.40112 21.5823 2.42252 20.6883C1.43768 19.7886 1.16984 18.5875 1.05741 17.5455L0.308475 11.554L0.306819 11.54C0.163147 10.2416 0.236941 8.78103 1.18297 7.6563ZM2.29393 11.3132L3.04303 17.306L3.04506 17.3235C3.14319 18.2394 3.34165 18.819 3.77149 19.2117C4.21038 19.6127 5.09322 20 7.00075 20H13.0008C14.9083 20 15.7911 19.6127 16.23 19.2117C16.6599 18.819 16.8583 18.2394 16.9564 17.3235L16.9585 17.306L17.7076 11.3132C17.8326 10.1754 17.6911 9.42301 17.288 8.9437C16.8935 8.47474 16.0184 8 14.0008 8H6.00075C3.98313 8 3.10799 8.47474 2.71353 8.9437C2.31037 9.42301 2.16892 10.1754 2.29393 11.3132Z" fill="black"/>
<path fill-rule="evenodd" clip-rule="evenodd" d="M13.5 5.50966C13.5 3.46185 11.7407 1.82279 9.65656 2.02499L9.65293 2.02533C7.97432 2.182 6.5 3.90625 6.5 5.69966V6.66966C6.5 7.22194 6.05228 7.66966 5.5 7.66966C4.94772 7.66966 4.5 7.22194 4.5 6.66966V5.69966C4.5 2.99365 6.64476 0.298473 9.46525 0.0341551C12.7403 -0.282523 15.5 2.29806 15.5 5.50966V6.88966C15.5 7.44194 15.0523 7.88966 14.5 7.88966C13.9477 7.88966 13.5 7.44194 13.5 6.88966V5.50966Z" fill="black"/>
</svg>
