<svg width="24" height="24" viewBox="0 0 24 24" fill="none" xmlns="http://www.w3.org/2000/svg">
<path fill-rule="evenodd" clip-rule="evenodd" d="M11.6798 5C7.8934 5 4.42466 7.37101 2.2022 11.242C1.9326 11.7115 1.9326 12.2886 2.2022 12.7581C4.42466 16.6291 7.89339 19 11.6798 19C15.4661 19 18.9349 16.629 21.1574 12.7581C21.4269 12.2885 21.4269 11.7115 21.1573 11.2419C18.9349 7.37097 15.4662 5 11.6798 5ZM0.467735 10.2462C2.94526 5.93094 6.99416 3 11.6798 3C16.3654 3 20.4143 5.9309 22.8918 10.2461C23.5155 11.3323 23.5155 12.6676 22.8918 13.7539C20.4143 18.0691 16.3654 21 11.6798 21C6.99415 21 2.94527 18.0691 0.467746 13.754C-0.155911 12.6677 -0.155916 11.3324 0.467735 10.2462Z" fill="black"/>
<path fill-rule="evenodd" clip-rule="evenodd" d="M11.6797 10C10.5751 10 9.67969 10.8954 9.67969 12C9.67969 13.1046 10.5751 14 11.6797 14C12.7843 14 13.6797 13.1046 13.6797 12C13.6797 10.8954 12.7843 10 11.6797 10ZM7.67969 12C7.67969 9.79086 9.47055 8 11.6797 8C13.8888 8 15.6797 9.79086 15.6797 12C15.6797 14.2091 13.8888 16 11.6797 16C9.47055 16 7.67969 14.2091 7.67969 12Z" fill="black"/>
</svg>
