<?xml version="1.0" encoding="utf-8"?>
<!-- Generator: Adobe Illustrator 26.0.2, SVG Export Plug-In . SVG Version: 6.00 Build 0)  -->
<svg version="1.1" id="Слой_1" xmlns="http://www.w3.org/2000/svg" xmlns:xlink="http://www.w3.org/1999/xlink" x="0px"
	y="0px" viewBox="0 0 24 24" style="enable-background:new 0 0 24 24;" xml:space="preserve">
	<path
		d="M17.5,23c-1.2,0-2.4-0.3-3.7-0.8c-1.2-0.5-2.4-1.2-3.6-2.1c-1.2-0.9-2.3-1.8-3.4-2.9c-1.1-1.1-2-2.2-2.9-3.4
		c-0.9-1.2-1.6-2.4-2.1-3.6C1.3,8.9,1,7.7,1,6.5C1,5.7,1.1,5,1.4,4.2c0.3-0.8,0.8-1.4,1.4-2C3.6,1.4,4.6,1,5.6,1
		C6,1,6.5,1.1,6.8,1.3c0.4,0.2,0.8,0.5,1.1,0.9l2.3,3.3c0.2,0.3,0.4,0.6,0.5,0.9c0.1,0.3,0.2,0.7,0.2,1c0,0.4-0.1,0.8-0.4,1.2
		c-0.2,0.3-0.4,0.6-0.7,0.9L9.3,10c0.1,0.2,0.3,0.5,0.7,1c0.5,0.6,0.9,1.1,1.4,1.5c0.6,0.6,1.1,1,1.5,1.4c0.4,0.4,0.8,0.6,1,0.7
		l0.6-0.6c0.3-0.3,0.6-0.6,1-0.7c0.6-0.4,1.4-0.4,2.2-0.1c0.3,0.1,0.6,0.3,0.9,0.5l3.3,2.4c0.4,0.3,0.7,0.6,0.9,1.1
		c0.2,0.4,0.2,0.8,0.2,1.2c0,0.5-0.1,1-0.3,1.5c-0.2,0.5-0.5,0.9-0.8,1.3c-0.6,0.7-1.3,1.1-2,1.4C19.1,22.8,18.3,23,17.5,23z M5.6,3
		C5.1,3,4.7,3.2,4.2,3.7C3.8,4.1,3.5,4.5,3.3,5C3.1,5.5,3,6,3,6.5c0,0.9,0.2,1.9,0.6,2.9c0.4,1,1.1,2.1,1.8,3.2
		c0.8,1.1,1.7,2.2,2.7,3.2c1,1,2.1,1.9,3.2,2.7c1.1,0.8,2.2,1.4,3.2,1.9c1.6,0.7,3.2,0.9,4.4,0.3c0.5-0.2,0.9-0.5,1.3-0.9
		c0.2-0.2,0.4-0.5,0.5-0.8c0.1-0.2,0.2-0.4,0.2-0.7c0-0.1,0-0.3-0.1-0.4c0,0-0.1-0.1-0.2-0.2l-3.3-2.4c-0.2-0.1-0.4-0.2-0.5-0.3
		c-0.1-0.1-0.2-0.1-0.4,0c-0.1,0.1-0.3,0.2-0.5,0.4l-0.8,0.8c-0.5,0.5-1.2,0.6-1.7,0.4l-0.3-0.1c-0.4-0.2-0.9-0.6-1.5-1
		c-0.5-0.4-1-0.9-1.6-1.5c-0.5-0.5-1-1-1.5-1.6c-0.5-0.6-0.8-1.1-1.1-1.5l-0.2-0.4c0-0.2-0.1-0.3-0.1-0.5c0-0.4,0.2-0.8,0.5-1.1
		L8.4,8c0.2-0.2,0.4-0.4,0.4-0.5c0.1-0.1,0.1-0.2,0.1-0.2c0,0,0-0.1-0.1-0.2C8.8,6.9,8.7,6.8,8.6,6.6L6.3,3.3C6.2,3.2,6.1,3.1,6,3.1
		C5.9,3,5.7,3,5.6,3z M13.7,14.8C13.7,14.9,13.7,14.9,13.7,14.8L13.7,14.8z M9.1,10.2L9.1,10.2C9.1,10.2,9.1,10.2,9.1,10.2z" />
	<path d="M18.5,10c-0.6,0-1-0.4-1-1c0-0.2-0.3-0.9-0.9-1.6c-0.5-0.6-1.1-0.9-1.6-0.9c-0.6,0-1-0.4-1-1s0.4-1,1-1
		c1,0,2.2,0.6,3.1,1.6C18.8,6.8,19.5,8,19.5,9C19.5,9.6,19.1,10,18.5,10z" />
	<path d="M22,10c-0.6,0-1-0.4-1-1c0-3.3-2.7-6-6-6c-0.6,0-1-0.4-1-1s0.4-1,1-1c4.4,0,8,3.6,8,8C23,9.6,22.6,10,22,10z" />
</svg>
