<svg width="41" height="45" viewBox="0 0 41 45" fill="none" xmlns="http://www.w3.org/2000/svg">
<path fill-rule="evenodd" clip-rule="evenodd" d="M5.64867 5.91195C4.33336 7.32844 3.625 9.45976 3.625 12.2923V32.709C3.625 35.5415 4.33336 37.6729 5.64867 39.0894C6.94529 40.4857 9.04632 41.4173 12.3333 41.4173H28.6667C31.9537 41.4173 34.0547 40.4857 35.3513 39.0894C36.6666 37.6729 37.375 35.5415 37.375 32.709V12.2923C37.375 9.45976 36.6666 7.32844 35.3513 5.91195C34.0547 4.51559 31.9537 3.58398 28.6667 3.58398H12.3333C9.04632 3.58398 6.94529 4.51559 5.64867 5.91195ZM3.45029 3.8706C5.47137 1.69405 8.47452 0.583984 12.3333 0.583984H28.6667C32.5255 0.583984 35.5286 1.69405 37.5497 3.8706C39.5521 6.02703 40.375 8.99988 40.375 12.2923V32.709C40.375 36.0014 39.5521 38.9743 37.5497 41.1307C35.5286 43.3073 32.5255 44.4173 28.6667 44.4173H12.3333C8.47452 44.4173 5.47137 43.3073 3.45029 41.1307C1.44789 38.9743 0.625 36.0014 0.625 32.709V12.2923C0.625 8.99988 1.44789 6.02703 3.45029 3.8706Z" fill="black"/>
<path fill-rule="evenodd" clip-rule="evenodd" d="M25.6016 5.6875C26.43 5.6875 27.1016 6.35907 27.1016 7.1875V11.2708C27.1016 12.6882 28.2675 13.8542 29.6849 13.8542H33.7682C34.5967 13.8542 35.2682 14.5257 35.2682 15.3542C35.2682 16.1826 34.5967 16.8542 33.7682 16.8542H29.6849C26.6106 16.8542 24.1016 14.3451 24.1016 11.2708V7.1875C24.1016 6.35907 24.7731 5.6875 25.6016 5.6875Z" fill="black"/>
<path fill-rule="evenodd" clip-rule="evenodd" d="M10.8359 24.541C10.8359 23.7126 11.5075 23.041 12.3359 23.041H20.5026C21.331 23.041 22.0026 23.7126 22.0026 24.541C22.0026 25.3694 21.331 26.041 20.5026 26.041H12.3359C11.5075 26.041 10.8359 25.3694 10.8359 24.541Z" fill="black"/>
<path fill-rule="evenodd" clip-rule="evenodd" d="M10.8359 32.709C10.8359 31.8806 11.5075 31.209 12.3359 31.209H28.6693C29.4977 31.209 30.1693 31.8806 30.1693 32.709C30.1693 33.5374 29.4977 34.209 28.6693 34.209H12.3359C11.5075 34.209 10.8359 33.5374 10.8359 32.709Z" fill="black"/>
</svg>
