<svg width="18" height="20" viewBox="0 0 18 20" fill="none" xmlns="http://www.w3.org/2000/svg">
<path fill-rule="evenodd" clip-rule="evenodd" d="M3.22238 3.49425C2.77432 3.97677 2.5 4.73793 2.5 5.83464V14.168C2.5 15.2647 2.77432 16.0258 3.22238 16.5084C3.65797 16.9775 4.39893 17.3346 5.66667 17.3346H12.3333C13.6011 17.3346 14.342 16.9775 14.7776 16.5084C15.2257 16.0258 15.5 15.2647 15.5 14.168V5.83464C15.5 4.73793 15.2257 3.97677 14.7776 3.49425C14.342 3.02515 13.6011 2.66797 12.3333 2.66797H5.66667C4.39893 2.66797 3.65797 3.02515 3.22238 3.49425ZM1.75679 2.13335C2.67536 1.14412 4.01773 0.667969 5.66667 0.667969H12.3333C13.9823 0.667969 15.3246 1.14412 16.2432 2.13335C17.1493 3.10916 17.5 4.43134 17.5 5.83464V14.168C17.5 15.5713 17.1493 16.8934 16.2432 17.8693C15.3246 18.8585 13.9823 19.3346 12.3333 19.3346H5.66667C4.01773 19.3346 2.67536 18.8585 1.75679 17.8693C0.850678 16.8934 0.5 15.5713 0.5 14.168V5.83464C0.5 4.43134 0.850678 3.10916 1.75679 2.13335Z" fill="black"/>
<path fill-rule="evenodd" clip-rule="evenodd" d="M11.083 2.75C11.6353 2.75 12.083 3.19772 12.083 3.75V5.41667C12.083 5.78105 12.3853 6.08333 12.7497 6.08333H14.4163C14.9686 6.08333 15.4163 6.53105 15.4163 7.08333C15.4163 7.63562 14.9686 8.08333 14.4163 8.08333H12.7497C11.2807 8.08333 10.083 6.88562 10.083 5.41667V3.75C10.083 3.19772 10.5307 2.75 11.083 2.75Z" fill="black"/>
<path fill-rule="evenodd" clip-rule="evenodd" d="M4.66699 10.834C4.66699 10.2817 5.11471 9.83398 5.66699 9.83398H9.00033C9.55261 9.83398 10.0003 10.2817 10.0003 10.834C10.0003 11.3863 9.55261 11.834 9.00033 11.834H5.66699C5.11471 11.834 4.66699 11.3863 4.66699 10.834Z" fill="black"/>
<path fill-rule="evenodd" clip-rule="evenodd" d="M4.66699 14.168C4.66699 13.6157 5.11471 13.168 5.66699 13.168H12.3337C12.8859 13.168 13.3337 13.6157 13.3337 14.168C13.3337 14.7203 12.8859 15.168 12.3337 15.168H5.66699C5.11471 15.168 4.66699 14.7203 4.66699 14.168Z" fill="black"/>
</svg>
