<svg width="22" height="22" viewBox="0 0 22 22" fill="none" xmlns="http://www.w3.org/2000/svg">
<path fill-rule="evenodd" clip-rule="evenodd" d="M14.6932 7.83609C14.7288 7.4234 15.0921 7.11766 15.5048 7.1532C17.4168 7.31784 18.9142 7.90578 19.9079 9.13037C20.8847 10.3343 21.2605 12.0168 21.2605 14.1104V14.2404C21.2605 16.5496 20.8027 18.3614 19.587 19.577C18.3714 20.7926 16.5596 21.2504 14.2505 21.2504H7.74047C5.43129 21.2504 3.61952 20.7926 2.40389 19.577C1.18826 18.3614 0.730469 16.5496 0.730469 14.2404V14.1104C0.730469 12.032 1.10117 10.3596 2.06232 9.15816C3.0408 7.93506 4.5164 7.33934 6.40086 7.16367C6.81328 7.12523 7.17878 7.4284 7.21723 7.84082C7.25568 8.25325 6.95251 8.61875 6.54008 8.6572C4.88454 8.81153 3.86514 9.30581 3.23362 10.0952C2.58476 10.9063 2.23047 12.1689 2.23047 14.1104V14.2404C2.23047 16.4013 2.66768 17.7195 3.46455 18.5164C4.26142 19.3132 5.57964 19.7504 7.74047 19.7504H14.2505C16.4113 19.7504 17.7295 19.3132 18.5264 18.5164C19.3233 17.7195 19.7605 16.4013 19.7605 14.2404V14.1104C19.7605 12.1541 19.4012 10.8866 18.7431 10.0755C18.1017 9.28508 17.0642 8.79303 15.3761 8.64767C14.9634 8.61213 14.6577 8.24878 14.6932 7.83609Z" fill="black"/>
<path fill-rule="evenodd" clip-rule="evenodd" d="M11 0.25C11.4142 0.25 11.75 0.585786 11.75 1V13.88C11.75 14.2942 11.4142 14.63 11 14.63C10.5858 14.63 10.25 14.2942 10.25 13.88V1C10.25 0.585786 10.5858 0.25 11 0.25Z" fill="black"/>
<path fill-rule="evenodd" clip-rule="evenodd" d="M7.12006 11.1201C7.41295 10.8272 7.88783 10.8272 8.18072 11.1201L11.0004 13.9397L13.8201 11.1201C14.113 10.8272 14.5878 10.8272 14.8807 11.1201C15.1736 11.413 15.1736 11.8878 14.8807 12.1807L11.5307 15.5307C11.2378 15.8236 10.763 15.8236 10.4701 15.5307L7.12006 12.1807C6.82717 11.8878 6.82717 11.413 7.12006 11.1201Z" fill="black"/>
</svg>
