<svg width="61" height="4" viewBox="0 0 61 4" fill="none" xmlns="http://www.w3.org/2000/svg">
<path fill-rule="evenodd" clip-rule="evenodd" d="M0 2C0 0.89543 0.89543 0 2 0H59C60.1046 0 61 0.89543 61 2C61 3.10457 60.1046 4 59 4H2C0.89543 4 0 3.10457 0 2Z" fill="black"/>
<path fill-rule="evenodd" clip-rule="evenodd" d="M61 2C61 3.10457 60.1046 4 59 4L2 4C0.895428 4 -3.9504e-06 3.10457 -3.90212e-06 2C-3.85384e-06 0.895428 0.895428 -2.62725e-06 2 -2.57897e-06L59 -8.74228e-08C60.1046 -3.91405e-08 61 0.89543 61 2Z" fill="black"/>
</svg>
