<svg width="22" height="18" viewBox="0 0 22 18" fill="none" xmlns="http://www.w3.org/2000/svg">
<path fill-rule="evenodd" clip-rule="evenodd" d="M6.5 2C5.89473 2 5.4007 2.02005 4.98142 2.07995C4.97084 2.08146 4.96023 2.0828 4.9496 2.08398C3.76709 2.21437 3.28859 2.52675 3.01892 2.93624C2.68999 3.43573 2.5 4.31988 2.5 6V12C2.5 13.6801 2.68999 14.5643 3.01892 15.0638C3.28859 15.4733 3.76709 15.7856 4.9496 15.916C4.96023 15.9172 4.97084 15.9185 4.98142 15.9201C5.4007 15.9799 5.89473 16 6.5 16H15.5C16.1053 16 16.5993 15.9799 17.0186 15.9201C17.0292 15.9185 17.0398 15.9172 17.0504 15.916C18.2329 15.7856 18.7114 15.4733 18.9811 15.0638C19.31 14.5643 19.5 13.6801 19.5 12V6C19.5 4.31988 19.31 3.43573 18.9811 2.93624C18.7114 2.52675 18.2329 2.21437 17.0504 2.08398C17.0398 2.0828 17.0292 2.08146 17.0186 2.07995C16.5993 2.02005 16.1053 2 15.5 2H6.5ZM4.71462 0.0977768C5.27086 0.0195687 5.87132 0 6.5 0H15.5C16.1287 0 16.7291 0.0195687 17.2854 0.0977768C18.7257 0.258933 19.9113 0.712354 20.6514 1.83626C21.335 2.87427 21.5 4.30012 21.5 6V12C21.5 13.6999 21.335 15.1257 20.6514 16.1637C19.9113 17.2876 18.7258 17.7411 17.2854 17.9022C16.7292 17.9804 16.1287 18 15.5 18H6.5C5.8713 18 5.27082 17.9804 4.71457 17.9022C3.27423 17.7411 2.0887 17.2876 1.34858 16.1637C0.665011 15.1257 0.5 13.6999 0.5 12V6C0.5 4.30012 0.665011 2.87427 1.34858 1.83626C2.08871 0.712354 3.27426 0.258933 4.71462 0.0977768Z" fill="black"/>
<path fill-rule="evenodd" clip-rule="evenodd" d="M11.5 7C11.5 6.44772 11.9477 6 12.5 6H16C16.5523 6 17 6.44772 17 7C17 7.55228 16.5523 8 16 8H12.5C11.9477 8 11.5 7.55228 11.5 7Z" fill="black"/>
<path fill-rule="evenodd" clip-rule="evenodd" d="M5 12.5C5 11.9477 5.44772 11.5 6 11.5H16C16.5523 11.5 17 11.9477 17 12.5C17 13.0523 16.5523 13.5 16 13.5H6C5.44772 13.5 5 13.0523 5 12.5Z" fill="black"/>
<path fill-rule="evenodd" clip-rule="evenodd" d="M8.09375 7C8.09375 6.44772 8.54147 6 9.09375 6H9.10273C9.65502 6 10.1027 6.44772 10.1027 7C10.1027 7.55228 9.65502 8 9.10273 8H9.09375C8.54147 8 8.09375 7.55228 8.09375 7Z" fill="black"/>
<path fill-rule="evenodd" clip-rule="evenodd" d="M5.09375 7C5.09375 6.44772 5.54147 6 6.09375 6H6.10273C6.65502 6 7.10273 6.44772 7.10273 7C7.10273 7.55228 6.65502 8 6.10273 8H6.09375C5.54147 8 5.09375 7.55228 5.09375 7Z" fill="black"/>
</svg>
