<svg width="24" height="24" viewBox="0 0 24 24" fill="none" xmlns="http://www.w3.org/2000/svg">
<path fill-rule="evenodd" clip-rule="evenodd" d="M16.4009 22.6246C14.2995 23.495 11.9872 23.7228 9.75646 23.279C7.52568 22.8353 5.47658 21.74 3.86827 20.1317C2.25997 18.5234 1.1647 16.4743 0.720968 14.2435C0.277239 12.0128 0.504978 9.70049 1.37539 7.59914C2.24579 5.49778 3.71978 3.70173 5.61094 2.43809C7.50211 1.17446 9.72552 0.499994 12 0.499994C12.8284 0.499994 13.5 1.17157 13.5 1.99999C13.5 2.82842 12.8284 3.49999 12 3.49999C10.3189 3.49999 8.67547 3.99851 7.27765 4.9325C5.87983 5.8665 4.79037 7.19401 4.14702 8.74719C3.50368 10.3004 3.33535 12.0094 3.66332 13.6583C3.9913 15.3071 4.80085 16.8217 5.98959 18.0104C7.17834 19.1991 8.69289 20.0087 10.3417 20.3367C11.9906 20.6646 13.6996 20.4963 15.2528 19.853C16.806 19.2096 18.1335 18.1202 19.0675 16.7223C20.0015 15.3245 20.5 13.6811 20.5 12C20.5 11.1716 21.1716 10.5 22 10.5C22.8284 10.5 23.5 11.1716 23.5 12C23.5 14.2745 22.8255 16.4979 21.5619 18.3891C20.2983 20.2802 18.5022 21.7542 16.4009 22.6246Z" fill="black"/>
</svg>
