<svg width="22" height="23" viewBox="0 0 22 23" fill="none" xmlns="http://www.w3.org/2000/svg">
<path fill-rule="evenodd" clip-rule="evenodd" d="M3.20711 3.20711C2.46079 3.95343 2 5.15414 2 7V12C2 14.4138 2.49156 15.5388 3.1585 16.1224C3.85848 16.7349 5.01768 17 7 17H7.5C7.83209 17 8.14562 17.1027 8.3854 17.2215C8.62157 17.3386 8.89948 17.5276 9.10327 17.8044L10.6 19.8C10.7689 20.0252 10.9233 20.06 11 20.06C11.0767 20.06 11.2311 20.0252 11.4 19.8L12.9038 17.7949C13.28 17.2999 13.8728 17 14.5 17H15C16.8459 17 18.0466 16.5392 18.7929 15.7929C19.5392 15.0466 20 13.8459 20 12V7C20 5.15414 19.5392 3.95343 18.7929 3.20711C18.0466 2.46079 16.8459 2 15 2H7C5.15414 2 3.95343 2.46079 3.20711 3.20711ZM1.79289 1.79289C3.04657 0.539213 4.84586 0 7 0H15C17.1541 0 18.9534 0.539213 20.2071 1.79289C21.4608 3.04657 22 4.84586 22 7V12C22 14.1541 21.4608 15.9534 20.2071 17.2071C18.9534 18.4608 17.1541 19 15 19H14.5037C14.5033 19.0002 14.5028 19.0004 14.5022 19.0007C14.5006 19.0015 14.499 19.0025 14.4978 19.0036C14.497 19.0042 14.4966 19.0046 14.4963 19.0049C14.4962 19.005 14.4963 19.0049 14.4963 19.0049L13 21C12.5089 21.6548 11.7933 22.06 11 22.06C10.2067 22.06 9.49112 21.6548 9 21L7.51928 19.0257C7.51304 19.0218 7.50553 19.0176 7.4971 19.0135C7.48848 19.0092 7.48002 19.0055 7.47227 19.0025C7.46973 19.0016 7.46741 19.0007 7.46532 19H7C4.98232 19 3.14152 18.7651 1.8415 17.6276C0.508444 16.4612 0 14.5862 0 12V7C0 4.84586 0.539213 3.04657 1.79289 1.79289Z" fill="black"/>
<path fill-rule="evenodd" clip-rule="evenodd" d="M5 7C5 6.44772 5.44772 6 6 6H16C16.5523 6 17 6.44772 17 7C17 7.55228 16.5523 8 16 8H6C5.44772 8 5 7.55228 5 7Z" fill="black"/>
<path fill-rule="evenodd" clip-rule="evenodd" d="M5 12C5 11.4477 5.44772 11 6 11H12C12.5523 11 13 11.4477 13 12C13 12.5523 12.5523 13 12 13H6C5.44772 13 5 12.5523 5 12Z" fill="black"/>
</svg>
