<?xml version="1.0" encoding="utf-8"?>
<!-- Generator: Adobe Illustrator 26.0.2, SVG Export Plug-In . SVG Version: 6.00 Build 0)  -->
<svg version="1.1" id="Слой_1" xmlns="http://www.w3.org/2000/svg" xmlns:xlink="http://www.w3.org/1999/xlink" x="0px" y="0px"
	 viewBox="0 0 22 22" style="enable-background:new 0 0 22 22;" xml:space="preserve">
<style type="text/css">
	.st0{fill-rule:evenodd;clip-rule:evenodd;}
</style>
<path class="st0" d="M8,2C6.1,2,4.6,3.5,4.6,5.4c0,1.8,1.4,3.3,3.3,3.4c0.1,0,0.2,0,0.4,0c1.8-0.1,3.3-1.6,3.3-3.4
	C11.4,3.5,9.9,2,8,2z M2.6,5.4C2.6,2.4,5,0,8,0c3,0,5.4,2.4,5.4,5.4v0l0,0c0,2.9-2.3,5.3-5.2,5.4c0,0-0.1,0-0.1,0c0,0-0.1,0-0.1,0
	c0,0-0.1,0-0.1,0C4.9,10.8,2.6,8.4,2.6,5.4z"/>
<path class="st0" d="M14.4,3c0-0.6,0.4-1,1-1c2.5,0,4.5,2,4.5,4.5c0,2.4-1.9,4.4-4.3,4.5c-0.1,0-0.1,0-0.2,0c0,0,0,0,0,0
	c0,0,0,0,0,0c-0.5,0.1-1-0.3-1.1-0.9c-0.1-0.5,0.3-1,0.9-1.1c0.1,0,0.3,0,0.4,0c1.3-0.1,2.3-1.2,2.3-2.5c0-1.4-1.1-2.5-2.5-2.5
	C14.9,4,14.4,3.6,14.4,3z"/>
<path class="st0" d="M13.7,12.7c-1.6-1-3.6-1.5-5.6-1.5c-2,0-4,0.5-5.6,1.5l0,0c-1.4,0.9-2.3,2.3-2.3,3.8c0,1.5,0.8,2.8,2.3,3.8
	c1.6,1.1,3.6,1.5,5.6,1.5c2,0,4-0.5,5.6-1.5l0,0c1.4-0.9,2.3-2.3,2.3-3.8C16,15,15.1,13.7,13.7,12.7z M12.2,19.2L12.2,19.2
	c-1.1,0.8-2.6,1.1-4,1.1c-1.4,0-2.9-0.4-4-1.1c-1-0.7-1.6-1.7-1.6-2.7c0-1.1,0.6-2.1,1.6-2.7l0,0c1.1-0.8,2.6-1.1,4-1.1
	c1.4,0,2.9,0.4,4,1.1c1,0.7,1.6,1.7,1.6,2.7C13.9,17.6,13.2,18.5,12.2,19.2z"/>
<path class="st0" d="M16.4,12.8c0.1-0.5,0.7-0.9,1.2-0.8c0.8,0.2,1.6,0.5,2.3,1c1,0.7,1.6,1.8,1.6,2.9c0,1.1-0.6,2.2-1.6,2.9
	c-0.7,0.5-1.5,0.9-2.4,1.1c-0.5,0.1-1.1-0.2-1.2-0.8c-0.1-0.5,0.2-1.1,0.8-1.2c0.6-0.1,1.1-0.4,1.6-0.7l0,0c0.6-0.4,0.8-0.9,0.8-1.3
	c0-0.4-0.2-0.9-0.8-1.3l0,0c-0.4-0.3-0.9-0.5-1.5-0.7C16.6,13.9,16.3,13.3,16.4,12.8z"/>
</svg>
