<svg width="22" height="20" viewBox="0 0 22 20" fill="none" xmlns="http://www.w3.org/2000/svg">
<path fill-rule="evenodd" clip-rule="evenodd" d="M3.05545 3.42029C2.44051 3.99131 2 4.9406 2 6.5V13.5C2 15.0594 2.44051 16.0087 3.05545 16.5797C3.68381 17.1632 4.65329 17.5 6 17.5H16C17.3467 17.5 18.3162 17.1632 18.9445 16.5797C19.5595 16.0087 20 15.0594 20 13.5V6.5C20 4.9406 19.5595 3.99131 18.9445 3.42029C18.3162 2.83682 17.3467 2.5 16 2.5H6C4.65329 2.5 3.68381 2.83682 3.05545 3.42029ZM1.69455 1.95471C2.81619 0.913178 4.34671 0.5 6 0.5H16C17.6533 0.5 19.1838 0.913178 20.3055 1.95471C21.4405 3.00869 22 4.5594 22 6.5V13.5C22 15.4406 21.4405 16.9913 20.3055 18.0453C19.1838 19.0868 17.6533 19.5 16 19.5H6C4.34671 19.5 2.81619 19.0868 1.69455 18.0453C0.559487 16.9913 0 15.4406 0 13.5V6.5C0 4.5594 0.559487 3.00869 1.69455 1.95471Z" fill="black"/>
<path fill-rule="evenodd" clip-rule="evenodd" d="M20.8146 4.41994C21.135 4.86978 21.0301 5.49419 20.5802 5.81459L14.945 9.82833C13.8163 10.6296 12.3786 11.0001 10.9911 11.0001C9.60349 11.0001 8.16588 10.6296 7.03718 9.82833L7.03469 9.82656L1.4187 5.81372C0.969344 5.49263 0.865357 4.86806 1.18644 4.4187C1.50753 3.96935 2.13209 3.86536 2.58145 4.18644L8.19495 8.19751C8.19533 8.19778 8.1957 8.19804 8.19608 8.19831C8.9213 8.71272 9.9312 9.00008 10.9911 9.00008C12.0512 9.00008 13.0613 8.71258 13.7866 8.19792C13.7868 8.19778 13.7864 8.19806 13.7866 8.19792L19.4199 4.18556C19.8698 3.86516 20.4942 3.97009 20.8146 4.41994Z" fill="black"/>
</svg>
