<?xml version="1.0" encoding="utf-8"?>
<!-- Generator: Adobe Illustrator 26.0.2, SVG Export Plug-In . SVG Version: 6.00 Build 0)  -->
<svg version="1.1" id="Слой_1" xmlns="http://www.w3.org/2000/svg" xmlns:xlink="http://www.w3.org/1999/xlink" x="0px" y="0px"
	 viewBox="0 0 24 24" style="enable-background:new 0 0 24 24;" xml:space="preserve">
<g>
	<path d="M12,13c3.3,0,6-2.7,6-6s-2.7-6-6-6S6,3.7,6,7S8.7,13,12,13z M12,3c2.2,0,4,1.8,4,4s-1.8,4-4,4c-2.2,0-4-1.8-4-4S9.8,3,12,3
		z"/>
	<path d="M21.7,14.7C20.8,13.6,19.4,13,18,13c-1.3,0-2.4,0.5-3.4,1.3C13.8,14.1,12.9,14,12,14c-5.3,0-9.6,3.6-9.6,8c0,0.6,0.4,1,1,1
		s1-0.4,1-1c0-3.3,3.4-6,7.6-6c0.5,0,0.9,0,1.4,0.1C13.1,16.7,13,17.3,13,18c0,0.9,0.3,1.8,0.7,2.6c0.3,0.4,0.6,0.8,0.9,1.1
		c0.9,0.8,2.1,1.3,3.3,1.3c1.7,0,3.4-0.9,4.3-2.4c0.3-0.4,0.5-0.9,0.6-1.4c0.1-0.4,0.2-0.8,0.2-1.2C23,16.8,22.5,15.6,21.7,14.7z
		 M20.9,18.7c-0.1,0.3-0.2,0.6-0.3,0.8C20,20.5,19.1,21,18,21c-0.7,0-1.4-0.3-2-0.8c-0.2-0.2-0.4-0.4-0.6-0.7
		c-0.3-0.5-0.4-1-0.4-1.5c0-0.8,0.3-1.5,0.8-2.1c0.6-0.6,1.3-0.9,2.2-0.9c0.9,0,1.7,0.4,2.2,1c0.5,0.6,0.8,1.3,0.8,2
		C21,18.2,21,18.5,20.9,18.7z"/>
	<path d="M19.5,17h-3c-0.6,0-1,0.4-1,1s0.4,1,1,1h3c0.6,0,1-0.4,1-1S20,17,19.5,17z"/>
</g>
</svg>
