<?xml version="1.0" encoding="utf-8"?>
<!-- Generator: Adobe Illustrator 26.0.2, SVG Export Plug-In . SVG Version: 6.00 Build 0)  -->
<svg version="1.1" id="Слой_1" xmlns="http://www.w3.org/2000/svg" xmlns:xlink="http://www.w3.org/1999/xlink" x="0px" y="0px"
	 viewBox="0 0 24 24" style="enable-background:new 0 0 24 24;" xml:space="preserve">
<style type="text/css">
	.st0{fill-rule:evenodd;clip-rule:evenodd;}
</style>
<g>
	<path class="st0" d="M12,3C9.8,3,8,4.8,8,7s1.8,4,4,4c2.2,0,4-1.8,4-4S14.2,3,12,3z M6,7c0-3.3,2.7-6,6-6c3.3,0,6,2.7,6,6
		s-2.7,6-6,6C8.7,13,6,10.3,6,7z"/>
	<path class="st0" d="M2.4,22c0-4.6,4.5-8,9.6-8c5.1,0,9.6,3.4,9.6,8c0,0.6-0.4,1-1,1c-0.6,0-1-0.4-1-1c0-3.1-3.2-6-7.6-6
		c-4.4,0-7.6,2.9-7.6,6c0,0.6-0.4,1-1,1C2.9,23,2.4,22.6,2.4,22z"/>
</g>
</svg>
